<svg width="743" height="730" viewBox="0 0 743 730" fill="none" xmlns="http://www.w3.org/2000/svg">
<g clip-path="url(#clip0_0_1)">
<path d="M347.774 118.853C348.589 118.368 349.487 118.038 350.422 117.88C352.058 117.98 353.687 118.184 355.297 118.493C357.307 118.824 359.712 119.11 361.726 119.253C362.272 119.293 362.801 119.372 363.301 119.447C364.649 119.647 365.816 119.82 366.547 119.128C367.273 118.394 368.102 117.769 369.007 117.272C370.124 116.653 371.332 115.891 371.345 115.882L371.597 115.726L371.285 113.22L366.474 111.451L361.695 110.551C361.645 110.151 361.585 109.599 361.585 109.366C361.585 108.947 361.502 107.483 361.502 107.483L361.487 107.183L357.46 105.56L351.927 104.922L347.994 102.67L343.102 98.801C341.903 97.9099 340.613 97.1474 339.254 96.526C338.34 96.4428 337.42 96.4428 336.506 96.526C335.153 96.3951 333.813 96.1553 332.498 95.809C332.258 95.694 331.715 95.467 331.052 95.19C329.737 94.642 327.937 93.89 327.266 93.49C325.54 92.5155 323.67 91.8216 321.726 91.434C320.378 91.305 316.426 90.874 315.951 90.821L313.043 89.873L306.643 89.225L300.389 90.679L295.205 91.31L292.445 93.91L290.407 96.031L290.399 96.208C290.399 96.208 290.336 97.535 290.322 98.008C289.906 98.3323 289.433 98.5768 288.928 98.729C288.311 98.862 285.551 99.271 285.528 99.273L285.336 99.302L285.221 99.462C284.792 100.001 284.567 100.674 284.583 101.362C284.61 101.495 284.665 101.621 284.745 101.731C284.825 101.841 284.928 101.932 285.046 101.999L286.763 102.776L286.855 102.805C287.802 103.013 288.784 103.009 289.73 102.793C290.438 102.56 291.23 102.356 291.803 102.208C292.061 102.141 292.28 102.085 292.426 102.043C293.16 101.619 293.805 101.058 294.326 100.389L294.88 99.039L297.055 98.554C297.807 98.5936 298.561 98.5916 299.313 98.548C300.332 98.2671 301.336 97.9333 302.321 97.548L304.99 96.265C305.707 96.0689 306.447 95.9681 307.19 95.965C307.446 96.5539 307.576 97.1899 307.571 97.832C307.526 98.3438 307.678 98.8535 307.997 99.2562C308.316 99.6589 308.777 99.924 309.286 99.997C311.466 100.257 313.66 100.375 315.855 100.351L318.586 99.476C320.642 99.982 322.88 100.582 323.349 100.776C323.857 101.406 324.4 102.007 324.976 102.576L327.549 104.793L333.78 105.785L333.913 107.685L334.644 110.243L338.234 111.143L345.234 111.074L345.747 111.251L346.43 113.178L343.453 115.328C343.408 115.327 343.363 115.329 343.318 115.336C342.951 115.386 342.589 115.688 342.212 116.259C341.784 116.886 341.536 117.618 341.495 118.376V118.676L344.66 120.201L347.774 118.853Z" fill="#AAAAAA" stroke="white" stroke-width="0.5" stroke-miterlimit="10"/>
<path d="M349.669 136.535C350.814 136.179 351.994 135.945 353.188 135.835L357.226 136.741L358.859 136.22L359.007 136.141C359.092 136.074 361.107 134.47 361.678 133.91C362.418 133.181 361.693 131.472 361.453 130.966L361.33 130.708L358.007 130.629L353.844 132.148L350.738 132.213L346.592 130.594L343.231 130.356C342.43 130.34 341.636 130.506 340.908 130.841C340.291 131.196 339.655 131.516 339.002 131.799L336.777 133.151L337.74 133.468C338.721 133.768 339.681 134.129 340.617 134.549C340.717 134.634 340.923 134.864 341.175 135.137C341.687 135.786 342.294 136.355 342.975 136.825C344.11 137.077 345.269 137.205 346.431 137.206C347.543 137.185 348.641 136.958 349.669 136.535Z" fill="#AAAAAA" stroke="white" stroke-width="0.5" stroke-miterlimit="10"/>
<path d="M394.99 138.2C396.253 137.589 397.465 136.876 398.613 136.069L400.482 134.523H404.228C405.482 134.227 406.685 133.746 407.797 133.094C408.692 132.766 409.649 132.643 410.597 132.736C411.892 132.851 413.153 133.216 414.31 133.811C414.572 133.964 414.862 134.066 415.162 134.111C415.861 133.968 416.477 133.559 416.879 132.969C416.96 132.752 417.121 132.34 417.354 131.669C417.687 130.719 416.206 127.74 415.185 127.3C413.832 126.787 412.446 126.366 411.037 126.037C410.562 125.935 410.077 125.889 409.591 125.9C409.524 125.9 409.449 125.9 409.376 125.9L409.407 125.846C409.764 125.27 410.151 124.713 410.567 124.177C410.736 123.952 410.882 123.762 410.994 123.589C411.388 122.997 410.944 121.562 410.644 120.758L410.544 120.483L410.254 120.458C410.231 120.458 407.91 120.25 406.321 120.181C404.775 120.114 401.946 119.643 401.937 119.643L395.466 118.085C394.522 117.737 393.506 117.631 392.51 117.777C390.37 118.285 388.268 118.945 386.222 119.752L384.245 119.375L381.978 118.362L377.905 117.762L374.836 118.977L374.715 119.048C374.327 119.34 374.004 119.71 373.768 120.135C373.532 120.559 373.388 121.029 373.346 121.513C373.371 121.846 373.421 122.146 373.465 122.413C373.517 122.728 373.584 123.119 373.507 123.186C372.749 123.536 371.955 123.804 371.14 123.986L370.973 124.028L370.873 124.172C370.696 124.433 370.577 124.728 370.526 125.039C370.474 125.35 370.49 125.668 370.573 125.972C370.61 126.09 370.631 126.213 370.635 126.337C370.689 126.975 370.904 127.379 371.991 127.952C373.128 128.483 374.344 128.826 375.591 128.965L375.662 128.973L377.727 128.546L377.821 128.517C378.513 128.209 380.542 127.465 381.6 127.717L382.25 127.871C382.697 127.972 383.138 128.096 383.571 128.244L384.286 128.465C384.955 128.682 385.671 128.71 386.355 128.546C386.426 128.531 386.515 128.513 386.578 128.504C386.627 128.659 386.661 128.818 386.678 128.979C386.792 129.498 386.779 130.037 386.641 130.55L384.926 130.873C384.137 131.087 383.323 131.196 382.505 131.196H379.013L377.436 131.129L375.176 130.929C375.068 130.891 374.711 130.756 373.745 130.339C372.997 130.01 372.221 129.748 371.426 129.556L369.003 129.546L368.874 129.658C368.571 129.931 368.302 130.241 368.074 130.579L367.693 132.442L372.124 134.163L372.249 134.192C372.472 134.213 377.705 134.677 378.437 134.677C378.823 134.662 379.208 134.623 379.589 134.562C380.529 134.417 381.478 134.34 382.429 134.333C384.021 134.333 387.652 134.777 388.704 134.91L389.094 136.139L389.173 136.287C389.733 137.033 390.354 137.732 391.029 138.377C391.515 138.615 392.054 138.722 392.594 138.687C393.417 138.685 394.232 138.52 394.99 138.2Z" fill="#AAAAAA" stroke="white" stroke-width="0.5" stroke-miterlimit="10"/>
<path d="M437.64 135.921L440.588 134.621L440.063 132.481L439.823 132.4C439.188 132.163 438.533 131.985 437.865 131.869H434.917L433.05 131.181H432.963C432.863 131.181 430.532 131.229 429.873 131.325C429.053 131.546 428.259 131.852 427.502 132.238L426.946 132.511L429.171 134.99L430.75 136.005L434.131 136.243L437.64 135.921Z" fill="#AAAAAA" stroke="white" stroke-width="0.5" stroke-miterlimit="10"/>
<path d="M197.198 151.089L197.184 150.942L196.447 151.051L196.457 151.163L197.198 151.089Z" fill="#AAAAAA" stroke="white" stroke-width="0.5" stroke-miterlimit="10"/>
<path d="M197.173 150.842L197.153 150.596L196.764 150.412L196.414 150.689L196.433 150.905L197.173 150.842Z" fill="#AAAAAA"/>
<path d="M196.433 150.905L196.414 150.689L196.764 150.412L197.153 150.596L197.173 150.842L196.433 150.905ZM196.433 150.905L196.803 150.873" stroke="white" stroke-width="0.5" stroke-miterlimit="10"/>
<path d="M196.814 150.98L197.114 150.87L197.176 150.856H197.149L197.177 150.846L196.436 150.908L196.447 151.022L196.814 150.98Z" fill="#AAAAAA" stroke="white" stroke-width="0.5" stroke-miterlimit="10"/>
<path d="M196.814 150.979L196.475 151.014L196.559 150.995L196.814 150.979Z" fill="#AAAAAA" stroke="white" stroke-width="0.5" stroke-miterlimit="10"/>
<path d="M197.207 151.19L197.197 151.09L196.458 151.168L196.469 151.286L197.207 151.19Z" fill="#AAAAAA" stroke="white" stroke-width="0.5" stroke-miterlimit="10"/>
<path d="M197.226 151.39L197.217 151.282L196.477 151.351L196.485 151.439L196.857 151.417L196.487 151.454L197.226 151.39Z" fill="#AAAAAA"/>
<path d="M196.857 151.417L196.485 151.439L196.477 151.351L197.217 151.282L197.226 151.39L196.487 151.454L196.857 151.417ZM196.857 151.417L196.487 151.446" stroke="white" stroke-width="0.5" stroke-miterlimit="10"/>
<path d="M252.627 149.256C253.065 148.733 253.558 148.258 254.096 147.839C255.527 146.739 256.661 145.768 256.671 145.76L256.819 145.631L257.15 140.279L256.517 131.945L257.144 128.162C257.194 127.921 257.272 127.686 257.375 127.462L258.185 125.804L247.141 133.717H248.568L249.156 135.017L250.239 148.828L252.433 149.478L252.627 149.256Z" fill="#AAAAAA" stroke="white" stroke-width="0.5" stroke-miterlimit="10"/>
<path d="M228.264 158.719L229.627 156.079L233.227 151.979L234.477 150.406C236.366 150.401 238.252 150.273 240.125 150.025C241.235 149.55 242.284 148.942 243.248 148.215L243.473 148.053L243.21 145.905L241.11 143.234L237.704 140.751L234.904 138.859L234.833 138.119C235.108 137.891 235.451 137.762 235.808 137.752C237.223 137.552 237.577 137.006 237.652 136.846L237.702 136.738L237.596 135.075L238.079 133.896L243.3 133.721H251.373L259.957 127.573L260.009 127.467C260.074 127.332 260.199 127.113 260.29 127.142C261.105 127.421 262.365 127.694 262.417 127.707L262.49 127.722L265.336 127.416L266.892 125.031L268.313 120.064L265.39 117.704C265.71 117.18 266.125 116.722 266.615 116.352L266.759 116.252L266.799 116.081C267.014 114.991 267.071 113.875 266.968 112.768C266.922 112.305 266.821 111.849 266.668 111.41C266.437 110.675 266.389 110.522 267.52 109.922C268.597 109.427 269.57 108.731 270.385 107.87L270.493 107.73L270.151 102.43L270.032 102.307C268.959 101.265 267.528 100.672 266.032 100.649C263.797 100.649 257.925 101.312 257.678 101.341L253.42 103.835L246.597 104.929C246.141 105.048 244.653 105.506 244.653 106.483C244.653 106.706 244.634 106.945 244.618 107.177C244.545 107.643 244.567 108.12 244.685 108.577C244.82 109.136 244.913 109.704 244.964 110.277L242.764 116.502L242.737 119.579L241.737 121.66L239.693 122.543L237.728 123.22L238.259 126.576L238.128 127.928C237.205 128.381 236.239 128.741 235.245 129.001C233.485 129.507 231.707 129.864 230.922 130.014L230.71 129.195L229.395 127.203L225.732 127.055L223.467 127.755L215.167 129.405L215.042 129.451C214.303 129.805 213.464 129.89 212.669 129.691C211.86 129.463 211.065 129.188 210.288 128.868L203.944 126.955L198.883 123.955C198.096 123.372 197.442 122.627 196.966 121.77C196.62 121.218 196.201 120.678 195.797 120.157C194.874 118.967 194.003 117.844 194.003 116.657C193.988 116.215 194.111 115.78 194.355 115.411C194.774 114.701 194.807 114.192 193.899 113.061C192.771 111.752 191.41 110.663 189.886 109.848L188.223 108.894C188.635 107.894 189.191 106.96 189.873 106.121C190.482 105.527 190.956 104.809 191.263 104.015L191.298 103.915L190.942 101.24L189.807 97.894L188.065 94.073C187.103 91.525 186.165 88.45 186.315 87.921C186.45 87.511 186.79 86.798 187.115 86.108C187.495 85.4729 187.771 84.7817 187.934 84.06C187.448 82.6097 186.799 81.2194 185.999 79.916L185.386 76.224L185.901 73.455L187.439 74.168C188.312 74.574 189.872 75.176 190.485 74.649C190.942 74.1844 191.334 73.6596 191.65 73.089C191.91 72.789 193.204 71.258 193.204 70.306C193.173 69.7811 193.076 69.2623 192.914 68.762L192.849 68.535L192.439 68.381L188.453 65.127L182.332 62.739L179.182 55.703L168.291 38.055L165.191 34.055L157.666 33.101L153.828 34.268L151.013 37.439L148.169 39.364L145.611 39.704L141.828 38.504L139.37 34.443L135.751 28.205L125.742 18.434L114.952 18.624L111.983 21.18L92.641 20.28L66.513 11.74L65.84 10H49L49.025 10.49C49.042 10.834 49.042 11.215 49.042 11.705L49.048 16.73L50.002 22.751C50.137 24.251 50.902 31.824 52.575 33.122C53.6088 33.8677 54.6849 34.5529 55.798 35.174C56.3662 35.4837 56.9151 35.8273 57.442 36.203C57.8338 36.5743 58.2608 36.9065 58.717 37.195C60.082 38.178 62.625 40.008 63.14 41.07C63.461 41.737 63.809 42.38 64.121 42.958C64.4767 43.5519 64.7779 44.1768 65.021 44.825C65.0625 46.1559 65.016 47.4882 64.882 48.813C64.788 48.807 64.682 48.796 64.553 48.786C62.99 48.651 61.253 48.38 61.145 48.371L57.293 48.511C56.9993 48.5184 56.7115 48.5946 56.4527 48.7336C56.1939 48.8725 55.9714 49.0703 55.803 49.311C55.7111 49.5237 55.6793 49.7575 55.7108 49.987C55.7424 50.2165 55.8362 50.433 55.982 50.613C56.643 51.8281 57.578 52.8724 58.713 53.663C59.8992 54.4513 61.0418 55.3032 62.136 56.215C62.584 56.6 64.876 58.528 65.949 58.528C66.912 58.528 68.776 58.395 68.855 58.39L69.226 58.355L69.28 57.984C69.2897 57.9212 69.3125 57.8611 69.3469 57.8077C69.3814 57.7542 69.4267 57.7087 69.48 57.674C69.572 57.628 69.857 57.557 70.52 57.922C71.0996 58.2095 71.6377 58.5738 72.12 59.005C72.4574 59.3105 72.8204 59.5865 73.205 59.83C73.715 60.159 74.276 60.488 74.805 60.799C75.4526 61.1539 76.0751 61.5528 76.668 61.993L76.835 62.135C77.2497 62.4147 77.6041 62.7748 77.8773 63.1939C78.1504 63.613 78.3366 64.0826 78.425 64.575C78.54 65.669 78.656 67.433 78.71 68.302C78.5767 68.3322 78.4497 68.3857 78.335 68.46C77.641 68.904 77.306 70.048 77.306 71.954L77.3 72.869C77.277 76.036 77.379 76.448 80.561 78.407C83.144 79.995 87.034 84.422 88.905 86.549C89.445 87.164 89.849 87.622 90.055 87.83C90.3351 88.1402 90.5867 88.4748 90.807 88.83C91.476 89.83 92.392 91.195 93.774 90.53C95.2103 89.5871 96.4981 88.4354 97.595 87.113L97.826 86.842L97.626 86.542C97.526 86.386 95.059 82.673 94.734 82.25C94.409 81.827 90.428 78.812 89.217 77.9L89.092 77.81H88.944C88.8081 77.8155 88.6727 77.7917 88.5469 77.7401C88.4211 77.6886 88.3078 77.6105 88.2149 77.5112C88.122 77.4119 88.0516 77.2938 88.0085 77.1649C87.9653 77.0359 87.9505 76.8992 87.965 76.764V73.599L87.953 73.493C87.94 73.437 87.628 72.093 87.307 70.993C87.015 69.978 86.336 68.093 86.207 67.722C86.178 67.372 86.036 65.574 85.892 63.122C85.7409 61.2249 85.2973 59.3625 84.577 57.601L84.515 57.455L80.25 55.055C80.24 55.049 79.217 54.345 78.035 51.424C77.5976 50.321 77.0736 49.2544 76.468 48.234C76.149 47.7833 75.9313 47.2688 75.83 46.726C75.7892 46.3307 75.7711 45.9334 75.776 45.536C75.86 44.3696 75.6373 43.2016 75.13 42.148C74.7499 41.4876 74.2923 40.8749 73.767 40.323C73.35 39.856 72.786 39.223 71.898 38.102C70.815 36.739 69.983 35.625 69.25 34.639C68.569 33.729 67.95 32.904 67.267 32.047C66.8347 31.5024 66.2576 31.0907 65.602 30.859C64.973 30.601 64.656 30.474 64.656 28.628C64.656 27.199 64.629 26.407 64.608 25.805C64.5651 24.9223 64.5804 24.0377 64.654 23.157C64.9845 21.168 65.5713 19.2301 66.4 17.392C66.9765 18.0789 67.6923 18.6355 68.5 19.025C70.0918 19.4783 71.7468 19.6691 73.4 19.59C73.8312 19.6861 74.2286 19.8961 74.551 20.1981C74.8734 20.5001 75.1089 20.883 75.233 21.307C75.395 22.013 75.518 22.878 75.598 23.536C75.4718 23.4611 75.3268 23.4241 75.1802 23.4292C75.0336 23.4344 74.8916 23.4815 74.771 23.565C74.338 23.907 74.34 24.544 75.594 26.921C77.948 31.382 79.55 34.552 79.557 34.552C79.838 35.41 82.372 42.99 84.201 44.277C85.8097 45.4092 87.346 46.641 88.801 47.965C89.6791 48.6865 90.6665 49.2637 91.726 49.675C91.895 49.748 92.086 49.829 92.234 49.902C92.159 49.95 92.057 50.01 91.919 50.083C91.4425 50.3758 90.9165 50.5792 90.367 50.683C89.884 50.758 89.798 50.983 89.627 51.423C89.217 52.481 90.45 54.934 91.444 55.448C92.1716 55.7675 92.9276 56.0179 93.702 56.196C94.248 56.346 94.856 56.513 95.508 56.715C95.9545 56.8869 96.4296 56.9724 96.908 56.967C96.948 57.009 96.998 57.067 97.068 57.14C97.138 57.213 97.156 57.309 97.156 57.54C97.156 58.415 97.491 59.009 99.204 59.471L101.458 60.077C101.504 60.4044 101.595 60.724 101.727 61.027C101.748 61.077 101.767 61.106 101.777 61.079C101.656 61.2627 101.52 61.4363 101.371 61.598C100.81 62.1934 100.211 62.7522 99.579 63.271C99.0335 63.6797 98.5446 64.1588 98.125 64.696C97.8437 65.8161 97.7681 66.9779 97.902 68.125L97.919 68.398L98.163 68.517C99.146 68.9277 100.216 69.0852 101.276 68.975L101.451 68.96C102.882 68.85 105.851 68.612 106.474 69.36C106.637 69.56 106.874 69.831 107.143 70.15C107.937 71.079 109.587 73.015 109.718 73.323C110.111 75.0404 110.796 76.6776 111.743 78.163C112.33 78.7826 112.978 79.3405 113.678 79.828C114.035 80.0801 114.377 80.3536 114.701 80.647C114.878 81.11 116.647 84.841 117.147 85.562C117.27 85.735 117.516 86.127 117.83 86.622C118.719 88.1746 119.746 89.6438 120.899 91.012C121.107 91.191 121.653 91.612 122.349 92.156C124.137 93.4641 125.843 94.8822 127.455 96.402C127.655 97.262 128.03 100.031 127.478 101.34C127.326 101.703 127.147 102.157 126.951 102.648C126.511 103.958 125.927 105.214 125.209 106.394C124.256 107.463 123.376 108.595 122.576 109.782L122.468 109.938L122.499 110.126C122.799 112.026 123.128 114.195 123.13 114.453C123.13 114.884 123.613 117.424 124.57 118.247C125.37 118.935 133.197 125.02 133.531 125.278L133.656 125.378H133.812C135.479 125.378 137.462 125.638 137.76 126.024C138.398 126.847 140.471 129.595 140.471 129.595L140.544 129.695L146.244 132.22L150.598 132.93L157.629 136.503C161.219 137.628 165.142 138.959 166.05 139.42C165.867 140.62 166.35 142.393 171.661 144.337C173.261 144.922 174.832 145.483 176.299 146.006C180.289 147.429 184.06 148.773 184.583 149.306C184.556 149.426 184.512 149.542 184.452 149.65C184.333 149.828 184.262 150.034 184.246 150.248C184.23 150.461 184.27 150.675 184.362 150.869C184.67 151.379 185.477 151.729 188.416 151.796C190.374 151.839 192.328 152.009 194.264 152.306C195.846 152.639 197.478 152.649 199.064 152.335C199.985 152.127 200.764 152.006 201.445 151.902C202.899 151.821 204.298 151.32 205.472 150.46C206.672 149.446 208.064 148.683 209.564 148.216C213.019 148.855 216.439 149.668 219.812 150.652L226.027 156.273C226.133 156.59 226.446 157.513 226.827 158.554L226.954 158.904L228.264 158.719Z" fill="#AAAAAA" stroke="white" stroke-width="0.5" stroke-miterlimit="10"/>
<path d="M237.318 170.342C237.56 170.284 237.818 170.205 238.085 170.123C239.143 169.707 240.295 169.593 241.414 169.792C241.535 169.821 241.664 169.857 241.799 169.898L242.089 169.988L243.52 168.288L248.901 165.355V162.501L252.03 161.666L251.78 159.395L252.057 157.241L256.497 155.328L261.649 149.615L260.595 148.707L257.189 150.322L253.299 150.966L252.051 149.987C252.191 149.795 252.384 149.541 252.626 149.26L253.097 148.71L251.112 148.122L250.072 134.872L249.162 132.791H240.653L234.82 132.985L234.026 134.923L234.126 136.481C233.799 136.681 233.429 136.801 233.047 136.831C231.52 137.05 231.303 137.791 231.274 137.937L231.262 138.004L231.395 139.392L233.601 140.892L237.793 143.871L239.693 146.284L239.855 147.617C239.045 148.221 238.167 148.729 237.24 149.132C235.372 149.366 233.491 149.482 231.609 149.48H231.394L229.888 151.38L226.269 155.507L225.038 157.861L223.994 158.001L224.194 158.549C224.617 159.847 225.155 161.104 225.8 162.307C225.944 162.532 226.073 162.759 226.2 162.999C227.143 164.75 228.535 166.218 230.233 167.253C233.268 169.345 235.481 170.401 236.827 170.401C236.992 170.401 237.157 170.382 237.318 170.342Z" fill="#AAAAAA" stroke="white" stroke-width="0.5" stroke-miterlimit="10"/>
<path d="M257.454 175.152C257.454 175.152 258.889 174.739 260.954 174.189C261.561 174.038 262.181 173.949 262.806 173.922L263.279 173.899L263.06 170.699L263.639 167.899L261.228 166.151L258.499 166.445L257.399 166.937L255.359 165.791L255.121 164.053L247.975 164.18V164.797L243.002 167.508L241.121 169.698L241.798 169.898C243.364 170.459 244.887 171.135 246.354 171.921L248.816 174.321L257.368 175.171L257.454 175.152Z" fill="#AAAAAA" stroke="white" stroke-width="0.5" stroke-miterlimit="10"/>
<path d="M267.365 176.996L269.819 175.254L270.619 171.973L270.719 170.025L272.425 169.025L278.354 168.742C278.354 168.742 279.954 168.375 281.123 168.1C281.933 167.899 282.719 167.609 283.465 167.235L286.051 164.835L288.18 162.389L294.099 161.295L299.037 157.295L298.397 155.595L294.941 154.745L293.12 152.784L289.084 150.442L284.621 150.161L281.052 150.294L277.475 148.752L274.498 149.752L269.471 149.889H261.977L260.952 149.006L256.052 154.506L251.218 156.589L250.858 159.389L251.033 160.97L247.987 161.785V165.118L254.329 165.003L254.519 166.382L257.373 167.982L258.688 167.363L260.988 167.117L262.623 168.302L262.138 170.635L262.365 173.945L262.819 173.922C263.736 173.825 264.663 173.928 265.536 174.222C265.582 174.376 265.665 174.628 265.763 174.928C265.936 175.463 266.163 176.161 266.342 176.766L266.463 177.166L267.365 176.996Z" fill="#AAAAAA" stroke="white" stroke-width="0.5" stroke-miterlimit="10"/>
<path d="M283.861 195.595C284.176 195.576 284.515 195.568 284.853 195.56C285.648 195.596 286.444 195.503 287.209 195.285C287.83 194.906 288.365 194.402 288.78 193.804L291.255 193.742L295.522 195.48L295.434 194.701C295.378 194.216 295.344 193.807 295.326 193.58L297.626 191.065C297.963 190.493 298.143 189.843 298.148 189.18C298.154 188.517 297.985 187.863 297.659 187.286C296.595 185.414 295.413 183.613 294.119 181.892L294.613 181.648C295.63 181.831 296.676 181.755 297.655 181.425C297.759 181.35 297.885 181.311 298.013 181.315C298.419 181.296 298.705 181.161 298.955 180.515C299.184 179.454 299.248 178.364 299.145 177.284L296.399 171.784C296.393 171.763 295.599 169.655 297.176 168.636C298.317 167.914 299.366 167.056 300.301 166.082L300.416 165.955L300.587 161.426L298.687 156.382L293.699 160.422L287.693 161.53L285.385 164.186L282.985 166.432C282.321 166.755 281.626 167.009 280.91 167.19C279.768 167.459 278.224 167.813 278.222 167.821L272.151 168.1L269.813 169.477L269.707 171.842L269.007 174.703L267.101 176.103L266.195 176.27L266.341 176.77C266.468 177.129 266.558 177.499 266.61 177.876C266.61 178.441 267.285 182.055 267.418 182.776L267.443 182.911L270.391 186.011C270.41 186.034 272.316 188.365 274.199 191.069C274.977 192.204 275.647 193.409 276.199 194.669L276.399 195.117L278.122 194.225C279.06 194.19 280 194.212 280.935 194.292C281.696 195.03 282.681 195.492 283.735 195.607C283.776 195.599 283.824 195.597 283.861 195.595Z" fill="#AAAAAA" stroke="white" stroke-width="0.5" stroke-miterlimit="10"/>
<path d="M303.301 217.314L303.141 215.314L303.787 212.191L303.364 210.081L302.739 207.571L303.524 207.211L307.695 206.653L307.114 205.995C306.722 205.561 306.308 205.149 305.872 204.76C305.543 204.47 305.232 204.161 304.939 203.835C304.06 203.032 303.047 202.389 301.947 201.935C301.022 201.494 300.124 200.998 299.257 200.45C298.951 200.25 298.672 200.067 298.411 199.898C296.955 198.956 296.288 198.527 295.932 197.398C295.684 196.517 295.516 195.615 295.432 194.704L295.399 194.427L291.417 192.803L288.298 192.878L288.165 193.068C287.814 193.6 287.365 194.06 286.842 194.424C286.183 194.584 285.505 194.651 284.827 194.624C284.475 194.634 284.127 194.643 283.802 194.661C282.956 194.573 282.164 194.2 281.558 193.603C281.416 193.42 281.25 193.213 277.991 193.286L276.01 194.255L276.193 194.661C276.606 195.586 276.864 196.309 276.96 196.59L276.4 198.765C276.069 199.026 275.853 199.407 275.8 199.825C275.796 200.221 275.885 200.612 276.061 200.967C276.236 201.321 276.493 201.63 276.81 201.867C278.127 203.052 279.539 204.128 281.031 205.084L281.156 205.163L283.935 205.003L284.062 204.803C284.477 204.08 284.975 203.409 285.547 202.803C286.366 202.843 287.178 202.966 287.972 203.17C288.28 203.885 288.864 205.264 288.972 205.647C289.149 206.259 290.557 207.357 291.36 207.947L294.079 210.16L294.392 214.35L295.6 216.083L295.9 216.018C296.635 215.898 297.306 215.529 297.8 214.972C297.879 214.83 297.969 214.693 298.069 214.564C298.136 214.647 298.217 214.741 298.309 214.845C298.737 215.279 299.087 215.784 299.344 216.337C299.292 216.521 299.215 216.696 299.117 216.86C298.882 217.308 298.588 217.86 298.882 218.36C299.176 218.86 299.867 218.92 300.436 218.92H302.901L303.301 217.314Z" fill="#AAAAAA" stroke="white" stroke-width="0.5" stroke-miterlimit="10"/>
<path d="M344.354 226.848L345.096 225.092L345.627 223.392C345.812 223.248 346.026 223.146 346.254 223.094C346.482 223.043 346.719 223.042 346.948 223.092C347.759 223.288 348.583 223.43 349.413 223.517L349.865 223.563L350.08 221.73C350.143 221.118 350.17 220.503 350.161 219.888C350.134 219.341 350.076 218.797 349.986 218.257L349.478 216.309L350.218 214.996L349.989 214.744C349.358 214.056 348.547 213.273 347.701 212.465C346.363 211.124 345.097 209.714 343.907 208.24C343.056 207.45 342 206.915 340.859 206.698L335.071 206.423L331.596 206.567L329.779 207.705C329.402 207.838 326.879 208.745 324.379 209.757L323.212 210.234C321.934 210.895 320.549 211.327 319.122 211.511H313.722L309.376 211.269C309.519 210.069 309.207 208.86 308.501 207.879C308.095 207.21 307.633 206.577 307.118 205.987L306.953 205.802L303.336 206.285L301.657 207.035L302.465 210.281L302.846 212.181L302.213 215.25L302.371 217.233L301.954 218.908H306.51C307.848 218.908 312.537 219.623 313.794 219.818C313.999 220.351 314.395 220.789 314.905 221.047C315.956 221.482 317.075 221.729 318.211 221.778L319.742 224.416L319.842 224.479C321.236 225.352 323.715 226.748 324.607 226.285C325.041 226.135 325.419 225.857 325.691 225.488C325.964 225.119 326.119 224.677 326.136 224.218C326.136 224.087 326.136 223.958 326.144 223.826C326.228 222.888 326.041 221.945 325.604 221.111C325.375 220.7 325.11 220.31 324.812 219.946C324.549 219.608 324.193 219.146 324.22 218.961C324.226 218.911 324.31 218.846 324.345 218.821L324.439 218.752C325.04 218.232 325.78 217.9 326.568 217.796L326.868 217.731C328.135 217.462 328.897 217.298 329.137 216.685C329.262 215.886 329.272 215.072 329.166 214.27L329.149 214.08L329.005 213.957C329.005 213.957 328.913 213.857 328.922 213.782C328.931 213.707 329.064 213.532 329.403 213.349C330.772 212.674 332.223 212.183 333.72 211.886C334.633 212.068 335.503 212.424 336.281 212.934C336.672 213.159 337.078 213.357 337.496 213.528C338.276 213.776 338.97 214.241 339.496 214.868C339.697 215.139 339.916 215.396 340.152 215.637C340.461 215.91 340.704 216.25 340.862 216.631C340.911 217.246 340.859 217.866 340.708 218.464C340.587 218.902 340.037 221.131 341.008 221.964C341.1 222.043 341.627 222.639 343.033 226.664L343.158 227.024L344.354 226.848Z" fill="#AAAAAA" stroke="white" stroke-width="0.5" stroke-miterlimit="10"/>
<path d="M445.684 284.512C448.074 283.939 450.375 283.042 452.522 281.845C455.558 280.057 459.395 277.716 459.395 277.716L459.495 277.656L459.553 277.556C460.265 276.324 461.233 275.259 462.391 274.433C462.924 274.179 463.322 274 463.649 273.854C464.116 273.662 464.567 273.433 464.997 273.167C465.486 272.839 465.841 272.346 465.997 271.779L466.03 271.637L465.215 269.537L462.373 269.693L459.564 269.564L458.802 268.464L458.392 265.512C458.652 265.241 458.778 264.568 458.336 262.093C458.134 261.169 458.049 260.223 458.084 259.278C458.113 258.697 458.001 258.557 457.503 258.213C457.005 257.869 455.734 256.692 454.803 255.805C456.152 255.523 457.525 255.373 458.903 255.355L462.574 257.005H465.266L468.589 256.717L471.989 254.207C473.311 253.729 474.689 253.421 476.089 253.292C477.739 253.292 483.8 251.292 484.056 251.207L486.681 249.563L487.416 247.669L487.247 245.363L486.093 242.598L484.135 240.044L481.989 236.877L482.127 234.871L486.742 230.071L487.094 227.798L486.781 224.975L487.931 222.375L491.931 220.721L492.971 218.138L492.044 218.421C491.513 218.584 491.075 218.721 490.89 218.788L487.567 218.415L486.327 215.923L487.317 212.798L482.473 208.198L478.287 205.592L473.899 205.732L471.224 205.092L468.774 202.159C468.964 202.034 469.234 201.865 469.603 201.653C469.982 201.433 470.385 201.256 470.803 201.124C471.05 201.049 471.288 200.949 471.513 200.824C472.013 200.481 472.476 200.086 472.892 199.645L473.25 199.274L470.342 196.934L470.198 196.924C470.175 196.924 468.087 196.787 466.498 196.787C464.909 196.787 462.189 196.924 462.162 196.924L458.908 198.559L453.856 197.901C453.637 197.795 453.388 197.768 453.151 197.824C452.914 197.881 452.704 198.017 452.556 198.211C452.048 198.94 451.442 199.597 450.756 200.161C450.229 200.503 448.756 201.255 448.35 201.461L444.158 201.334C443.175 200.484 441.675 199.157 441.47 198.894C440.891 198.415 440.208 198.076 439.476 197.906L432.022 197.614H431.93L429.338 198.589L424.955 199.149L424.855 199.226C424.704 199.353 424.529 199.448 424.339 199.504C424.15 199.56 423.951 199.576 423.755 199.551C423.511 199.472 423.315 199.209 423.182 198.77C422.557 196.749 422.082 194.57 422.074 194.545L422.047 194.418L419.284 191.445L413.196 190.893L411.004 188.878C410.752 188.06 410.419 187.27 410.01 186.518C409.176 185.881 408.254 185.369 407.272 184.999L407.166 184.953L407.051 184.963C406.599 185.003 405.103 185.203 404.884 186.146C404.67 187.27 404.559 188.41 404.553 189.554C404.213 190.602 403.623 191.551 402.834 192.319L398.671 193.896L398.494 196.065C398.205 197.413 397.988 198.775 397.846 200.146C397.846 200.277 397.836 200.421 397.827 200.571C397.741 201.139 397.781 201.719 397.943 202.271C398.105 202.822 398.385 203.331 398.764 203.763C399.381 204.441 399.954 205.157 400.479 205.909L400.579 206.009C400.579 206.009 400.727 206.242 400.435 206.99L400.156 207.723C400.015 208.196 399.811 208.648 399.55 209.067C398.512 209.797 397.338 210.312 396.098 210.582C395.686 210.405 393.675 209.049 392.377 208.147L392.235 204.57C392.535 204.207 393.354 203.212 393.858 202.67C394.669 201.797 394.464 197.728 394.273 197.228C394.104 196.793 392.744 194.674 392.496 194.297C392.258 193.807 392.201 193.249 392.333 192.72C392.413 192.531 392.532 192.361 392.684 192.223C392.836 192.085 393.016 191.981 393.212 191.92C394.129 191.555 394.891 191.299 395.504 191.091C395.779 190.999 396.025 190.916 396.246 190.837L398.159 190.149L395.34 189.849L394.159 190.068L391.69 191.156L388.696 192.948L387.996 194.379L387.486 197.335L385.194 202.373C385.148 202.473 384.067 204.938 383.748 205.763C383.485 206.622 383.295 207.503 383.179 208.394C383.139 208.644 383.11 208.836 383.089 208.921C382.853 209.445 382.579 209.95 382.268 210.433L382.193 210.558L382.293 212.483L385.726 214.277L389.168 217.044L389.539 220.363L388.907 224.092L389.68 228.24L392.186 229.655L392.315 229.705C394.705 230.211 397.603 230.813 397.838 230.813C398.055 230.813 401.951 231.061 404.48 231.221L408.649 231.821C409.412 232.538 410.257 233.367 410.343 233.475C410.684 234.077 411.061 234.658 411.472 235.215C411.872 235.815 412.266 236.388 412.372 236.567C412.453 236.707 412.697 237.127 416.505 238.507C417.562 238.753 418.636 238.917 419.718 238.999C421.902 238.91 424.078 238.676 426.231 238.299C427.031 238.07 428.431 237.836 428.752 237.778L429.294 240.939L426.619 246.245L424.833 252.401L425.168 254.432L427.768 258.42L428.328 259.989L427.641 261.764L425.052 263.692L424.092 267.498L428.786 268.398L432.519 271.098L432.669 273.134L433.969 279.982L437.14 284.153L441.078 285.924L445.684 284.512Z" fill="#AAAAAA" stroke="white" stroke-width="0.5" stroke-miterlimit="10"/>
<path d="M412.086 317.442L413.686 303.542C413.686 303.527 413.686 302 413.786 301.121C413.689 299.651 413.431 298.197 413.019 296.783C412.909 296.47 412.354 294.883 412.129 294.5C411.494 293.867 410.761 293.34 409.958 292.94L409.106 291.061V288.986C409.54 288.565 410.037 288.214 410.579 287.946C411.017 287.819 412.933 287.611 414.115 287.502L414.223 287.492L415.694 286.571L415.815 283.852L415.286 282.252L411.759 281.175L410.544 281.154L410.002 279.887C410.443 278.899 410.947 277.94 411.51 277.016C412.279 276.916 416.698 276.587 417.158 276.587C417.585 276.587 421.004 276.495 421.004 276.495H421.112L421.212 276.441C421.295 276.395 423.254 275.328 423.612 275.076H423.622C424.153 275.241 424.648 275.506 425.08 275.857L425.234 275.972L427.234 275.649L428.553 274.701L429.23 274.436C429.47 275.101 429.915 276.311 430.155 276.79C430.606 277.647 430.851 278.597 430.87 279.565C430.655 280.303 430.228 281.965 430.228 281.965L430.111 282.415L430.555 282.534C431.73 282.849 433.755 283.376 434.08 283.376C434.253 283.376 434.415 283.376 436.174 282.17L436.58 281.891L434.834 279.591L433.584 273.016L433.407 270.595L429.24 267.58L425.236 266.77L425.871 264.249L428.4 262.343L429.31 259.991L428.61 258.037L426.06 254.17L425.772 252.447L427.472 246.58L430.255 241.08L429.524 236.826H428.745C428.672 236.839 426.945 237.109 425.974 237.389C423.904 237.742 421.813 237.966 419.715 238.06C418.72 237.977 417.731 237.825 416.757 237.606C415.525 237.19 414.325 236.684 413.167 236.091C413.057 235.901 412.654 235.303 412.234 234.683C411.814 234.063 411.265 233.252 411.203 233.131C411.161 233.025 411.086 232.825 409.172 231.031L409.066 230.931L404.574 230.287C403.493 230.218 398.097 229.874 397.865 229.874C397.584 229.847 394.5 229.205 392.573 228.797L390.508 227.632L389.845 224.078L390.48 220.378L390.053 216.542L386.236 213.486L383.196 211.886L383.14 210.786C383.479 210.26 383.767 209.702 383.998 209.121C384.019 209.021 384.054 208.808 384.098 208.529C384.204 207.703 384.377 206.887 384.615 206.089C384.925 205.283 386.032 202.764 386.04 202.743L388.355 197.653L388.855 194.715L389.403 193.594L392.109 191.971L394.376 190.961L395.376 190.778L396.149 190.861L396.249 190.826C396.612 190.709 396.96 190.551 397.287 190.355C397.832 189.969 398.341 189.534 398.806 189.055L398.966 188.886L398.589 186.442L394.601 182.409L390.565 183.93L388.673 185.115L387.842 187.415L386.313 189.653C384.893 190.812 383.336 191.791 381.677 192.57C380.223 193.242 378.729 193.823 377.202 194.308C376.338 194.167 375.46 194.127 374.587 194.189C373.807 194.452 373.057 194.797 372.351 195.22L371.203 195.989L369.555 194.57V192.912L366.649 193.091L365.039 194.801L363.089 197.747L361.272 201.587L361.897 206.175L360.518 207.602L357.53 209.033L356.697 211.908L355.551 213.508L353.493 214.248L353.293 216.273L353.312 216.35C353.379 216.621 353.962 219.006 354.112 219.35C353.942 219.748 353.703 220.114 353.406 220.429L352.289 220.329L351.212 218.36C351.386 217.566 351.3 216.737 350.964 215.997C350.68 215.543 350.349 215.119 349.977 214.734L349.548 214.265L348.475 216.165L349.075 218.436C349.153 218.913 349.204 219.394 349.229 219.876C349.238 220.455 349.213 221.033 349.154 221.609L349.048 222.522C348.417 222.443 347.792 222.328 347.175 222.176C346.777 222.086 346.363 222.093 345.968 222.196C345.574 222.299 345.209 222.495 344.906 222.768L344.816 222.851L344.237 224.714L343.702 225.985L342.846 226.108L343.036 226.646C343.271 227.321 343.426 227.796 343.428 227.798L343.674 228.327L344.164 228.046C344.164 228.046 344.364 228.184 344.364 229.025C344.364 231.075 344.364 232.104 345.464 232.104C345.801 232.083 346.137 232.155 346.435 232.312C346.733 232.47 346.982 232.708 347.154 232.998C347.991 234.464 348.61 236.045 348.992 237.69C348.992 237.882 349.002 238.33 349.013 238.911C349.046 240.617 349.113 244.169 349.003 244.755C348.955 245.102 348.941 245.453 348.961 245.803C349.076 247.002 348.834 248.208 348.267 249.27C346.882 251.485 346.598 252.237 346.598 252.683C346.981 253.853 347.542 254.958 348.263 255.956L349.903 257.51L348.334 259.068C347.616 258.97 346.886 259.133 346.278 259.528C345.67 259.922 345.224 260.522 345.021 261.218C344.809 261.967 344.642 262.728 344.521 263.497C344.421 264.064 344.321 264.705 344.165 264.77C343.068 265.094 341.952 265.355 340.825 265.551C340.367 265.48 338.292 265.259 337.139 266.536C336.854 266.851 336.579 267.101 336.339 267.324C335.61 267.991 334.979 268.566 335.279 269.847C335.607 270.918 336.196 271.891 336.992 272.678C337.413 273.075 337.736 273.564 337.936 274.107C337.396 274.702 336.785 275.228 336.117 275.674C335.975 275.751 335.822 275.805 335.663 275.832C335.063 275.974 334.463 276.215 334.463 277.442C334.48 278.446 334.622 279.444 334.884 280.413L335.001 280.913L341.295 284.465C341.665 284.834 342.009 285.229 342.324 285.646C342.447 285.946 342.824 286.152 344.224 286.781C344.603 286.954 345.037 287.15 345.166 287.233C346.034 288.103 346.852 289.021 347.616 289.983L347.703 290.089L350.872 291.06L354.572 291.708H355.745L357.608 290.766L358.225 290.614L361.671 290.964L367.55 294.218L371.508 294.891C372.199 295.46 372.838 296.088 373.418 296.77C373.587 297.132 374.31 299.053 374.574 299.764L374.616 299.874L376.837 301.787C377.616 302.458 380.137 304.193 380.704 304.587L381.354 306.106L381.254 308.629L381.494 311.306L384.569 312.471L384.715 312.431C384.715 312.431 385.042 312.339 386.05 312.164C387.058 311.989 389.792 311.897 389.819 311.897L392.519 310.989C393.739 311.114 394.949 311.314 396.144 311.589C396.892 311.866 401.227 312.51 401.934 312.614L404.703 313.668L405.824 314.289L401.201 324.833L404.912 325.966L409.475 329.895L412.086 317.442Z" fill="#AAAAAA" stroke="white" stroke-width="0.5" stroke-miterlimit="10"/>
<path d="M336.3 330.434L340 324.334L342.254 317.976L347.829 316.753L354.963 315.653L360.638 312.765L360.749 312.686C360.949 312.486 365.776 307.8 366.318 307.148C366.86 306.496 369.099 302.315 369.351 301.842L369.416 301.723L369.087 296.729L367.387 293.077L362.037 290.114L358.164 289.685L357.341 289.885L355.531 290.785L354.656 290.791L351.091 290.162L348.243 289.285C347.45 288.285 346.59 287.34 345.67 286.456C345.326 286.263 344.971 286.09 344.607 285.939C344.106 285.729 343.619 285.487 343.149 285.216C342.786 284.697 342.374 284.214 341.92 283.772L334.726 279.691L334.966 280.722C334.885 281.649 334.551 282.536 333.999 283.285C333.165 283.855 332.3 284.38 331.409 284.856C330.867 285 330.171 285.027 330.015 284.846C329.604 284.415 329.126 284.053 328.6 283.775L328.423 283.725C328.196 283.71 326.217 283.602 325.45 284.756L325.187 285.146C324.589 285.931 324.166 286.836 323.947 287.798C323.647 289.073 323.362 291.223 323.307 291.631L321.607 295.637L318.665 299.298L318.823 307.611C318.438 307.976 318.149 308.432 317.983 308.936C317.817 309.44 317.778 309.978 317.871 310.501C317.851 311.584 318.174 312.646 318.794 313.534L318.915 313.665L322.259 313.965L322.38 313.9C322.401 313.89 324.432 312.815 325.188 312.554C325.871 312.274 326.623 312.205 327.345 312.357C327.539 312.692 328.097 314.263 328.472 315.374C327.183 316.285 325.813 317.077 324.38 317.739L323.795 317.976L324.095 318.953L324.295 320.98L323.07 323.711L322.782 325.661L325.007 327.469L327.507 327.763L330.388 327.934L332.069 330.063L334.213 331.815L336.3 330.434Z" fill="#AAAAAA" stroke="white" stroke-width="0.5" stroke-miterlimit="10"/>
<path d="M401.173 450.8L405.334 447.127L406.703 444.814L407.384 441.022L409.19 437.78L414.651 435.092L416.776 432.965L413.843 427.632L411.07 424.313L410.926 421.346L413.211 418.458L415.074 414.127L414.903 409.696L414.134 405.183L416.468 401.022L417.999 397.503L414.199 390.961L412.443 388.071L409.635 385.621L405.114 383.921C404.84 383.617 404.689 383.222 404.689 382.813C404.689 381.882 404.843 379.592 404.839 379.592C405.083 378.4 405.188 377.183 405.154 375.967C404.954 375.123 403.443 374.352 402.983 374.136L402.804 374.092C402.133 374.069 398.723 373.992 397.829 374.921C397.029 375.75 395.475 377.621 395.416 377.688C395.242 377.901 395.003 378.051 394.735 378.113C394.695 378.113 394.635 378.121 394.535 377.986C393.883 377.144 391.402 374.738 391.304 374.642L388.489 371.788L384.939 371.123L384.726 370.49L384.247 367.74L381.637 362.769C381.606 362.717 378.616 357.561 378.156 356.369C377.562 354.838 377.09 353.262 376.745 351.656C376.66 351.073 377.708 349.566 378.48 348.675L381.38 347.427L383.28 344.754L383.915 340.454L386.407 332.943L390.645 330.989L395.699 330.037L400.451 327.602L402.626 328.225L407.17 330.635L408.441 327.772L405.441 325.186L402.476 324.238L405.67 317.015L407.008 313.873L405.091 312.817L402.216 311.717L402.116 311.692C400.124 311.4 396.974 310.892 396.46 310.707C395.163 310.402 393.847 310.179 392.522 310.04L392.422 310.027L389.722 310.956C389.274 310.973 386.895 311.062 385.897 311.235C385.197 311.356 384.807 311.435 384.618 311.483L382.362 310.629L382.179 308.598L382.287 305.923L381.447 303.958L381.337 303.883C381.306 303.86 378.262 301.783 377.437 301.07L375.397 299.314C375.207 298.806 374.449 296.787 374.255 296.366C373.596 295.526 372.842 294.766 372.007 294.101L371.907 294.016L367.919 293.366L365.983 292.295L368.162 296.87L368.462 301.506C367.483 303.335 365.962 306.106 365.597 306.535C365.178 307.041 361.568 310.568 360.145 311.952L354.736 314.729L347.65 315.829L341.55 317.167L339.16 323.93L335.702 329.707L334.262 330.657L332.754 329.434L330.848 327.019L327.579 326.825L325.371 326.565L323.763 325.257L323.932 324.03L325.232 321.13L325.007 318.805L324.653 317.617L324.188 317.802C322.723 318.392 318.119 320.454 317.034 321.544C316.737 321.802 316.415 322.029 316.073 322.223C314.813 323.011 312.906 324.204 312.906 326.823C312.906 329.54 313.554 332.634 314.519 332.911C315.204 333.08 315.797 333.505 316.177 334.099C316.904 335.045 317.474 336.101 317.865 337.228C318.065 337.956 318.139 338.713 318.084 339.466C317.999 339.483 317.89 339.495 317.769 339.514C317.002 339.622 315.846 339.787 315.369 340.614C315.265 340.782 315.116 340.918 314.94 341.008C314.471 341.302 314.102 341.635 314.359 342.743C314.703 344.22 318.913 346.41 320.205 347.051L323.953 348.801L328.153 353.351C328.438 354.018 330.409 358.601 331.022 359.651C331.598 360.512 332.33 361.258 333.18 361.851C333.368 361.997 333.536 362.13 333.674 362.251C334.855 363.619 335.932 365.074 336.895 366.603C337.051 367.02 340.745 379.035 342.139 383.547C342.577 387.226 343.006 389.272 343.416 389.624C343.826 389.976 345.968 392.593 346.385 393.13C347.089 394.339 347.645 395.629 348.043 396.97C348.022 397.192 347.984 397.412 347.928 397.628C347.734 398.505 347.44 399.828 348.436 400.403C350.064 401.698 351.618 403.084 353.09 404.555C354.09 406.218 354.871 407.986 354.78 408.355C354.453 409.199 354.192 409.693 353.751 409.882C353.005 410.205 352.32 412.011 352.059 412.774L351.98 413.007L352.126 413.207C353.187 414.64 354.349 416.28 354.462 416.538C354.589 416.869 357.202 419.699 362.225 424.944L369.492 429.69L378.774 433.146L386.803 439.646L392.124 445.613L398.172 450.555C398.166 450.686 398.16 450.867 398.151 451.088L398.13 451.746L401.173 450.8Z" fill="#AAAAAA" stroke="white" stroke-width="0.5" stroke-miterlimit="10"/>
<path d="M505.119 279.8L510.082 278.377L513.549 276.658L517.239 275.766L520.395 275.656L518.095 270.67L516.822 266.37C516.712 265.928 515.851 262.48 515.637 261.922C514.873 260.819 514 259.798 513.029 258.872L510.262 256.841L509.497 254.947L509.597 251.578L510.541 249.79L512.431 248.848L514.575 246.823L515.029 243.675L515.129 240.354L515.383 239.002L515.189 238.827C514.975 238.632 514.793 238.404 514.649 238.152C513.559 236.601 512.297 235.18 510.886 233.914L510.786 233.822L506.694 233.122C505.727 232.882 504.594 232.389 504.461 232.028C504.161 231.257 503.213 227.605 502.886 226.049C502.478 224.398 501.747 222.844 500.736 221.476C499.305 219.826 497.507 218.536 495.486 217.709C495.296 217.676 494.792 217.588 492.042 218.428L491.832 218.491L491.221 220.014L487.238 221.66L485.838 224.835L486.163 227.787L485.875 229.643L481.229 234.472L481.048 237.143L483.392 240.601L485.271 243.032L486.333 245.515L486.389 246.284L489.489 246.415L492.295 248.659C492.816 249.449 493.395 250.401 493.453 250.538C493.453 250.686 493.453 250.959 494.861 252.926L495.251 255.274L493.826 259.86L492.372 262.65L493.035 267.49C493.243 268.709 493.382 269.939 493.454 271.173V276.065L496.598 278.773L501.109 280.081L505.119 279.8Z" fill="#AAAAAA" stroke="white" stroke-width="0.5" stroke-miterlimit="10"/>
<path d="M522.56 275.58L523.414 275.188L524.66 272.859L524.86 271.788L528.496 271.457L531.596 271.92L533.404 271.645L538.135 272.368L541.352 267.203L541.752 264.161L541.114 261.967L541.637 258.331V255.989L539.891 253.358L538.891 250.27L540.906 244.605L540.491 242.717L540.272 242.623C539.22 242.166 538.133 241.792 537.022 241.506C535.504 241.298 533.973 241.201 532.441 241.218L528.241 242.181L520.668 241.914L518.787 239.887L516.825 239.427L516.752 239.433C516.168 239.436 515.604 239.218 515.173 238.823L514.563 238.273L514.2 240.252L514.1 243.592L513.7 246.365L511.952 248.04L509.858 249.084L508.673 251.33L508.56 255.119L509.5 257.442L512.423 259.58C513.278 260.409 514.062 261.308 514.769 262.266C514.919 262.649 515.54 265.074 515.929 266.631L517.229 271.004L519.389 275.694L522.56 275.58Z" fill="#AAAAAA" stroke="white" stroke-width="0.5" stroke-miterlimit="10"/>
<path d="M549.985 274.553L552.216 272.726L552.331 272.591C552.339 272.574 553.291 270.843 554.131 269.491C554.937 268.191 556.914 264.158 557.208 263.557L559.495 261.228L562.395 254.451L558.553 253.507L556.611 251.582L552.684 246.365L547.759 245.05L547.621 245.1C546.906 245.298 546.156 245.332 545.427 245.198C544.697 245.064 544.008 244.766 543.41 244.327C542.425 243.661 541.378 243.092 540.283 242.627L539.456 242.271L539.956 244.55L537.923 250.256L539.038 253.71L540.719 256.277V258.267L540.173 262.036L540.813 264.244L540.513 266.794L537.134 272.217L537.98 272.346C538.775 273.033 539.711 273.537 540.722 273.821C542.71 274.307 544.725 274.68 546.755 274.938L546.813 274.944L549.985 274.553Z" fill="#AAAAAA" stroke="white" stroke-width="0.5" stroke-miterlimit="10"/>
<path d="M517.91 573.162C518.687 572.356 519.53 571.615 520.429 570.947C522.804 569.147 524.271 568.047 525.329 567.257C526.617 566.292 527.294 565.786 528.26 565.028C529.139 564.341 530.081 563.497 531.077 562.603C532.073 561.709 533.129 560.765 534.171 559.936C535.484 558.615 536.558 557.075 537.344 555.386C538.073 553.888 539.003 552.496 540.107 551.248C541.664 549.915 543.337 548.724 545.107 547.69C546.051 547.09 547.036 546.471 548.04 545.79C551.065 543.732 559.701 535.902 560.065 535.571L560.146 535.471C560.259 535.292 562.931 531.056 562.931 527.929C562.845 525.409 562.578 522.899 562.131 520.418L562.077 520.126L561.796 520.049C561.775 520.049 559.813 519.478 559.596 518.259C559.423 517.28 560.396 515.996 562.421 514.559C565.742 512.184 567.471 511.117 568.502 510.48C569.295 510.058 570.014 509.51 570.631 508.857L571.131 508.322C572.539 506.793 575.841 503.207 577.044 502.632C577.466 502.377 577.951 502.246 578.444 502.255C579.643 502.18 580.838 502.044 582.023 501.847C583.143 501.665 584.278 501.59 585.413 501.624C586.034 501.69 586.661 501.612 587.247 501.395C587.832 501.179 588.36 500.83 588.788 500.376C591.14 498.486 594.936 495.757 594.924 495.757L603.91 491.546C604.733 491.633 609.11 492.086 611.177 492.086C611.871 492.144 612.552 492.308 613.196 492.572C615.019 493.191 617.286 493.962 619.502 491.524L620.683 490.216C622.664 488.016 623.66 486.916 624.816 486.249C625.133 486.089 625.487 486.017 625.841 486.043C627.033 486.02 627.947 485.774 628.862 482.82C629.187 481.774 629.402 480.934 629.572 480.259C629.816 478.529 630.716 476.959 632.085 475.874C632.854 475.168 633.667 474.512 634.52 473.911C635.438 473.336 636.216 472.563 636.795 471.648C637.31 470.754 637.656 469.773 637.814 468.754C637.925 467.985 638.174 467.242 638.55 466.562C639.42 465.477 640.423 464.506 641.536 463.672C642.165 463.183 642.757 462.648 643.307 462.072C643.44 461.909 643.594 461.749 643.755 461.578C644.362 461.03 644.845 460.359 645.172 459.61C645.499 458.86 645.661 458.05 645.649 457.232C645.645 456.461 645.552 455.692 645.372 454.942C645.208 454.423 645.157 453.874 645.224 453.334C645.29 452.793 645.472 452.273 645.757 451.809C646.561 450.316 647.666 449.005 649.001 447.959C649.819 447.21 650.503 446.328 651.024 445.349C651.697 443.961 652.284 442.533 652.784 441.074L654.757 437.113L654.751 436.99C654.451 430.636 654.278 423.496 654.528 422.806C655.014 421.968 658.093 415.077 658.228 414.785L659.38 407.931L659.397 407.831L659.37 407.731C659.362 407.706 658.712 405.254 660.195 404.721C660.603 404.575 660.924 404.454 661.182 404.354C662.082 404.016 662.082 404.014 662.413 404.16C662.522 404.212 662.625 404.275 662.721 404.348C663.348 404.781 664.029 405.1 665.529 404.279C667.344 403.279 669.65 400.079 670.194 398.987L672.094 395.158L674.908 390.175C675.423 389.86 677.66 388.485 678.671 387.739C679.796 386.908 681.671 385.164 681.8 385.031L692.13 371.183C693.318 369.993 697.205 366.016 697.372 364.72C697.467 363.823 697.368 362.917 697.08 362.062C696.98 361.662 696.859 361.179 696.726 360.57C696.203 358.155 696.18 356.57 696.659 355.841C696.759 355.693 696.859 355.549 696.959 355.41C697.348 355 697.62 354.493 697.745 353.941C697.87 353.39 697.844 352.815 697.67 352.277C697.009 350.677 696.203 349.141 695.261 347.689L694.003 342.943L692.195 339.933L688.612 337.243L682.52 336.818L682.472 336.826C681.406 337.04 680.309 337.055 679.237 336.872C678.622 336.553 676.381 334.862 675.514 334.195C673.897 332.282 672.43 330.248 671.124 328.111C669.721 325.859 668.093 323.755 666.266 321.832L666.131 321.69H664.11L660.41 320.096L658.07 318.796H644.916L640.735 317.696L636.497 317.427L629.222 314.502L623.965 316.256L622.896 317.833H620.213L618.773 319.539L617.667 321.091C616.799 320.954 615.946 320.735 615.119 320.437C615.088 320.27 615.019 320.047 614.925 319.706C614.681 319.046 614.552 318.349 614.546 317.645C615.588 317.008 616.703 316.498 617.867 316.126L619.694 314.595L619.584 314.289C619.584 314.289 618.784 312.089 618.307 310.718C617.83 309.347 616.292 305.368 616.228 305.199L616.113 304.899H612.913L611.58 306.047C610.68 305.562 609.88 304.932 609.872 304.678C609.872 303.701 608.553 302.39 608.291 302.138L608.199 302.051L601.032 300.37L592.986 298.843L589.559 299.143L589.44 299.266C588.761 299.919 588.151 300.64 587.619 301.418C586.029 302.696 584.37 303.885 582.65 304.981L581.03 306.896L578.371 307.796L567.287 309.161L558.849 306.738L557.359 305.455H553.701L555.645 302.219L558.166 299.5L560.347 295.05C560.716 293.854 561.43 292.794 562.399 292.002C563.98 290.914 566.032 289.554 566.03 289.552L571.503 286.589C571.793 286.56 571.882 286.247 572.163 285.283C572.448 284.222 572.9 283.213 573.503 282.295C574.075 281.193 574.486 280.014 574.724 278.795L574.791 278.512L570.01 274.535L567.689 270.135C567.327 268.208 566.838 266.307 566.224 264.445C565.789 263.568 563.236 258.245 562.782 257.303L563.322 254.678L561.472 254.224L558.772 260.624L556.493 262.945L556.408 263.068C556.385 263.114 554.172 267.647 553.343 268.987C552.597 270.187 551.764 271.687 551.566 272.048L549.608 273.648L546.818 273.992C544.856 273.742 542.91 273.382 540.989 272.915C540.076 272.668 539.234 272.209 538.533 271.575L538.423 271.456L533.404 270.689L531.594 270.964L528.521 270.508L524.065 270.908L523.807 272.471L522.74 274.471L522.428 274.634L517.119 274.826L513.286 275.743L509.753 277.491L505.009 278.854L501.198 279.121L497.115 277.977L494.375 275.616V271.155C494.306 269.873 494.162 268.596 493.944 267.33L493.327 262.803L494.673 260.203L496.196 255.328L495.733 252.543L495.671 252.453C495.098 251.653 494.438 250.661 494.371 250.526C494.371 250.391 494.371 250.109 493.015 248.066L489.815 245.48L486.305 245.334L486.465 247.522L485.919 248.928L483.7 250.328C481.946 250.907 477.31 252.349 476.075 252.349C474.55 252.484 473.049 252.817 471.61 253.339L468.241 255.802L465.216 256.064H462.76L459.177 254.454L458.989 254.412C457.214 254.416 455.447 254.656 453.735 255.125L453.004 255.367L453.56 255.907C453.666 256.007 456.152 258.415 456.973 258.982C457.054 259.038 457.113 259.076 457.158 259.109C457.158 259.142 457.152 259.18 457.152 259.224C457.114 260.241 457.203 261.26 457.417 262.255C457.56 262.972 457.653 263.698 457.694 264.428L457.246 264.043L457.909 268.814L459.063 270.47L462.363 270.616L464.586 270.497L465.04 271.676C464.93 271.959 464.736 272.201 464.484 272.37C464.094 272.611 463.685 272.819 463.261 272.991C462.93 273.139 462.524 273.32 461.982 273.579C460.582 274.248 459.132 276.46 458.813 276.96C458.213 277.327 454.8 279.404 452.048 281.027C449.97 282.174 447.747 283.038 445.44 283.596L441.134 284.921L437.726 283.39L436.013 281.136L435.653 281.384C435.133 281.763 434.591 282.11 434.03 282.424C433.695 282.37 432.457 282.062 431.236 281.741C431.378 281.199 431.613 280.308 431.755 279.82C432.04 278.832 431.201 276.81 430.978 276.362C430.678 275.752 429.943 273.685 429.936 273.662L429.776 273.21L428.163 273.841L426.873 274.749L425.465 274.976C424.69 274.426 423.723 273.901 423.184 274.249C422.874 274.449 421.584 275.162 420.863 275.549C420.275 275.566 417.532 275.639 417.152 275.639C416.846 275.639 411.602 275.991 411.171 276.116C410.965 276.176 410.65 276.264 409.071 279.668L408.981 279.858L409.931 282.077H411.548L414.556 282.996L414.877 283.967L414.785 286.019L413.914 286.563C413.314 286.621 410.931 286.853 410.32 287.028C409.577 287.371 408.9 287.843 408.32 288.42L408.172 288.56V291.148L409.235 293.59L409.364 293.663C410.055 294.036 410.71 294.471 411.322 294.963C411.462 295.203 411.895 296.39 412.122 297.048C412.502 298.336 412.747 299.659 412.853 300.998C412.745 301.931 412.745 303.465 412.747 303.475L411.157 317.275L408.871 328.152L407.683 327.131L406.706 329.331L402.989 327.362L400.329 326.587L395.439 329.116L390.395 330.066L385.634 332.247L382.996 340.22L382.373 344.374L380.756 346.651L378.002 347.839L377.839 347.956C377.468 348.375 375.626 350.523 375.808 351.775C376.165 353.451 376.655 355.096 377.273 356.694C377.761 357.95 380.694 363.009 380.808 363.209L383.329 367.957L383.812 370.701L384.212 371.926L388.012 372.636L390.633 375.292C390.658 375.315 393.171 377.752 393.781 378.544C393.884 378.688 394.019 378.807 394.175 378.891C394.331 378.975 394.504 379.022 394.681 379.029C395.23 378.967 395.736 378.699 396.096 378.279C396.113 378.26 397.696 376.358 398.469 375.554C398.869 375.144 400.931 374.954 402.657 375.004C403.273 375.248 403.816 375.646 404.234 376.16C404.237 377.268 404.126 378.374 403.903 379.46C403.897 379.56 403.745 381.825 403.745 382.793C403.745 383.142 403.816 383.488 403.953 383.81C404.091 384.131 404.292 384.421 404.545 384.662L409.078 386.362L410.243 387.362L411.133 387.379L414.01 386.554H420.281L424.848 384.306L424.981 384.206C425.519 383.593 426.157 383.077 426.869 382.679C427.64 382.414 428.736 382.144 428.746 382.139L428.871 382.11L431.811 379.154L434.167 377.121L435.69 376.071L439.184 375.277L445.63 375.148L445.749 376.148L446.218 378.411C446.309 379.976 446.312 381.545 446.226 383.111C446.063 383.957 446.057 389.701 446.057 390.353L447.878 394.441L449.709 397.597L453.517 399.31L461.394 400.57L468.094 403.66L470.405 406.708L471.797 408.808L476.824 409.529L478.824 409.66L479.266 409.852L480.878 412.252L481.199 415.552L483.68 419.427C482.949 421.018 482.329 422.657 481.824 424.333C481.824 424.756 482.493 429.617 482.63 430.606L483.001 432.685L486.401 433.602L493.187 434.144L495.775 435.325C496.331 435.781 497.631 437.088 497.631 438.225C497.643 439.063 497.747 439.897 497.941 440.712C498.032 441.069 498.089 441.434 498.11 441.802C498.262 442.769 498.58 443.703 499.05 444.563C499.198 444.892 499.333 445.188 499.421 445.411C499.677 446.076 500.029 446.811 500.173 447.111L499.242 454.211L498.084 458.922L499.73 462.183L499.984 463.502L497.455 465.681L497.476 465.921C497.584 467.246 497.793 469.892 497.793 470.421V475.515L496.424 477.74L496.359 477.923C496.347 478.023 496.036 480.302 496.036 481.013C496.133 481.763 496.368 482.49 496.728 483.155L496.828 483.355L502.228 484.367L508.157 484.642H510.247C511.328 485.405 512.303 486.342 512.324 486.65C512.331 487.029 512.415 487.404 512.57 487.75C512.725 488.096 512.805 488.471 512.803 488.85V494.902L513.203 496.502L516.768 497.729L516.905 497.691C517.701 497.487 518.541 497.528 519.314 497.808C519.931 498.075 520.658 501.027 520.949 503.569C521.009 504.671 520.886 505.775 520.584 506.836C520.126 507.363 518.555 508.853 518.54 508.867L518.275 509.119L520.208 512.6L522.089 514.646L522.689 519.198L520.862 524.398L517.416 526.667L511.591 528.898L509.21 532.069L504.61 535.492L500.777 537.875L499.425 539.575L495.037 542.456L490.993 544.839L488.178 547.452L488.461 549.406L493.488 551.854L496.403 555.444L501.451 557.944L503.951 559.2C506.299 561.311 508.918 563.894 509.084 564.419C509.234 565.067 511.974 568.004 517.228 573.146L517.561 573.473L517.91 573.162Z" fill="#AAAAAA" stroke="white" stroke-width="0.5" stroke-miterlimit="10"/>
<path d="M424.482 486.616L428.951 482.903L431.074 479.17L432.749 478.207L433.466 478.284V478.965C433.466 479.144 433.466 479.621 435.418 480.998L435.518 481.065L439.26 481.486L441.127 482.105L441.637 482.967L442.483 485.448L444.741 487.069L446.422 486.269L449.568 483.716L451.508 481.916L458.429 482.051L458.506 482.026C458.931 481.878 461.071 481.111 461.606 480.338C462.058 479.688 463.619 478.073 463.633 478.057L464.708 474.957L465.477 471.876L466.731 469.176L471.59 463.236L472.855 462.509L476.572 462.376L483.828 459.899L487.684 459.761L490.161 460.019L492.444 460.675L498.175 466.319L501.013 463.875L500.642 461.956L499.082 458.825L500.167 454.404L501.142 446.97L501.079 446.843C501.079 446.833 500.606 445.891 500.298 445.093C500.206 444.858 500.065 444.543 499.906 444.193C499.512 443.447 499.224 442.65 499.052 441.824C499.033 441.39 498.969 440.96 498.862 440.539C498.681 439.788 498.584 439.019 498.572 438.247C498.572 436.391 496.411 434.653 496.32 434.58L493.509 433.28L486.573 432.707L483.823 431.959L483.558 430.48C483.258 428.28 482.768 424.671 482.758 424.386C482.808 424.051 483.758 421.686 484.639 419.586L484.739 419.357L482.112 415.257L481.791 411.951L479.891 409.126L479.126 408.797L476.934 408.626L472.348 407.968L471.169 406.193L468.704 402.935L461.731 399.722L453.847 398.459L450.368 396.894L448.708 394.038L446.993 390.279C446.993 387.75 447.035 383.879 447.143 383.318C447.239 381.653 447.239 379.983 447.143 378.318L446.672 376.018L446.462 374.218L439.087 374.372L435.414 375.197L433.614 376.397L431.193 378.485L428.408 381.285C428.091 381.366 427.239 381.585 426.579 381.814C425.748 382.245 425.002 382.825 424.379 383.524L420.079 385.641H413.968L411.037 386.466L409.154 386.424L411.698 388.618L413.411 391.435L416.965 397.558L415.644 400.596L413.168 405.016L413.989 409.795L414.145 413.953L412.453 417.924L409.986 421.039L410.163 424.677L413.086 428.161L415.634 432.805L414.178 434.29L408.528 437.069L406.659 440.425L407.44 441.812V448.154L408.775 452.677L411.225 454.927L412.698 457.085L412.398 460.977L411.433 465.135C411.185 466.379 411.083 467.648 411.127 468.916C411.292 469.485 412.648 472.07 412.892 472.522L414.467 476.839L415.74 484.464V487.235L418.557 488.602L421.784 488.648L424.482 486.616Z" fill="#AAAAAA" stroke="white" stroke-width="0.5" stroke-miterlimit="10"/>
<path d="M498.93 527.162C504.578 527.018 504.895 526.608 505.03 526.433C505.284 526.106 506.945 524.256 507.557 523.577L510.88 520.029L514.713 516.591L516.692 512.151L519.842 510.014L519.457 509.314C519.936 508.856 520.928 507.897 521.299 507.47C521.837 506.853 521.899 504.547 521.891 503.53C521.735 502.145 521.112 497.573 519.697 496.963C518.78 496.614 517.78 496.547 516.824 496.769L513.993 495.794L513.751 494.857V488.865C513.752 488.369 513.65 487.879 513.451 487.425C513.34 487.186 513.279 486.928 513.27 486.665C513.27 485.696 511.455 484.34 510.67 483.803L510.551 483.722H508.195L502.351 483.453L497.468 482.532C497.222 482.06 497.057 481.55 496.98 481.024C496.98 480.511 497.186 478.868 497.28 478.159L498.736 475.792V470.431C498.736 469.831 498.505 466.954 498.436 466.093L498.888 465.705L492.925 459.836L490.34 459.098L487.721 458.821L483.729 458.958L476.475 461.437L472.598 461.577L471.063 462.458L465.986 468.619L464.615 471.552L463.828 474.683L462.903 477.471C462.18 478.208 461.495 478.982 460.853 479.79C460.087 480.384 459.216 480.83 458.286 481.103L455.813 481.055L457.173 483.478L462.761 492.143L469.261 497.076L477.801 500.426L485.755 504.261L490.488 506.98L493.624 510.195L493.224 512.135L487.566 517.148L483.095 521.825L482.078 524.667L485.33 527.009L492.63 527.849L492.682 527.855L498.93 527.162Z" fill="#AAAAAA" stroke="white" stroke-width="0.5" stroke-miterlimit="10"/>
<path d="M505.734 586.219C506.536 585.609 507.401 585.087 508.315 584.661C509.438 584.117 510.248 583.723 512.515 581.061C513.599 579.775 514.538 578.373 515.315 576.882C516 575.529 516.872 574.278 517.903 573.165L518.222 572.827L517.891 572.504C513.391 568.104 510.22 564.766 510.003 564.233C509.78 563.277 506.103 559.897 504.538 558.489L497.071 554.795L494.156 551.205L489.323 548.805L489.256 548.334L484.604 549.165L483.246 553.648L481.546 558.6L480.269 562.544L480.246 567.655L478.946 571.522L475.346 573.253L474 576.253L473.077 581.434L474.767 583.557L474.996 583.549C475.972 583.57 476.942 583.71 477.884 583.964C480.259 584.51 485.195 585.464 485.224 585.474C485.524 585.547 492.647 587.274 494.753 587.274C495.361 587.297 495.968 587.354 496.57 587.443C497.78 587.614 498.999 587.709 500.22 587.73C502.172 587.83 504.105 587.301 505.734 586.219Z" fill="#AAAAAA" stroke="white" stroke-width="0.5" stroke-miterlimit="10"/>
<path d="M367.174 720.858L367.405 720.539C367.605 720.249 367.684 720.139 368.79 719.701C369.277 719.509 369.779 719.355 370.29 719.24C371.25 719.009 371.79 718.815 371.79 717.477C371.733 716.475 371.45 715.499 370.963 714.621C370.779 714.258 370.622 713.881 370.494 713.494C370.384 713.111 370.273 712.823 370.179 712.584C370.024 712.316 369.965 712.002 370.012 711.696C370.649 711.114 371.357 710.615 372.118 710.209C373.006 709.695 373.855 709.117 374.66 708.48C374.981 708.214 375.285 707.928 375.57 707.624C376.32 706.885 377.13 706.21 377.993 705.607C380.793 703.449 381.76 699.598 381.96 698.648C382.391 698.386 383.689 697.621 386.06 696.438C386.685 696.09 387.402 695.941 388.114 696.013C389.339 696.071 390.495 696.121 394.466 692.513C400.337 687.182 401.041 686.298 401.066 686.263L401.393 685.84L396.541 683.002L390.899 675.712C390.793 675.345 390.357 673.593 391.439 672.56C392.695 671.36 394.593 669.816 395.004 669.485L404.136 667.276L409.274 661.851L410.241 656.859L413.223 652.419C413.653 651.85 414.197 651.378 414.82 651.031C415.443 650.685 416.132 650.473 416.842 650.408C417.397 650.406 417.952 650.442 418.503 650.516C418.843 650.611 419.203 650.599 419.536 650.482C419.868 650.364 420.156 650.147 420.361 649.86C421.39 648.827 422.017 645.706 422.086 645.354L422.138 645.085L421.932 644.908C421.312 644.345 420.543 643.972 419.717 643.835C418.802 643.835 418.725 643.877 417.423 644.577C416.616 644.98 415.759 645.275 414.875 645.454C414.083 644.854 413.414 644.096 413.462 643.841C413.612 643.379 413.892 642.971 414.268 642.664C414.403 642.534 414.531 642.396 414.649 642.251C414.693 642.199 414.741 642.149 414.791 642.103C415.206 641.703 415.504 641.263 415.22 639.678C415.152 637.938 415.334 636.197 415.76 634.509L419.877 635.122C420.645 635.592 421.447 636.004 422.277 636.353C423.1 636.636 427.467 637.143 427.963 637.201L428.113 637.218L428.244 637.143C429.153 636.631 430.03 636.063 430.869 635.443C431.004 635.326 431.179 635.183 431.377 635.02C432.295 634.296 433.155 633.502 433.95 632.645C434.338 632.199 434.623 631.845 434.906 631.489C435.333 630.951 435.739 630.443 436.494 629.631C436.881 629.216 437.352 628.804 437.809 628.406C438.909 627.445 439.955 626.537 439.809 625.529C439.395 624.069 438.841 622.652 438.157 621.298L439.14 620.346L440.075 619.886L445.533 620.423H445.583L445.635 620.417C445.989 620.371 454.341 619.3 456.916 618.329C458.428 617.895 459.985 617.633 461.556 617.548C463.646 617.34 465.621 617.148 466.723 616.508C467.031 616.331 467.329 616.168 467.617 616.008C469.31 615.196 470.797 614.011 471.965 612.541C472.566 611.782 473.082 610.959 473.504 610.088C473.841 609.225 474.434 608.486 475.204 607.971C475.767 607.613 476.354 607.293 476.96 607.015C477.479 606.788 477.97 606.503 478.425 606.165C479.53 605.273 480.58 604.315 481.569 603.296C481.785 602.974 481.93 602.609 481.993 602.226C482.057 601.844 482.037 601.452 481.936 601.077C481.598 600.368 481.142 599.721 480.588 599.164C480.252 598.747 479.346 597.374 479.559 596.551C479.785 595.751 480.101 594.979 480.503 594.251C480.921 593.251 481.143 592.179 481.157 591.095C480.988 590.366 478.19 587.868 476.557 586.466L473.915 583.849L474.859 583.549C474.871 583.549 474.915 583.543 474.999 583.541L475.928 583.514L474.063 581.17L474.863 576.578L476.048 573.945L479.69 572.191L481.138 567.876L481.161 562.757L482.413 558.894L484.121 553.925L485.321 549.979L489.388 549.254L489.18 547.821L491.518 545.638L495.539 543.267L500.01 540.334L501.35 538.644L505.142 536.283L509.827 532.798L512.181 529.698L517.804 527.544L521.644 525.027L523.65 519.316L522.977 514.243L520.998 512.11L519.377 509.195L515.941 511.526L514.012 515.957L510.226 519.357L506.868 522.94C506.778 523.04 504.787 525.246 504.337 525.794C502.525 526.086 500.692 526.23 498.856 526.227L492.681 526.91L485.664 526.104L483.17 524.314L483.822 522.403L488.193 517.828L494.06 512.634L494.618 509.899L491.093 506.282L486.172 503.436L478.155 499.571L469.755 496.294L463.484 491.567L457.955 482.996L456.882 481.079L451.151 480.966L448.959 482.999L445.969 485.439L444.827 485.987L443.252 484.856L442.464 482.577L441.737 481.325L439.495 480.581L435.847 480.16C435.309 479.802 434.818 479.378 434.384 478.898V477.442L432.544 477.242L430.388 478.48L428.288 482.232L423.903 485.876L421.47 487.709H421.137L420.537 491.517L419.943 494.34L413.093 498.363L410.01 501.869L409.662 504.859L410.933 509.236L409.698 514.824L407.727 518.224L407.765 518.401C408.044 519.64 408.254 520.893 408.394 522.155V522.786L406.669 524.519L404.502 525.586L400.812 530.138L396.976 535.646L393.434 540.925L391.557 544.696C391.176 545.038 390.028 546.167 390.263 547.167C390.344 547.515 390.628 547.977 391.501 548.192C392.519 548.372 393.425 548.945 394.023 549.788V551.319L394.05 551.473C394.06 551.51 394.129 551.796 393.675 552.092C393.655 552.067 393.634 552.043 393.61 552.021C393.293 551.727 393.293 551.731 391.95 552.888C390.457 554.215 389.14 555.727 388.031 557.388L387.962 557.488L387.635 563.44L388.281 567.615L388.302 567.903L388.587 567.984C388.595 567.984 389.387 568.34 390.216 570.724C391.122 573.324 390.208 578.412 390.195 578.487L389.885 580.897L388.975 582.987L386.108 586.831L382.608 592.594L378.42 598.986L376.203 603.905L372.951 609.789V613.614L373.907 615.264V618.07L372.388 621.755L369.596 626.032C369.254 626.181 368.949 626.404 368.704 626.686C368.459 626.967 368.279 627.3 368.179 627.659C368.131 627.843 368.014 628.002 367.852 628.103C367.352 628.503 366.983 628.966 367.204 630.872C367.401 632.299 367.401 633.745 367.204 635.172L366.733 639.645L365.333 643.132L364.216 645.47L364.031 646.599L362.816 648.391L364.016 650.751L364.168 653.351L363.718 656.241L362.864 658.595L363.874 661.639L364.647 662.508V663.556L361.407 665.418L361.344 665.545C360.994 666.33 360.816 667.18 360.821 668.039L361.129 669.754C361.047 670.432 360.855 671.092 360.56 671.708C360.337 672.058 360.078 672.384 359.787 672.681C359.449 673.011 359.164 673.391 358.943 673.808C358.645 675.381 358.522 676.981 358.578 678.581L358.732 680.675L355.124 689.875L353.739 692.396L351.887 693.727L349.004 696.064L348.841 702.531L348.223 704.254L348.2 704.354C348.179 704.535 347.719 708.806 349.065 710.983C349.542 711.683 349.947 712.43 350.273 713.212V713.402L355.194 718.49L357.117 719.49L358.807 722.255L367.174 720.858Z" fill="#AAAAAA" stroke="white" stroke-width="0.5" stroke-miterlimit="10"/>
<path d="M362.302 738.846C362.335 738.846 365.727 738.325 368.473 738.184L369.127 738.151L368.271 736.059L367.338 729.634L369.884 722.942L369.584 722.734C369.071 722.384 368.696 722.163 368.696 722.163L368.569 722.088L368.421 722.1C367.619 722.204 366.806 722.175 366.013 722.015C366.075 721.946 366.142 721.881 366.213 721.821C366.616 721.493 366.978 721.118 367.292 720.704L367.977 719.775L359.277 721.227L357.777 718.769L355.812 717.781L351.168 712.981C350.824 712.106 350.386 711.271 349.862 710.491C348.762 708.708 349.076 705.001 349.124 704.516L349.745 702.783L349.926 696.527L352.451 694.477L354.368 693.102L355.968 690.279L359.681 680.827L359.514 678.554C359.467 677.101 359.56 675.647 359.791 674.212C359.974 673.884 360.204 673.584 360.474 673.322C360.812 672.977 361.111 672.597 361.366 672.187C361.731 671.437 361.968 670.632 362.066 669.804L362.072 669.735L361.749 667.962C361.762 667.322 361.887 666.689 362.12 666.093L365.581 664.105V662.13L364.725 661.247L363.852 658.614L364.619 656.48L365.104 653.405L364.942 650.605L363.9 648.465L364.923 646.954L365.088 645.816L366.188 643.516L367.626 639.941L368.126 635.316C368.343 633.808 368.345 632.277 368.132 630.768C367.953 629.228 368.188 629.043 368.432 628.843C368.743 628.621 368.969 628.297 369.069 627.928C369.135 627.689 369.256 627.468 369.423 627.284C369.589 627.1 369.797 626.959 370.029 626.87L370.194 626.824L373.205 622.201L374.805 618.349L374.84 615.016L373.882 613.366V610.036L377.036 604.33L379.236 599.444L383.394 593.102L386.882 587.36L389.757 583.51L390.77 581.216L391.12 578.637C391.16 578.418 392.089 573.255 391.101 570.418C390.361 568.295 389.593 567.518 389.17 567.243L388.57 563.397L388.88 557.797C389.93 556.252 391.165 554.842 392.557 553.597C392.72 553.457 392.857 553.332 392.986 553.226C393.234 553.28 393.494 553.243 393.717 553.12C394.959 552.585 395.08 551.709 394.954 551.243V549.666L394.912 549.466C394.569 548.895 394.107 548.404 393.557 548.028C393.007 547.651 392.383 547.398 391.726 547.285C391.574 547.248 391.214 547.139 391.17 546.952C391.083 546.581 391.735 545.779 392.237 545.344L394.237 541.4L397.745 536.179L401.558 530.702L405.006 526.381L407.15 525.327L409.325 523.175V522.156C409.198 520.888 408.993 519.628 408.713 518.385L410.54 515.239L411.894 509.21L410.611 504.785L410.903 502.272L413.63 499.139L420.77 494.947L421.455 491.693L422.084 487.714H418.867L416.667 486.649L416.661 484.389L415.361 476.603L413.738 472.142C413.13 470.988 412.123 469.021 412.017 468.657C412.026 467.536 412.135 466.419 412.342 465.317L413.311 461.117L413.644 456.825L411.952 454.35L409.583 452.156L408.362 448.081V441.562L407.185 439.472L406.539 440.632L405.862 444.411L404.662 446.474L400.799 449.934L398.155 450.769L398.145 451.1C398.107 452.279 398.062 454.521 398.174 456.294C398.332 458.725 398.334 461.057 398.337 461.119L398.808 466.807L396.598 474.149L396.579 474.27C396.573 474.491 396.419 479.658 396.419 481.024C396.419 482.314 395.963 485.391 395.219 486.545C395.059 486.793 394.861 487.064 394.648 487.345C393.754 488.56 392.642 490.07 393.088 491.606C393.328 492.428 393.61 493.236 393.932 494.029C394.053 494.337 394.149 494.579 394.201 494.756C394.099 496.377 393.887 497.989 393.566 499.581L391.622 503.631L392.107 508.8L391.807 511.352L389.557 513.846L389.399 519.315L388.474 524.63L384.493 527.511L383.664 531.23L380.381 542.405L380.633 542.605C380.645 542.615 382.021 543.705 381.891 544.936C381.443 546.579 380.779 548.155 379.918 549.624L377.162 551.724L377.118 551.874C377.091 551.966 376.46 554.205 376.618 559.447C376.827 563.377 377.317 567.287 378.085 571.147C378.581 572.756 378.419 574.495 377.635 575.985C376.214 578.57 374.481 581.696 374.485 581.698C364.803 593.93 364.803 594.448 364.803 594.644C364.851 595.5 364.811 596.359 364.684 597.207C364.526 597.507 362.811 599.551 361.246 601.351L361.14 601.47L361.132 601.63C361.122 602.67 360.892 603.696 360.457 604.64C360.057 604.93 359.604 605.139 359.124 605.255C358.461 605.389 357.854 605.72 357.382 606.205C356.905 606.89 356.84 607.53 356.624 609.643L356.503 610.826C356.315 612.712 356.254 614.609 356.32 616.503C356.333 617.086 356.341 617.676 356.341 618.303C356.446 619.834 356.923 621.316 357.731 622.62C357.958 622.989 358.136 623.387 358.258 623.803C357.749 625.306 357.075 626.748 356.25 628.103L351.687 635.68L351.718 635.857C352.031 637.576 352.658 640.526 353.36 640.98C354.653 641.545 355.987 642.011 357.35 642.374L359.8 645.107L358.3 650.155L355.269 656.755L354.238 663.286L354.98 664.138C354.143 664.616 353.385 665.221 352.734 665.932C352.405 666.499 351.934 667.586 351.911 667.632L351.871 670.401L349.486 673.278L349.169 678.499L348.469 679.299C347.648 679.216 346.042 678.853 345.754 677.863C345.275 676.217 344.346 673.675 344.306 673.569L344.177 673.211L340.11 673.849L338.777 675.57C337.864 676.085 335.931 677.27 335.754 678.183C335.682 678.449 335.674 678.728 335.732 678.997C335.789 679.266 335.91 679.518 336.085 679.731C336.253 679.899 336.461 680.022 336.689 680.089C336.918 680.155 337.159 680.162 337.391 680.11C338.425 679.859 339.431 679.501 340.391 679.043C341.149 679.259 341.84 679.664 342.397 680.222C343.16 681.036 343.997 681.777 344.897 682.437L341.174 685.9L341.011 690.46C340.163 691.393 337.973 693.902 337.973 694.914C337.973 695.324 337.038 695.881 336.321 696.141L334.654 696.941L334.102 701.227L336.252 702.404L339.194 702.264L340.377 702.518L338.41 705.418L339.245 708.481L339.732 708.273C339.742 708.273 340.695 707.858 342.255 707.323C342.702 707.157 343.137 706.958 343.555 706.729C343.736 706.629 343.963 706.516 344.13 706.448C344.111 706.604 344.083 706.758 344.047 706.911C343.72 708.317 342.287 709.93 341.432 710.894C341.18 711.154 340.95 711.435 340.744 711.732C340.396 712.332 340.657 714.763 340.844 716.159L340.863 716.296L340.953 716.396C341.032 716.49 342.932 718.69 344.805 718.046C345.858 717.67 346.888 717.231 347.888 716.731C348.279 716.838 348.629 717.063 348.888 717.375C348.9 717.399 348.905 717.426 348.903 717.452C348.901 717.479 348.893 717.505 348.878 717.527C348.607 717.971 346.034 719.26 344.497 720.027C341.734 721.408 341.482 721.575 341.482 722.004C341.727 723.132 342.056 724.241 342.465 725.321L342.527 725.502L347.027 727.719L348.075 729.863C347.66 730.249 347.39 730.765 347.31 731.326C347.288 731.647 347.338 731.969 347.457 732.269C347.575 732.568 347.759 732.838 347.995 733.057C349.56 734.705 354.06 736.378 354.429 736.482C354.9 736.62 362.015 738.799 362.088 738.82L362.188 738.851L362.302 738.846Z" fill="#AAAAAA" stroke="white" stroke-width="0.5" stroke-miterlimit="10"/>
<path d="M460 406C455.758 406.004 451.691 407.628 448.691 410.515C445.692 413.403 444.005 417.317 444 421.4C444 432.95 460 450 460 450C460 450 476 432.95 476 421.4C475.995 417.317 474.308 413.403 471.309 410.516C468.309 407.628 464.242 406.005 460 406ZM460 410.4C460.904 410.4 461.788 410.658 462.54 411.141C463.292 411.625 463.878 412.312 464.224 413.116C464.569 413.92 464.66 414.804 464.484 415.658C464.307 416.511 463.872 417.295 463.233 417.91C462.593 418.526 461.779 418.945 460.892 419.115C460.005 419.284 459.086 419.197 458.251 418.864C457.416 418.531 456.702 417.967 456.2 417.244C455.697 416.52 455.429 415.67 455.429 414.799C455.433 413.634 455.916 412.517 456.772 411.692C457.629 410.868 458.789 410.403 460 410.4ZM460 432.399C458.188 432.402 456.404 431.971 454.808 431.146C453.212 430.32 451.855 429.125 450.857 427.67C450.903 424.765 456.96 423.161 460 423.161C463.04 423.161 469.098 424.767 469.143 427.67C468.146 429.126 466.788 430.32 465.192 431.146C463.596 431.972 461.812 432.402 460 432.399Z" fill="url(#paint0_linear_0_1)"/>
</g>
<defs>
<linearGradient id="paint0_linear_0_1" x1="444" y1="422.368" x2="476.002" y2="422.112" gradientUnits="userSpaceOnUse">
<stop stop-color="#7200A6"/>
<stop offset="1" stop-color="#7200A6"/>
</linearGradient>
<clipPath id="clip0_0_1">
<rect width="742.397" height="729.879" fill="white"/>
</clipPath>
</defs>
</svg>
