<svg xmlns="http://www.w3.org/2000/svg" xmlns:xlink="http://www.w3.org/1999/xlink" width="742.397" height="729.879" viewBox="0 0 742.397 729.879">
  <defs>
    <linearGradient id="linear-gradient" y1="0.372" x2="1" y2="0.361" gradientUnits="objectBoundingBox">
      <stop offset="0" stop-color="#e4002b"/>
      <stop offset="1" stop-color="#7200a6"/>
    </linearGradient>
    <linearGradient id="linear-gradient-2" y1="0.5" x2="1" y2="0.5" gradientUnits="objectBoundingBox">
      <stop offset="0" stop-color="#f1001c"/>
      <stop offset="0.066" stop-color="#e60028"/>
      <stop offset="0.382" stop-color="#b90060"/>
      <stop offset="0.655" stop-color="#970088"/>
      <stop offset="0.87" stop-color="#8300a1"/>
      <stop offset="1" stop-color="#7c00ab"/>
    </linearGradient>
    <linearGradient id="linear-gradient-3" x1="-14.24" y1="0.5" x2="1.685" y2="0.5" xlink:href="#linear-gradient-2"/>
    <linearGradient id="linear-gradient-4" x1="-4.342" y1="0.5" x2="1.076" y2="0.5" xlink:href="#linear-gradient-2"/>
  </defs>
  <g id="Grupo_6268" data-name="Grupo 6268" transform="translate(-441.603 -45.371)">
    <g id="Grupo_6243" data-name="Grupo 6243" transform="translate(-12966.312 1273.24)">
      <g id="Grupo_6242" data-name="Grupo 6242" transform="translate(13408.178 -1227.619)">
        <circle id="Elipse_80" data-name="Elipse 80" cx="2.938" cy="2.938" r="2.938" transform="translate(404.542 438.911)" fill="#e4002b"/>
        <path id="Icon_material-person-pin-circle" data-name="Icon material-person-pin-circle" d="M26.065,3A18.586,18.586,0,0,0,7.5,21.565c0,13.924,18.565,34.479,18.565,34.479S44.631,35.489,44.631,21.565A18.586,18.586,0,0,0,26.065,3Zm0,5.3a5.3,5.3,0,1,1-5.3,5.3A5.32,5.32,0,0,1,26.065,8.3Zm0,26.522a12.685,12.685,0,0,1-10.609-5.7c.053-3.5,7.081-5.437,10.609-5.437s10.556,1.936,10.609,5.437A12.685,12.685,0,0,1,26.065,34.826Z" transform="translate(416.588 438.419)" fill="url(#linear-gradient)"/>
        <g id="Grupo_6221" data-name="Grupo 6221" transform="translate(0 0)">
          <g id="Grupo_6122" data-name="Grupo 6122" transform="translate(0)">
            <g id="Grupo_6120" data-name="Grupo 6120" transform="translate(317.388 712.404)" style="isolation: isolate">
              <g id="Grupo_6119" data-name="Grupo 6119">
                <path id="Trazado_3834" data-name="Trazado 3834" d="M246.952,416.675l.5-.142c1.188-.331,1.975-.55,2.344-1.346a1.064,1.064,0,0,0-.015-.875,5.2,5.2,0,0,0-2.64-2.24c-1.048-.388-5.471-1.819-6.161-2.042-1.7-1.415-3.538-3.227-3.6-3.708a2.167,2.167,0,0,1,.125-.854,11.11,11.11,0,0,0,.346-1.4c.21-1.081-.8-2.4-3.006-3.911l-.481-.331-2.71,7.125.977,6.725.783,1.948.325-.017a10.691,10.691,0,0,1,2.9.1,48.638,48.638,0,0,0,8.842,1.092A5.9,5.9,0,0,0,246.952,416.675Z" transform="translate(-231.66 -399.831)" fill="#aaa" stroke="#fff" stroke-miterlimit="10" stroke-width="0.5"/>
                <path id="Trazado_3835" data-name="Trazado 3835" d="M233.531,413.911l-.481-1.175-.933-6.425,2.2-5.786c1.442,1.065,2.252,2.046,2.142,2.617a10.107,10.107,0,0,1-.321,1.292,3.057,3.057,0,0,0-.167,1.138c0,1.069,2.8,3.5,4,4.488l.15.083c.052.017,5.115,1.652,6.211,2.056s2.181,1.55,2.135,1.84c-.183.392-.669.542-1.754.844l-.508.142c-1.277.369-7.667-.394-9.817-.965a7.814,7.814,0,0,0-1.875-.169C234.214,413.89,233.887,413.9,233.531,413.911Z" transform="translate(-231.166 -399.079)" fill="#aaa" stroke="#fff" stroke-miterlimit="10" stroke-width="0.5"/>
              </g>
            </g>
            <g id="Grupo_6121" data-name="Grupo 6121" transform="translate(0)">
              <g id="Grupo_6108" data-name="Grupo 6108" transform="translate(235.555 79.223)" style="isolation: isolate">
                <path id="Trazado_3802" data-name="Trazado 3802" d="M255.6,125.543a7.682,7.682,0,0,1,2.648-.973,38.264,38.264,0,0,1,4.875.613c2.01.331,4.415.617,6.429.76.546.04,1.075.119,1.575.194,1.348.2,2.515.373,3.246-.319a10.729,10.729,0,0,1,2.46-1.856c1.117-.619,2.325-1.381,2.338-1.39l.252-.156-.312-2.506-4.811-1.769-4.779-.9c-.05-.4-.11-.952-.11-1.185,0-.419-.083-1.883-.083-1.883l-.015-.3-4.027-1.623-5.533-.638-3.933-2.252-4.892-3.869a21.313,21.313,0,0,0-3.848-2.275,15.148,15.148,0,0,0-2.748,0,25.291,25.291,0,0,1-4.008-.717c-.24-.115-.783-.342-1.446-.619-1.315-.548-3.115-1.3-3.786-1.7a18.71,18.71,0,0,0-5.54-2.056c-1.348-.129-5.3-.56-5.775-.613l-2.908-.948-6.4-.648-6.254,1.454L203.031,98l-2.76,2.6-2.038,2.121-.008.177s-.063,1.327-.077,1.8a4.273,4.273,0,0,1-1.394.721c-.617.133-3.377.542-3.4.544l-.192.029-.115.16a2.942,2.942,0,0,0-.638,1.9.945.945,0,0,0,.463.637l1.717.777.092.029a6.578,6.578,0,0,0,2.875-.012c.708-.233,1.5-.437,2.073-.585.258-.067.477-.123.623-.165a6.567,6.567,0,0,0,1.9-1.654l.554-1.35,2.175-.485a20.467,20.467,0,0,0,2.258-.006,30.49,30.49,0,0,0,3.008-1l2.669-1.283a8.474,8.474,0,0,1,2.2-.3,4.6,4.6,0,0,1,.381,1.867,2.008,2.008,0,0,0,1.715,2.165,50.865,50.865,0,0,0,6.569.354l2.731-.875c2.056.506,4.294,1.106,4.763,1.3a21.541,21.541,0,0,0,1.627,1.8l2.573,2.217,6.231.992.133,1.9.731,2.558,3.59.9,7-.069.513.177.683,1.927-2.977,2.15a.762.762,0,0,0-.135.008c-.367.05-.729.352-1.106.923a4.148,4.148,0,0,0-.717,2.117v.3l3.165,1.525Z" transform="translate(-192.381 -95.913)" fill="#aaa" stroke="#fff" stroke-miterlimit="10" stroke-width="0.5"/>
              </g>
              <g id="Grupo_6109" data-name="Grupo 6109" transform="translate(287.777 120.356)" style="isolation: isolate">
                <path id="Trazado_3803" data-name="Trazado 3803" d="M230.339,121.835a17.17,17.17,0,0,1,3.519-.7l4.038.906,1.633-.521.148-.079c.085-.067,2.1-1.671,2.671-2.231.74-.729.015-2.438-.225-2.944l-.123-.258-3.323-.079-4.163,1.519-3.106.065-4.146-1.619-3.361-.238a5.292,5.292,0,0,0-2.323.485,19.008,19.008,0,0,1-1.906.958l-2.225,1.352.963.317a24.7,24.7,0,0,1,2.877,1.081c.1.085.306.315.558.588a8.282,8.282,0,0,0,1.8,1.688,16.031,16.031,0,0,0,3.456.381A8.961,8.961,0,0,0,230.339,121.835Z" transform="translate(-217.447 -115.656)" fill="#aaa" stroke="#fff" stroke-miterlimit="10" stroke-width="0.5"/>
              </g>
              <g id="Grupo_6110" data-name="Grupo 6110" transform="translate(318.697 107.718)" style="isolation: isolate">
                <path id="Trazado_3804" data-name="Trazado 3804" d="M259.581,130.072a26.015,26.015,0,0,0,3.623-2.131l1.869-1.546h3.746a12.923,12.923,0,0,0,3.569-1.429,6.334,6.334,0,0,1,2.8-.358,10.08,10.08,0,0,1,3.713,1.075,2.4,2.4,0,0,0,.852.3,2.74,2.74,0,0,0,1.717-1.142c.081-.217.242-.629.475-1.3.333-.95-1.148-3.929-2.169-4.369a32.623,32.623,0,0,0-4.148-1.263,6.218,6.218,0,0,0-1.446-.137c-.067,0-.142,0-.215,0l.031-.054a19.322,19.322,0,0,1,1.16-1.669c.169-.225.315-.415.427-.588.394-.592-.05-2.027-.35-2.831l-.1-.275-.29-.025c-.023,0-2.344-.208-3.933-.277-1.546-.067-4.375-.538-4.384-.538h0l-6.471-1.558a6.021,6.021,0,0,0-2.956-.308,46.218,46.218,0,0,0-6.288,1.975l-1.977-.377-2.267-1.013-4.073-.6-3.069,1.215-.121.071a3.46,3.46,0,0,0-1.369,2.465c.025.333.075.633.119.9.052.315.119.706.042.773a11.745,11.745,0,0,1-2.367.8l-.167.042-.1.144a2.181,2.181,0,0,0-.3,1.8,1.393,1.393,0,0,1,.062.365c.054.638.269,1.042,1.356,1.615a11.521,11.521,0,0,0,3.6,1.013l.071.008,2.065-.427.094-.029c.692-.308,2.721-1.052,3.779-.8l.65.154a12.992,12.992,0,0,1,1.321.373l.715.221a3.816,3.816,0,0,0,2.069.081c.071-.015.16-.033.223-.042a2.425,2.425,0,0,1,.1.475,3.313,3.313,0,0,1-.037,1.571l-1.715.323a9.253,9.253,0,0,1-2.421.323h-3.492l-1.577-.067-2.26-.2c-.108-.038-.465-.173-1.431-.59a13.845,13.845,0,0,0-2.319-.783l-2.423-.01-.129.112a5.009,5.009,0,0,0-.8.921l-.381,1.863,4.431,1.721.125.029c.223.021,5.456.485,6.188.485a9.748,9.748,0,0,0,1.152-.115,19.6,19.6,0,0,1,2.84-.229c1.592,0,5.223.444,6.275.577l.39,1.229.079.148a17.029,17.029,0,0,0,1.856,2.09,3.109,3.109,0,0,0,1.565.31A6.2,6.2,0,0,0,259.581,130.072Z" transform="translate(-232.288 -109.59)" fill="#aaa" stroke="#fff" stroke-miterlimit="10" stroke-width="0.5"/>
              </g>
              <path id="Trazado_3805" data-name="Trazado 3805" d="M271.423,120.792l2.948-1.3-.525-2.14-.24-.081a10.98,10.98,0,0,0-1.958-.531H268.7l-1.867-.688h-.087c-.1,0-2.431.048-3.09.144a12.228,12.228,0,0,0-2.371.913l-.556.273,2.225,2.479,1.579,1.015,3.381.238Z" transform="translate(117.217 5.129)" fill="#aaa" stroke="#fff" stroke-miterlimit="10" stroke-width="0.5"/>
              <g id="Grupo_6111" data-name="Grupo 6111" transform="translate(147.448 140.943)" style="isolation: isolate">
                <path id="Trazado_3806" data-name="Trazado 3806" d="M103.943,81.6l-.014-.147-.737.109.01.112Z" transform="translate(-103.193 -81.454)" fill="#aaa" stroke="#fff" stroke-miterlimit="10" stroke-width="0.5"/>
              </g>
              <g id="Grupo_6112" data-name="Grupo 6112" transform="translate(147.414 140.412)" style="isolation: isolate">
                <path id="Trazado_3807" data-name="Trazado 3807" d="M103.932,81.567l-.02-.246-.389-.184-.35.277.019.216.37-.032-.37.032h0Z" transform="translate(-103.173 -81.137)" fill="#aaa" stroke="#fff" stroke-miterlimit="10" stroke-width="0.5"/>
              </g>
              <g id="Grupo_6114" data-name="Grupo 6114" transform="translate(147.434 140.847)" style="isolation: isolate">
                <g id="Grupo_6113" data-name="Grupo 6113">
                  <path id="Trazado_3808" data-name="Trazado 3808" d="M103.565,81.53l.3-.11.062-.014H103.9l.028-.01-.741.062.011.114Z" transform="translate(-103.185 -81.397)" fill="#aaa" stroke="#fff" stroke-miterlimit="10" stroke-width="0.5"/>
                  <path id="Trazado_3809" data-name="Trazado 3809" d="M103.549,81.476l-.339.035.084-.019Z" transform="translate(-103.169 -81.344)" fill="#aaa" stroke="#fff" stroke-miterlimit="10" stroke-width="0.5"/>
                </g>
              </g>
              <g id="Grupo_6115" data-name="Grupo 6115" transform="translate(147.459 141.086)" style="isolation: isolate">
                <path id="Trazado_3810" data-name="Trazado 3810" d="M103.948,81.644l-.01-.1-.739.078.011.118Z" transform="translate(-103.2 -81.54)" fill="#aaa" stroke="#fff" stroke-miterlimit="10" stroke-width="0.5"/>
              </g>
              <g id="Grupo_6116" data-name="Grupo 6116" transform="translate(147.477 141.282)" style="isolation: isolate">
                <path id="Trazado_3811" data-name="Trazado 3811" d="M103.96,81.765l-.009-.108-.74.069.008.088.372-.022-.37.029.37-.029-.37.037Z" transform="translate(-103.211 -81.657)" fill="#aaa" stroke="#fff" stroke-miterlimit="10" stroke-width="0.5"/>
              </g>
              <path id="Trazado_3812" data-name="Trazado 3812" d="M179.909,136.922a9.691,9.691,0,0,1,1.469-1.417c1.431-1.1,2.565-2.071,2.575-2.079l.148-.129.331-5.352-.633-8.334.627-3.783a3.278,3.278,0,0,1,.231-.7l.81-1.658-11.044,7.913h1.427l.588,1.3,1.083,13.811,2.194.65Z" transform="translate(23.718 2.334)" fill="#aaa" stroke="#fff" stroke-miterlimit="10" stroke-width="0.5"/>
              <path id="Trazado_3813" data-name="Trazado 3813" d="M258.582,206.606l1.363-2.64,3.6-4.1,1.25-1.573a43.941,43.941,0,0,0,5.648-.381,14.98,14.98,0,0,0,3.123-1.81l.225-.162-.263-2.148-2.1-2.671-3.406-2.483-2.8-1.892-.071-.74a1.6,1.6,0,0,1,.975-.367c1.415-.2,1.769-.746,1.844-.906l.05-.108-.106-1.663.483-1.179,5.221-.175h8.073l8.584-6.148.052-.106c.065-.135.19-.354.281-.325.815.279,2.075.552,2.127.565l.073.015,2.846-.306,1.556-2.385,1.421-4.967-2.923-2.36a4.88,4.88,0,0,1,1.225-1.352l.144-.1.04-.171a11.578,11.578,0,0,0,.169-3.313,5.889,5.889,0,0,0-.3-1.358c-.231-.735-.279-.888.852-1.488h0a9.272,9.272,0,0,0,2.865-2.052l.108-.14-.342-5.3-.119-.123a5.868,5.868,0,0,0-4-1.658c-2.235,0-8.107.663-8.354.692l-4.258,2.494-6.823,1.094c-.456.119-1.944.577-1.944,1.554,0,.223-.019.462-.035.694a3.463,3.463,0,0,0,.067,1.4,11.58,11.58,0,0,1,.279,1.7l-2.2,6.225-.027,3.077-1,2.081-2.044.883-1.965.677.531,3.356-.131,1.352a15.366,15.366,0,0,1-2.883,1.073c-1.76.506-3.538.863-4.323,1.013l-.212-.819-1.315-1.992-3.663-.148-2.265.7-8.3,1.65-.125.046a3.517,3.517,0,0,1-2.373.24,21.648,21.648,0,0,1-2.381-.823l-6.344-1.913-5.061-3a6.877,6.877,0,0,1-1.917-2.185c-.346-.552-.765-1.092-1.169-1.613-.923-1.19-1.794-2.313-1.794-3.5a2.122,2.122,0,0,1,.352-1.246c.419-.71.452-1.219-.456-2.35a14.021,14.021,0,0,0-4.013-3.213l-1.663-.954a11.11,11.11,0,0,1,1.65-2.773,5.932,5.932,0,0,0,1.39-2.106l.035-.1-.356-2.675-1.135-3.346-1.742-3.821c-.962-2.548-1.9-5.623-1.75-6.152.135-.41.475-1.123.8-1.813a7,7,0,0,0,.819-2.048,20.14,20.14,0,0,0-1.935-4.144l-.613-3.692.515-2.769,1.538.713c.873.406,2.433,1.008,3.046.481a7.168,7.168,0,0,0,1.165-1.56c.26-.3,1.554-1.831,1.554-2.783a6.207,6.207,0,0,0-.29-1.544l-.065-.227-.41-.154-3.986-3.254-6.121-2.388L209.5,103.59,198.609,85.942l-3.1-4-7.525-.954-3.838,1.167-2.815,3.171-2.844,1.925-2.558.34-3.783-1.2-2.458-4.061-3.619-6.238-10.009-9.771-10.79.19-2.969,2.556-19.342-.9L96.831,59.627l-.673-1.74H79.318l.025.49c.017.344.017.725.017,1.215l.006,5.025.954,6.021c.135,1.5.9,9.073,2.573,10.371a32.97,32.97,0,0,0,3.223,2.052A16.121,16.121,0,0,1,87.76,84.09a8.308,8.308,0,0,0,1.275.992c1.365.983,3.908,2.813,4.423,3.875.321.667.669,1.31.981,1.888a11.471,11.471,0,0,1,.9,1.867A30.256,30.256,0,0,1,95.2,96.7c-.094-.006-.2-.017-.329-.027-1.563-.135-3.3-.406-3.408-.415l-3.852.14a1.876,1.876,0,0,0-1.49.8A1.269,1.269,0,0,0,86.3,98.5a8.9,8.9,0,0,0,2.731,3.05,39.5,39.5,0,0,1,3.423,2.552c.448.385,2.74,2.313,3.813,2.313.963,0,2.827-.133,2.906-.138l.371-.035.054-.371a.452.452,0,0,1,.2-.31c.092-.046.377-.117,1.04.248a7.2,7.2,0,0,1,1.6,1.083,7.966,7.966,0,0,0,1.085.825c.51.329,1.071.658,1.6.969a16.128,16.128,0,0,1,1.863,1.194l.167.142a3.74,3.74,0,0,1,1.59,2.44c.115,1.094.231,2.858.285,3.727a1.161,1.161,0,0,0-.375.158c-.694.444-1.029,1.588-1.029,3.494l-.006.915c-.023,3.167.079,3.579,3.261,5.538,2.583,1.588,6.473,6.015,8.344,8.142.54.615.944,1.073,1.15,1.281a6.987,6.987,0,0,1,.752,1c.669,1,1.585,2.365,2.967,1.7A17.3,17.3,0,0,0,127.913,135l.231-.271-.2-.3c-.1-.156-2.567-3.869-2.892-4.292s-4.306-3.438-5.517-4.35l-.125-.09-.148,0a.946.946,0,0,1-.979-1.046v-3.165l-.012-.106c-.013-.056-.325-1.4-.646-2.5-.292-1.015-.971-2.9-1.1-3.271-.029-.35-.171-2.148-.315-4.6a18.457,18.457,0,0,0-1.315-5.521l-.062-.146-4.265-2.4c-.01-.006-1.033-.71-2.215-3.631a22.511,22.511,0,0,0-1.567-3.19,3.825,3.825,0,0,1-.638-1.508,10.343,10.343,0,0,1-.054-1.19,6.7,6.7,0,0,0-.646-3.388,9.577,9.577,0,0,0-1.363-1.825c-.417-.467-.981-1.1-1.869-2.221-1.083-1.363-1.915-2.477-2.648-3.463-.681-.91-1.3-1.735-1.983-2.592a3.7,3.7,0,0,0-1.665-1.188c-.629-.258-.946-.385-.946-2.231,0-1.429-.027-2.221-.048-2.823a20.091,20.091,0,0,1,.046-2.648,23.332,23.332,0,0,1,1.746-5.765,6.332,6.332,0,0,0,2.1,1.633,15.234,15.234,0,0,0,4.9.565,2.47,2.47,0,0,1,1.833,1.717c.162.706.285,1.571.365,2.229a.766.766,0,0,0-.827.029c-.433.342-.431.979.823,3.356,2.354,4.461,3.956,7.631,3.963,7.631h0c.281.858,2.815,8.438,4.644,9.725a47.188,47.188,0,0,1,4.6,3.688,10.715,10.715,0,0,0,2.925,1.71c.169.073.36.154.508.227-.075.048-.177.108-.315.181a4.593,4.593,0,0,1-1.552.6c-.483.075-.569.3-.74.74-.41,1.058.823,3.511,1.817,4.025a12.685,12.685,0,0,0,2.258.748c.546.15,1.154.317,1.806.519a3.779,3.779,0,0,0,1.4.252c.04.042.09.1.16.173s.088.169.088.4c0,.875.335,1.469,2.048,1.931l2.254.606a3.638,3.638,0,0,0,.269.95c.021.05.04.079.05.052a4.071,4.071,0,0,1-.406.519,19.138,19.138,0,0,1-1.792,1.673,7.713,7.713,0,0,0-1.454,1.425,9.537,9.537,0,0,0-.223,3.429l.017.273.244.119a6.366,6.366,0,0,0,3.113.458l.175-.015c1.431-.11,4.4-.348,5.023.4.163.2.4.471.669.79.794.929,2.444,2.865,2.575,3.173a15.373,15.373,0,0,0,2.025,4.84,12.505,12.505,0,0,0,1.935,1.665,10.813,10.813,0,0,1,1.023.819c.177.463,1.946,4.194,2.446,4.915.123.173.369.565.683,1.06a29.777,29.777,0,0,0,3.069,4.39c.208.179.754.6,1.45,1.144a53.43,53.43,0,0,1,5.106,4.246c.2.86.575,3.629.023,4.938-.152.363-.331.817-.527,1.308a18.581,18.581,0,0,1-1.742,3.746,31.81,31.81,0,0,0-2.633,3.388l-.108.156.031.188c.3,1.9.629,4.069.631,4.327,0,.431.483,2.971,1.44,3.794.8.688,8.627,6.773,8.961,7.031l.125.1h.156c1.667,0,3.65.26,3.948.646.638.823,2.711,3.571,2.711,3.571l.073.1,5.7,2.525,4.354.71,7.031,3.573c3.59,1.125,7.513,2.456,8.421,2.917-.183,1.2.3,2.973,5.611,4.917,1.6.585,3.171,1.146,4.638,1.669,3.99,1.423,7.761,2.767,8.284,3.3a1.3,1.3,0,0,1-.131.344,1.238,1.238,0,0,0-.09,1.219c.308.51,1.115.86,4.054.927a45.042,45.042,0,0,1,5.848.51,11.986,11.986,0,0,0,4.8.029c.921-.208,1.7-.329,2.381-.433a7.521,7.521,0,0,0,4.027-1.442,11.741,11.741,0,0,1,4.092-2.244,104.249,104.249,0,0,1,10.248,2.436l6.215,5.621c.106.317.419,1.24.8,2.281l.127.35Z" transform="translate(-79.318 -57.887)" fill="#aaa" stroke="#fff" stroke-miterlimit="10" stroke-width="0.5"/>
              <path id="Trazado_3814" data-name="Trazado 3814" d="M176.635,154.378c.242-.058.5-.137.767-.219a6.151,6.151,0,0,1,3.329-.331c.121.029.25.065.385.106l.29.09,1.431-1.7,5.381-2.933v-2.854l3.129-.835-.25-2.271.277-2.154,4.44-1.913,5.152-5.713-1.054-.908-3.406,1.615-3.89.644-1.248-.979c.14-.192.333-.446.575-.727l.471-.55-1.985-.588-1.04-13.25-.91-2.081h-8.509l-5.833.194-.794,1.938.1,1.558a2.421,2.421,0,0,1-1.079.35c-1.527.219-1.744.96-1.773,1.106l-.012.067.133,1.388,2.206,1.5,4.192,2.979,1.9,2.413.162,1.333a13.118,13.118,0,0,1-2.615,1.515,44.87,44.87,0,0,1-5.631.348l-.215,0-1.506,1.9-3.619,4.127-1.231,2.354-1.044.14.2.548a23.083,23.083,0,0,0,1.606,3.758c.144.225.273.452.4.692a11.2,11.2,0,0,0,4.033,4.254c3.035,2.092,5.248,3.148,6.594,3.148A2.023,2.023,0,0,0,176.635,154.378Z" transform="translate(11.683 5.964)" fill="#aaa" stroke="#fff" stroke-miterlimit="10" stroke-width="0.5"/>
              <path id="Trazado_3815" data-name="Trazado 3815" d="M187.866,142.931s1.435-.413,3.5-.963a9.308,9.308,0,0,1,1.852-.267l.473-.023-.219-3.2.579-2.8-2.411-1.748-2.729.294-1.1.492-2.04-1.146-.238-1.738-7.146.127v.617l-4.973,2.711-1.881,2.19.677.2a33.8,33.8,0,0,1,4.556,2.023l2.462,2.4,8.552.85Z" transform="translate(20.588 22.221)" fill="#aaa" stroke="#fff" stroke-miterlimit="10" stroke-width="0.5"/>
              <path id="Trazado_3816" data-name="Trazado 3816" d="M194.212,152.728l2.454-1.742.8-3.281.1-1.948,1.706-1,5.929-.283s1.6-.367,2.769-.642a11.254,11.254,0,0,0,2.342-.865l2.586-2.4,2.129-2.446,5.919-1.094,4.938-4-.64-1.7-3.456-.85-1.821-1.961-4.036-2.342-4.463-.281-3.569.133-3.577-1.542-2.977,1-5.027.137h-7.494l-1.025-.883-4.9,5.5-4.834,2.083-.36,2.8.175,1.581-3.046.815v3.333l6.342-.115.19,1.379,2.854,1.6,1.315-.619,2.3-.246,1.635,1.185-.485,2.333.227,3.31.454-.023a6.4,6.4,0,0,1,2.717.3c.046.154.129.406.227.706.173.535.4,1.233.579,1.838l.121.4Z" transform="translate(24.153 14.268)" fill="#aaa" stroke="#fff" stroke-miterlimit="10" stroke-width="0.5"/>
              <path id="Trazado_3817" data-name="Trazado 3817" d="M201.237,167.364c.315-.019.654-.027.992-.035a7.369,7.369,0,0,0,2.356-.275,5.228,5.228,0,0,0,1.571-1.481l2.475-.062,4.267,1.738-.088-.779c-.056-.485-.09-.894-.108-1.121l2.3-2.515a3.781,3.781,0,0,0,.033-3.779,50.391,50.391,0,0,0-3.54-5.394l.494-.244a6.123,6.123,0,0,0,3.042-.223.584.584,0,0,1,.358-.11c.406-.019.692-.154.942-.8a10.536,10.536,0,0,0,.19-3.231l-2.746-5.5c-.006-.021-.8-2.129.777-3.148a16.717,16.717,0,0,0,3.125-2.554l.115-.127.171-4.529-1.9-5.044-4.988,4.04-6.006,1.108-2.308,2.656-2.4,2.246a10.748,10.748,0,0,1-2.075.758c-1.142.269-2.686.623-2.688.631l-6.071.279-2.338,1.377-.106,2.365-.7,2.861-1.906,1.4-.906.167.146.5a5.564,5.564,0,0,1,.269,1.106c0,.565.675,4.179.808,4.9l.025.135,2.948,3.1c.019.023,1.925,2.354,3.808,5.058a21.9,21.9,0,0,1,2,3.6l.2.448,1.723-.892a22.964,22.964,0,0,1,2.813.067,4.764,4.764,0,0,0,2.8,1.315C201.152,167.368,201.2,167.366,201.237,167.364Z" transform="translate(33.624 18.231)" fill="#aaa" stroke="#fff" stroke-miterlimit="10" stroke-width="0.5"/>
              <path id="Trazado_3818" data-name="Trazado 3818" d="M215.684,170.141l-.16-2,.646-3.123-.423-2.11-.625-2.51.785-.36,4.171-.558-.581-.658a16.347,16.347,0,0,0-1.242-1.235,11.177,11.177,0,0,1-.933-.925,10.229,10.229,0,0,0-2.992-1.9,25.924,25.924,0,0,1-2.69-1.485c-.306-.2-.585-.383-.846-.552-1.456-.942-2.123-1.371-2.479-2.5a15.04,15.04,0,0,1-.5-2.694l-.033-.277L203.8,145.63l-3.119.075-.133.19a5.017,5.017,0,0,1-1.323,1.356,7.324,7.324,0,0,1-2.015.2c-.352.01-.7.019-1.025.037a3.751,3.751,0,0,1-2.244-1.058c-.142-.183-.308-.39-3.567-.317l-1.981.969.183.406c.413.925.671,1.648.767,1.929l-.56,2.175a1.606,1.606,0,0,0-.6,1.06,2.519,2.519,0,0,0,1.01,2.042,32.585,32.585,0,0,0,4.221,3.217l.125.079,2.779-.16.127-.2a10.636,10.636,0,0,1,1.485-2,12.073,12.073,0,0,1,2.425.367c.308.715.892,2.094,1,2.477.177.612,1.585,1.71,2.388,2.3l2.719,2.213.313,4.19,1.208,1.733.3-.065a3.234,3.234,0,0,0,1.9-1.046,3.3,3.3,0,0,1,.269-.408c.067.083.148.177.24.281a5.314,5.314,0,0,1,1.035,1.492,2.182,2.182,0,0,1-.227.523c-.235.448-.529,1-.235,1.5s.985.56,1.554.56h2.465Z" transform="translate(38.617 37.173)" fill="#aaa" stroke="#fff" stroke-miterlimit="10" stroke-width="0.5"/>
              <path id="Trazado_3819" data-name="Trazado 3819" d="M243.289,172.914l.742-1.756.531-1.7a1.591,1.591,0,0,1,1.321-.3,18.781,18.781,0,0,0,2.465.425l.452.046.215-1.833a15.861,15.861,0,0,0,.081-1.842,14.129,14.129,0,0,0-.175-1.631l-.508-1.948.74-1.313-.229-.252c-.631-.688-1.442-1.471-2.288-2.279a54.078,54.078,0,0,1-3.794-4.225,6.173,6.173,0,0,0-3.048-1.542l-5.788-.275-3.475.144-1.817,1.138c-.377.133-2.9,1.04-5.4,2.052l-1.167.477a12.331,12.331,0,0,1-4.09,1.277l-5.4,0-4.346-.242a4.825,4.825,0,0,0-.875-3.39,13.565,13.565,0,0,0-1.383-1.892l-.165-.185-3.617.483-1.679.75.808,3.246.381,1.9-.633,3.069.158,1.983-.417,1.675h4.556c1.338,0,6.027.715,7.284.91a2.307,2.307,0,0,0,1.111,1.229,9.728,9.728,0,0,0,3.306.731l1.531,2.638.1.063c1.394.873,3.873,2.269,4.765,1.806a2.275,2.275,0,0,0,1.529-2.067c0-.131,0-.26.008-.392a4.907,4.907,0,0,0-.54-2.715,7.971,7.971,0,0,0-.792-1.165c-.263-.338-.619-.8-.592-.985.006-.05.09-.115.125-.14l.094-.069a4.069,4.069,0,0,1,2.129-.956l.3-.065c1.267-.269,2.029-.433,2.269-1.046a8.471,8.471,0,0,0,.029-2.415l-.017-.19-.144-.123s-.092-.1-.083-.175.142-.25.481-.433a17.431,17.431,0,0,1,4.317-1.463A7.253,7.253,0,0,1,235.216,159a10.123,10.123,0,0,0,1.215.594,4.319,4.319,0,0,1,2,1.34,7.361,7.361,0,0,0,.656.769,2.726,2.726,0,0,1,.71.994,5.642,5.642,0,0,1-.154,1.833c-.121.438-.671,2.667.3,3.5.092.079.619.675,2.025,4.7l.125.36Z" transform="translate(52.065 43.934)" fill="#aaa" stroke="#fff" stroke-miterlimit="10" stroke-width="0.5"/>
              <path id="Trazado_3820" data-name="Trazado 3820" d="M302.732,241.42a26.946,26.946,0,0,0,6.838-2.667c3.036-1.788,6.873-4.129,6.873-4.129l.1-.06.058-.1a9.949,9.949,0,0,1,2.838-3.123c.533-.254.931-.433,1.258-.579a9.222,9.222,0,0,0,1.348-.687,2.458,2.458,0,0,0,1-1.388l.033-.142-.815-2.1-2.842.156-2.809-.129-.762-1.1-.41-2.952c.26-.271.386-.944-.056-3.419a11.245,11.245,0,0,1-.252-2.815c.029-.581-.083-.721-.581-1.065s-1.769-1.521-2.7-2.408a21.4,21.4,0,0,1,4.1-.45l3.671,1.65,2.692,0,3.323-.288,3.4-2.51a16.54,16.54,0,0,1,4.1-.915c1.65,0,7.711-2,7.967-2.085l2.625-1.644.735-1.894-.169-2.306-1.154-2.765-1.958-2.554-2.146-3.167.138-2.006,4.615-4.8.352-2.273-.313-2.823,1.15-2.6,4-1.654,1.04-2.583-.927.283c-.531.163-.969.3-1.154.367l-3.323-.373-1.24-2.492.99-3.125-4.844-4.6-4.186-2.606-4.388.14L328.272,162l-2.45-2.933c.19-.125.46-.294.829-.506a5.954,5.954,0,0,1,1.2-.529,3.644,3.644,0,0,0,.71-.3,8.5,8.5,0,0,0,1.379-1.179l.358-.371-2.908-2.34-.144-.01c-.023,0-2.111-.137-3.7-.137s-4.309.137-4.336.137l-3.254,1.635-5.052-.658a1.056,1.056,0,0,0-1.3.31,9.7,9.7,0,0,1-1.8,1.95c-.527.342-2,1.094-2.406,1.3l-4.192-.127c-.983-.85-2.483-2.177-2.688-2.44a4.849,4.849,0,0,0-1.994-.988l-7.454-.292-.092,0-2.592.975-4.383.56-.1.077a1.425,1.425,0,0,1-1.1.325c-.244-.079-.44-.342-.573-.781-.625-2.021-1.1-4.2-1.108-4.225l-.027-.127-2.763-2.973-6.088-.552-2.192-2.015a12.822,12.822,0,0,0-.994-2.36,10.751,10.751,0,0,0-2.738-1.519l-.106-.046-.115.01c-.452.04-1.948.24-2.167,1.183a18.8,18.8,0,0,0-.331,3.408,6.785,6.785,0,0,1-1.719,2.765l-4.163,1.577-.177,2.169a38.319,38.319,0,0,0-.648,4.081c0,.131-.01.275-.019.425a3.947,3.947,0,0,0,.937,3.192,21.221,21.221,0,0,1,1.715,2.146l.1.1s.148.233-.144.981l-.279.733a5.561,5.561,0,0,1-.606,1.344,9.54,9.54,0,0,1-3.452,1.515c-.412-.177-2.423-1.533-3.721-2.435l-.142-3.577c.3-.363,1.119-1.358,1.623-1.9.811-.873.606-4.942.415-5.442-.169-.435-1.529-2.554-1.777-2.931a2.322,2.322,0,0,1-.163-1.577,1.413,1.413,0,0,1,.879-.8c.917-.365,1.679-.621,2.292-.829.275-.092.521-.175.742-.254l1.913-.688-2.819-.3-1.181.219-2.469,1.088-2.994,1.792-.7,1.431-.51,2.956-2.292,5.038c-.046.1-1.127,2.565-1.446,3.39a16.032,16.032,0,0,0-.569,2.631c-.04.25-.069.442-.09.527a11.655,11.655,0,0,1-.821,1.512l-.075.125.1,1.925,3.433,1.794,3.442,2.767.371,3.319L245.955,181l.773,4.148,2.506,1.415.129.05c2.39.506,5.288,1.108,5.523,1.108.217,0,4.113.248,6.642.408l4.169.6c.763.717,1.608,1.546,1.694,1.654a17.131,17.131,0,0,0,1.129,1.74c.4.6.794,1.173.9,1.352.081.14.325.56,4.133,1.94a21.306,21.306,0,0,0,3.213.492,49.357,49.357,0,0,0,6.513-.7c.8-.229,2.2-.463,2.521-.521l.542,3.161-2.675,5.306-1.786,6.156.335,2.031,2.6,3.988.56,1.569-.687,1.775L282.1,220.6l-.96,3.806,4.694.9,3.733,2.7.15,2.036,1.3,6.848,3.171,4.171,3.938,1.771Z" transform="translate(93.952 33.092)" fill="#aaa" stroke="#fff" stroke-miterlimit="10" stroke-width="0.5"/>
              <path id="Trazado_3821" data-name="Trazado 3821" d="M293.957,275.672l1.6-13.9c0-.015,0-1.542.1-2.421a20.283,20.283,0,0,0-.767-4.338c-.11-.313-.665-1.9-.89-2.283a8.366,8.366,0,0,0-2.171-1.56l-.852-1.879v-2.075a5.8,5.8,0,0,1,1.473-1.04c.438-.127,2.354-.335,3.536-.444l.108-.01,1.471-.921.121-2.719-.529-1.6-3.527-1.077-1.215-.021-.542-1.267a25.422,25.422,0,0,1,1.508-2.871c.769-.1,5.188-.429,5.648-.429.427,0,3.846-.092,3.846-.092l.108,0,.1-.054c.083-.046,2.042-1.113,2.4-1.365h.01a4.38,4.38,0,0,1,1.458.781l.154.115,2-.323,1.319-.948.677-.265c.24.665.685,1.875.925,2.354a6.21,6.21,0,0,1,.715,2.775c-.215.738-.642,2.4-.642,2.4l-.117.45.444.119c1.175.315,3.2.842,3.525.842.173,0,.335,0,2.094-1.206l.406-.279-1.746-2.3-1.25-6.575-.177-2.421-4.167-3.015L307.107,225l.635-2.521,2.529-1.906.91-2.352-.7-1.954-2.55-3.867-.288-1.723,1.7-5.867,2.783-5.5-.731-4.254-.779,0c-.073.013-1.8.283-2.771.563a50.682,50.682,0,0,1-6.259.671,21.632,21.632,0,0,1-2.958-.454h0a26.361,26.361,0,0,1-3.59-1.515c-.11-.19-.513-.788-.933-1.408s-.969-1.431-1.031-1.552c-.042-.106-.117-.306-2.031-2.1l-.106-.1-4.492-.644c-1.081-.069-6.477-.413-6.709-.413h0c-.281-.027-3.365-.669-5.292-1.077l-2.065-1.165-.663-3.554.635-3.7-.427-3.836-3.817-3.056-3.04-1.6-.056-1.1a9.667,9.667,0,0,0,.858-1.665c.021-.1.056-.313.1-.592a15.461,15.461,0,0,1,.517-2.44c.31-.806,1.417-3.325,1.425-3.346l2.315-5.09.5-2.938.548-1.121,2.706-1.623,2.267-1.01,1-.183.773.083.1-.035a4.971,4.971,0,0,0,1.038-.471,10.893,10.893,0,0,0,1.519-1.3l.16-.169-.377-2.444-3.988-4.033-4.036,1.521-1.892,1.185-.831,2.3-1.529,2.238a22.369,22.369,0,0,1-4.636,2.917,38.344,38.344,0,0,1-4.475,1.738,11.293,11.293,0,0,0-2.615-.119,11.513,11.513,0,0,0-2.236,1.031l-1.148.769-1.648-1.419v-1.658l-2.906.179-1.61,1.71-1.95,2.946-1.817,3.84.625,4.588-1.379,1.427-2.988,1.431-.833,2.875-1.146,1.6-2.058.74-.2,2.025.019.077c.067.271.65,2.656.8,3a3.691,3.691,0,0,1-.706,1.079l-1.117-.1-1.077-1.969a3.766,3.766,0,0,0-.248-2.363,7.641,7.641,0,0,0-.987-1.263l-.429-.469-1.073,1.9.6,2.271a13.219,13.219,0,0,1,.154,1.44,14.87,14.87,0,0,1-.075,1.733l-.106.913a16.275,16.275,0,0,1-1.873-.346,2.551,2.551,0,0,0-2.269.592l-.09.083-.579,1.863-.535,1.271-.856.123.19.538c.235.675.39,1.15.392,1.152l.246.529.49-.281s.2.138.2.979c0,2.05,0,3.079,1.1,3.079a1.828,1.828,0,0,1,1.69.894,17.39,17.39,0,0,1,1.838,4.692c0,.192.01.64.021,1.221.033,1.706.1,5.258-.01,5.844a5.381,5.381,0,0,0-.042,1.048,6.12,6.12,0,0,1-.694,3.467c-1.385,2.215-1.669,2.967-1.669,3.413a11.926,11.926,0,0,0,1.665,3.273l1.64,1.554-1.569,1.558a3.025,3.025,0,0,0-3.313,2.15,19.69,19.69,0,0,0-.5,2.279c-.1.567-.2,1.208-.356,1.273a29.753,29.753,0,0,1-3.34.781c-.458-.071-2.533-.292-3.686.985-.285.315-.56.565-.8.788-.729.667-1.36,1.242-1.06,2.523a6.772,6.772,0,0,0,1.713,2.831,3.756,3.756,0,0,1,.944,1.429,9.794,9.794,0,0,1-1.819,1.567,1.462,1.462,0,0,1-.454.158c-.6.142-1.2.383-1.2,1.61a12.164,12.164,0,0,0,.421,2.971l.117.5,6.294,3.552a11.063,11.063,0,0,1,1.029,1.181c.123.3.5.506,1.9,1.135.379.173.813.369.942.452a32.783,32.783,0,0,1,2.45,2.75l.087.106,3.169.971,3.7.648h1.173l1.863-.942.617-.152,3.446.35,5.879,3.254,3.958.673A15.107,15.107,0,0,1,255.289,255c.169.362.892,2.283,1.156,2.994l.042.11,2.221,1.913c.779.671,3.3,2.406,3.867,2.8l.65,1.519-.1,2.523.24,2.677,3.075,1.165.146-.04s.327-.092,1.335-.267,3.742-.267,3.769-.267l2.7-.908a29.707,29.707,0,0,1,3.625.6c.748.277,5.083.921,5.79,1.025l2.769,1.054,1.121.621-4.623,10.544,3.711,1.133,4.563,3.929Z" transform="translate(69.129 31.77)" fill="#aaa" stroke="#fff" stroke-miterlimit="10" stroke-width="0.5"/>
              <path id="Trazado_3822" data-name="Trazado 3822" d="M226.815,238.077l3.7-6.1,2.254-6.358,5.575-1.223,7.134-1.1,5.675-2.888.111-.079c.2-.2,5.027-4.886,5.569-5.538s2.781-4.833,3.033-5.306l.065-.119-.329-4.994-1.7-3.652-5.35-2.963-3.873-.429-.823.2-1.81.9-.875.006-3.565-.629-2.848-.877a28.329,28.329,0,0,0-2.573-2.829,9.9,9.9,0,0,0-1.063-.517,12.979,12.979,0,0,1-1.458-.723,10.087,10.087,0,0,0-1.229-1.444l-7.194-4.081.24,1.031a5.065,5.065,0,0,1-.967,2.563,27.846,27.846,0,0,1-2.59,1.571c-.542.144-1.238.171-1.394-.01a5.507,5.507,0,0,0-1.415-1.071l-.177-.05c-.227-.015-2.206-.123-2.973,1.031l-.263.39a6.914,6.914,0,0,0-1.24,2.652c-.3,1.275-.585,3.425-.64,3.833l-1.7,4.006-2.942,3.661.158,8.313a3.211,3.211,0,0,0-.952,2.89,5.139,5.139,0,0,0,.923,3.033l.121.131,3.344.3.121-.065c.021-.01,2.052-1.085,2.808-1.346A3.686,3.686,0,0,1,217.86,220c.194.335.752,1.906,1.127,3.017a25.919,25.919,0,0,1-4.092,2.365l-.585.237.3.977.2,2.027-1.225,2.731-.288,1.95,2.225,1.808,2.5.294,2.881.171,1.681,2.129,2.144,1.752Z" transform="translate(60.485 82.357)" fill="#aaa" stroke="#fff" stroke-miterlimit="10" stroke-width="0.5"/>
              <path id="Trazado_3823" data-name="Trazado 3823" d="M294.253,351.886l4.161-3.673,1.369-2.313.681-3.792,1.806-3.242,5.461-2.688,2.125-2.127-2.933-5.333-2.773-3.319-.144-2.967,2.285-2.888,1.863-4.331-.171-4.431-.769-4.513,2.334-4.161,1.531-3.519-3.8-6.542-1.756-2.89-2.808-2.45-4.521-1.7a1.654,1.654,0,0,1-.425-1.108c0-.931.154-3.221.15-3.221h0a15.869,15.869,0,0,0,.315-3.625c-.2-.844-1.711-1.615-2.171-1.831l-.179-.044c-.671-.023-4.081-.1-4.975.829-.8.829-2.354,2.7-2.413,2.767a1.242,1.242,0,0,1-.681.425c-.04,0-.1.008-.2-.127-.652-.842-3.133-3.248-3.231-3.344l-2.815-2.854-3.55-.665-.213-.633-.479-2.75-2.61-4.971c-.031-.052-3.021-5.208-3.481-6.4a31.159,31.159,0,0,1-1.411-4.713c-.085-.583.963-2.09,1.735-2.981l2.9-1.248,1.9-2.673.635-4.3,2.492-7.511,4.238-1.954,5.054-.952,4.752-2.435,2.175.623,4.544,2.41,1.271-2.863-3-2.586-2.965-.948,3.194-7.223,1.338-3.142-1.917-1.056-2.875-1.1-.1-.025c-1.992-.292-5.142-.8-5.656-.985a31.548,31.548,0,0,0-3.938-.667l-.1-.013-2.7.929c-.448.017-2.827.106-3.825.279-.7.121-1.09.2-1.279.248l-2.256-.854-.183-2.031.108-2.675-.84-1.965-.11-.075c-.031-.023-3.075-2.1-3.9-2.813l-2.04-1.756c-.19-.508-.948-2.527-1.142-2.948a13.732,13.732,0,0,0-2.248-2.265l-.1-.085-3.988-.65-1.936-1.071,2.179,4.575.3,4.636c-.979,1.829-2.5,4.6-2.865,5.029-.419.506-4.029,4.033-5.452,5.417l-5.409,2.777-7.086,1.1-6.1,1.338-2.39,6.763-3.458,5.777-1.44.95-1.508-1.223-1.906-2.415-3.269-.194-2.208-.26-1.608-1.308.169-1.227,1.3-2.9-.225-2.325-.354-1.188-.465.185c-1.465.59-6.069,2.652-7.154,3.742a5.875,5.875,0,0,1-.961.679c-1.26.788-3.167,1.981-3.167,4.6,0,2.717.648,5.811,1.613,6.088a2.748,2.748,0,0,1,1.658,1.188,11.11,11.11,0,0,1,1.688,3.129,6.631,6.631,0,0,1,.219,2.238c-.085.017-.194.029-.315.048-.767.108-1.923.273-2.4,1.1a1.086,1.086,0,0,1-.429.394c-.469.294-.838.627-.581,1.735.344,1.477,4.554,3.667,5.846,4.308l3.748,1.75,4.2,4.55c.285.667,2.256,5.25,2.869,6.3a8.341,8.341,0,0,0,2.158,2.2c.188.146.356.279.494.4a36.162,36.162,0,0,1,3.221,4.352c.156.417,3.85,12.432,5.244,16.944.438,3.679.867,5.725,1.277,6.077s2.552,2.969,2.969,3.506a17.579,17.579,0,0,1,1.658,3.84,4.173,4.173,0,0,1-.115.658c-.194.877-.488,2.2.508,2.775a55.156,55.156,0,0,1,4.654,4.152c1,1.663,1.781,3.431,1.69,3.8-.327.844-.588,1.338-1.029,1.527-.746.323-1.431,2.129-1.692,2.892l-.079.233.146.2c1.061,1.433,2.223,3.073,2.336,3.331.127.331,2.74,3.161,7.763,8.406l7.267,4.746,9.282,3.456,8.029,6.5,5.321,5.967,6.048,4.942c-.006.131-.012.312-.021.533l-.021.658Z" transform="translate(57.92 88.914)" fill="#aaa" stroke="#fff" stroke-miterlimit="10" stroke-width="0.5"/>
              <path id="Trazado_3824" data-name="Trazado 3824" d="M310.772,219.686l4.963-1.423,3.467-1.719,3.69-.892,3.156-.11-2.3-4.986-1.273-4.3c-.11-.442-.971-3.89-1.185-4.448a19.766,19.766,0,0,0-2.608-3.05l-2.767-2.031-.765-1.894.1-3.369.944-1.788,1.89-.942,2.144-2.025.454-3.148.1-3.321.254-1.352-.194-.175a2.767,2.767,0,0,1-.54-.675,25.031,25.031,0,0,0-3.763-4.238l-.1-.092-4.092-.7c-.967-.24-2.1-.733-2.233-1.094-.3-.771-1.248-4.423-1.575-5.979a12.909,12.909,0,0,0-2.15-4.573,13.929,13.929,0,0,0-5.25-3.767c-.19-.033-.694-.121-3.444.719l-.21.063-.611,1.523-3.983,1.646-1.4,3.175.325,2.952-.288,1.856-4.646,4.829-.181,2.671,2.344,3.458,1.879,2.431,1.062,2.483.056.769,3.1.131,2.806,2.244c.521.79,1.1,1.742,1.158,1.879,0,.148,0,.421,1.408,2.388l.39,2.348-1.425,4.586-1.454,2.79.663,4.84a33.5,33.5,0,0,1,.419,3.683v4.892l3.144,2.708,4.511,1.308Z" transform="translate(145.347 50.114)" fill="#aaa" stroke="#fff" stroke-miterlimit="10" stroke-width="0.5"/>
              <g id="Grupo_6117" data-name="Grupo 6117" transform="translate(459.561 228.275)" style="isolation: isolate">
                <path id="Trazado_3825" data-name="Trazado 3825" d="M313.9,204.761l.854-.392L316,202.04l.2-1.071,3.636-.331,3.1.463,1.808-.275,4.731.723,3.217-5.165.4-3.042-.638-2.194.523-3.636v-2.342l-1.746-2.631-1-3.088,2.015-5.665-.415-1.888-.219-.094a21.86,21.86,0,0,0-3.25-1.117,31.212,31.212,0,0,0-4.581-.288l-4.2.963-7.573-.267-1.881-2.027-1.962-.46-.073.006a2.321,2.321,0,0,1-1.579-.61l-.61-.55-.363,1.979-.1,3.34-.4,2.773-1.748,1.675-2.094,1.044-1.185,2.246L299.9,184.3l.94,2.323,2.923,2.138a21.654,21.654,0,0,1,2.346,2.686c.15.383.771,2.808,1.16,4.365l1.3,4.373,2.16,4.69Z" transform="translate(-299.901 -167.456)" fill="#aaa" stroke="#fff" stroke-miterlimit="10" stroke-width="0.5"/>
              </g>
              <path id="Trazado_3826" data-name="Trazado 3826" d="M326.466,201.657l2.231-1.827.115-.135c.008-.017.96-1.748,1.8-3.1.806-1.3,2.783-5.333,3.077-5.934l2.287-2.329,2.9-6.777-3.842-.944-1.942-1.925-3.927-5.217-4.925-1.315-.138.05a4.9,4.9,0,0,1-4.211-.773,18.441,18.441,0,0,0-3.127-1.7l-.827-.356.5,2.279-2.033,5.706,1.115,3.454,1.681,2.567,0,1.99-.546,3.769.64,2.208-.3,2.55-3.379,5.423.846.129a7.148,7.148,0,0,0,2.742,1.475,54.137,54.137,0,0,0,6.033,1.117l.058.006Z" transform="translate(174.519 62.896)" fill="#aaa" stroke="#fff" stroke-miterlimit="10" stroke-width="0.5"/>
              <g id="Grupo_6118" data-name="Grupo 6118" transform="translate(326.814 235.346)" style="isolation: isolate">
                <path id="Trazado_3827" data-name="Trazado 3827" d="M378.28,498.666a20.378,20.378,0,0,1,2.519-2.215c2.375-1.8,3.842-2.9,4.9-3.69,1.288-.965,1.965-1.471,2.931-2.229.879-.687,1.821-1.531,2.817-2.425s2.052-1.838,3.094-2.667a16.076,16.076,0,0,0,3.173-4.55,18.382,18.382,0,0,1,2.763-4.138,34.294,34.294,0,0,1,5-3.558c.944-.6,1.929-1.219,2.933-1.9,3.025-2.058,11.661-9.888,12.025-10.219l.081-.1c.113-.179,2.785-4.415,2.785-7.542a52.373,52.373,0,0,0-.8-7.511l-.054-.292-.281-.077c-.021,0-1.983-.571-2.2-1.79-.173-.979.8-2.263,2.825-3.7,3.321-2.375,5.05-3.442,6.081-4.079a8.3,8.3,0,0,0,2.129-1.623l.5-.535c1.408-1.529,4.71-5.115,5.913-5.69a2.619,2.619,0,0,1,1.4-.377,35.086,35.086,0,0,0,3.579-.408,17.768,17.768,0,0,1,3.39-.223,4.05,4.05,0,0,0,3.375-1.248c2.352-1.89,6.148-4.619,6.136-4.619h0l8.986-4.211c.823.087,5.2.54,7.267.54a6.832,6.832,0,0,1,2.019.486c1.823.619,4.09,1.39,6.306-1.048l1.181-1.308c1.981-2.2,2.977-3.3,4.133-3.967a1.957,1.957,0,0,1,1.025-.206c1.192-.023,2.106-.269,3.021-3.223.325-1.046.54-1.886.71-2.561a6.809,6.809,0,0,1,2.513-4.385,24.359,24.359,0,0,1,2.435-1.963,7.237,7.237,0,0,0,2.275-2.263,8.369,8.369,0,0,0,1.019-2.894,6.428,6.428,0,0,1,.736-2.192,16.559,16.559,0,0,1,2.986-2.89,16.183,16.183,0,0,0,1.771-1.6c.133-.163.287-.323.448-.494a5.736,5.736,0,0,0,1.894-4.346,10.057,10.057,0,0,0-.277-2.29,3.8,3.8,0,0,1,.385-3.133,12.289,12.289,0,0,1,3.244-3.85,9.756,9.756,0,0,0,2.023-2.61,38.138,38.138,0,0,0,1.76-4.275l1.973-3.961-.006-.123c-.3-6.354-.473-13.494-.223-14.184.486-.838,3.565-7.729,3.7-8.021l1.152-6.854.017-.1-.027-.1c-.008-.025-.658-2.477.825-3.01.408-.146.729-.267.987-.367.9-.338.9-.34,1.231-.194a1.787,1.787,0,0,1,.308.188c.627.433,1.308.752,2.808-.069,1.815-1,4.121-4.2,4.665-5.292l1.9-3.829,2.814-4.983c.515-.315,2.752-1.69,3.763-2.436,1.125-.831,3-2.575,3.129-2.708L552.5,296.687c1.188-1.19,5.075-5.167,5.242-6.463a6.256,6.256,0,0,0-.292-2.658c-.1-.4-.221-.883-.354-1.492-.523-2.415-.546-4-.067-4.729.1-.148.2-.292.3-.431a3.142,3.142,0,0,0,.711-3.133,28.3,28.3,0,0,0-2.409-4.588l-1.258-4.746-1.808-3.01-3.583-2.69-6.092-.425-.048.008a8.863,8.863,0,0,1-3.235.046c-.615-.319-2.856-2.01-3.723-2.677a49.005,49.005,0,0,1-4.39-6.084,39.243,39.243,0,0,0-4.858-6.279l-.135-.142H524.48l-3.7-1.594-2.34-1.3H505.286l-4.181-1.1-4.238-.269-7.275-2.925-5.257,1.754-1.069,1.577h-2.683l-1.44,1.706-1.106,1.552a13.963,13.963,0,0,1-2.548-.654c-.031-.167-.1-.39-.194-.731a6.1,6.1,0,0,1-.379-2.061,15.309,15.309,0,0,1,3.321-1.519l1.827-1.531-.11-.306s-.8-2.2-1.277-3.571-2.015-5.35-2.079-5.519l-.115-.3h-3.2l-1.333,1.148c-.9-.485-1.7-1.115-1.708-1.369,0-.977-1.319-2.288-1.581-2.54l-.092-.087-7.167-1.681-8.046-1.527-3.427.3-.119.123a13.823,13.823,0,0,0-1.821,2.152,55.568,55.568,0,0,1-4.969,3.563L441.4,232.4l-2.659.9-11.084,1.365-8.438-2.423-1.49-1.283h-3.658l1.944-3.236,2.521-2.719,2.181-4.45a6.362,6.362,0,0,1,2.052-3.048c1.581-1.088,3.633-2.448,3.631-2.45l5.473-2.963c.29-.029.379-.342.66-1.306a10.313,10.313,0,0,1,1.34-2.988,13,13,0,0,0,1.221-3.5l.067-.283-4.781-3.977-2.321-4.4a44.354,44.354,0,0,0-1.465-5.69c-.435-.877-2.988-6.2-3.442-7.142l.54-2.625-1.85-.454-2.7,6.4-2.279,2.321-.085.123c-.023.046-2.236,4.579-3.065,5.919-.746,1.2-1.579,2.7-1.777,3.061l-1.958,1.6-2.79.344a53.029,53.029,0,0,1-5.829-1.077,5.992,5.992,0,0,1-2.456-1.34l-.11-.119-5.019-.767-1.81.275-3.073-.456-4.456.4-.258,1.563-1.067,2-.312.163-5.309.192-3.833.917-3.533,1.748-4.744,1.363-3.811.267-4.083-1.144-2.74-2.361v-4.461a33.111,33.111,0,0,0-.431-3.825l-.617-4.527,1.346-2.6,1.523-4.875-.463-2.785-.062-.09c-.573-.8-1.233-1.792-1.3-1.927,0-.135,0-.417-1.356-2.46l-3.2-2.586-3.51-.146.16,2.188-.546,1.406-2.219,1.4c-1.754.579-6.39,2.021-7.625,2.021a17.678,17.678,0,0,0-4.465.99l-3.369,2.463-3.025.262h-2.456l-3.583-1.61-.188-.042a20.036,20.036,0,0,0-5.254.713l-.731.242.556.54c.106.1,2.592,2.508,3.413,3.075.081.056.14.094.185.127,0,.033-.006.071-.006.115a12.215,12.215,0,0,0,.265,3.031,15.553,15.553,0,0,1,.277,2.173l-.448-.385.663,4.771,1.154,1.656,3.3.146,2.223-.119.454,1.179a1.487,1.487,0,0,1-.556.694,8.171,8.171,0,0,1-1.223.621c-.331.148-.737.329-1.279.588-1.4.669-2.85,2.881-3.169,3.381-.6.367-4.013,2.444-6.765,4.067a26.605,26.605,0,0,1-6.608,2.569l-4.306,1.325-3.408-1.531-1.713-2.254-.36.248a16.175,16.175,0,0,1-1.623,1.04c-.335-.054-1.573-.362-2.794-.683.142-.542.377-1.433.519-1.921.285-.988-.554-3.01-.777-3.458-.3-.61-1.035-2.677-1.042-2.7l-.16-.452-1.613.631-1.29.908-1.408.227c-.775-.55-1.742-1.075-2.281-.727-.31.2-1.6.913-2.321,1.3-.588.017-3.331.09-3.711.09-.306,0-5.55.352-5.981.477-.206.06-.521.148-2.1,3.552l-.09.19.95,2.219h1.617l3.008.919.321.971-.092,2.052-.871.544c-.6.058-2.983.29-3.594.465a6.993,6.993,0,0,0-2,1.392l-.148.14v2.588l1.063,2.442.129.073a12.893,12.893,0,0,1,1.958,1.3c.14.24.573,1.427.8,2.085a19.306,19.306,0,0,1,.731,3.95c-.108.933-.108,2.467-.106,2.477l-1.59,13.8-2.286,10.877-1.188-1.021-.977,2.2-3.717-1.969-2.66-.775-4.89,2.529-5.044.95-4.761,2.181-2.638,7.973-.623,4.154-1.617,2.277-2.754,1.188-.163.117c-.371.419-2.213,2.567-2.031,3.819a32.332,32.332,0,0,0,1.465,4.919c.488,1.256,3.421,6.315,3.535,6.515l2.521,4.748.483,2.744.4,1.225,3.8.71,2.621,2.656c.025.023,2.538,2.46,3.148,3.252a1.161,1.161,0,0,0,.9.485,2.189,2.189,0,0,0,1.415-.75c.017-.019,1.6-1.921,2.373-2.725.4-.41,2.462-.6,4.188-.55a3.862,3.862,0,0,1,1.577,1.156,16.192,16.192,0,0,1-.331,3.3c-.006.1-.158,2.365-.158,3.333a2.581,2.581,0,0,0,.8,1.869l4.533,1.7,1.165,1,.89.017,2.877-.825h6.271l4.567-2.248.133-.1a7.143,7.143,0,0,1,1.888-1.527c.771-.265,1.867-.535,1.877-.54l.125-.029,2.94-2.956,2.356-2.033,1.523-1.05,3.494-.794,6.446-.129.119,1,.469,2.263a41.5,41.5,0,0,1,.008,4.7c-.163.846-.169,6.59-.169,7.242l1.821,4.088,1.831,3.156,3.808,1.713,7.877,1.26,6.7,3.09,2.311,3.048,1.392,2.1,5.027.721,2,.131.442.192,1.612,2.4.321,3.3,2.481,3.875a37.929,37.929,0,0,0-1.856,4.906c0,.423.669,5.284.806,6.273l.371,2.079,3.4.917,6.786.542,2.588,1.181c.556.456,1.856,1.763,1.856,2.9a11.485,11.485,0,0,0,.31,2.487,5.731,5.731,0,0,1,.169,1.09,8.525,8.525,0,0,0,.94,2.761c.148.329.283.625.371.848.256.665.608,1.4.752,1.7l-.931,7.1-1.158,4.711,1.646,3.261.254,1.319-2.529,2.179.021.24c.108,1.325.317,3.971.317,4.5v5.094l-1.369,2.225-.065.183c-.012.1-.323,2.379-.323,3.09a6.154,6.154,0,0,0,.692,2.142l.1.2,5.4,1.012,5.929.275h2.09c1.081.763,2.056,1.7,2.077,2.008a2.827,2.827,0,0,0,.246,1.1,2.65,2.65,0,0,1,.233,1.1v6.052l.4,1.6,3.565,1.227.137-.038a4.089,4.089,0,0,1,2.409.117c.617.267,1.344,3.219,1.635,5.761a9.956,9.956,0,0,1-.365,3.267c-.458.527-2.029,2.017-2.044,2.031l-.265.252,1.933,3.481,1.881,2.046.6,4.552-1.827,5.2-3.446,2.269-5.825,2.231-2.381,3.171-4.6,3.423-3.833,2.383-1.352,1.7-4.388,2.881-4.044,2.383-2.815,2.613.283,1.954,5.027,2.448,2.915,3.59,5.048,2.5,2.5,1.256c2.348,2.111,4.967,4.694,5.133,5.219.15.648,2.89,3.585,8.144,8.727l.333.327Z" transform="translate(-236.184 -170.85)" fill="#aaa" stroke="#fff" stroke-miterlimit="10" stroke-width="0.5"/>
                <path id="Trazado_3828" data-name="Trazado 3828" d="M253.341,186.027Z" transform="translate(-217.596 -154.407)" fill="#aaa" stroke="#fff" stroke-miterlimit="10" stroke-width="0.5"/>
              </g>
              <path id="Trazado_3829" data-name="Trazado 3829" d="M268.814,345.1l4.469-3.713,2.123-3.733,1.675-.963.717.077v.681c0,.179,0,.656,1.952,2.033l.1.067,3.742.421,1.867.619.51.862.846,2.481,2.258,1.621,1.681-.8L293.9,342.2l1.94-1.8,6.921.135.077-.025c.425-.148,2.565-.915,3.1-1.688.452-.65,2.013-2.265,2.027-2.281l1.075-3.1.769-3.081,1.254-2.7,4.859-5.94,1.265-.727,3.717-.133,7.256-2.477,3.856-.138,2.477.258,2.283.656,5.731,5.644,2.838-2.444-.371-1.919-1.56-3.131,1.085-4.421.975-7.434-.063-.127c0-.01-.473-.952-.781-1.75-.092-.235-.233-.55-.392-.9a9.005,9.005,0,0,1-.854-2.369,6.367,6.367,0,0,0-.19-1.285,10.515,10.515,0,0,1-.29-2.292c0-1.856-2.161-3.594-2.252-3.667l-2.811-1.3-6.936-.573-2.75-.748-.265-1.479c-.3-2.2-.79-5.809-.8-6.094.05-.335,1-2.7,1.881-4.8l.1-.229-2.627-4.1-.321-3.306-1.9-2.825-.765-.329-2.192-.171-4.586-.658-1.179-1.775-2.465-3.258-6.973-3.213-7.884-1.263-3.479-1.565-1.66-2.856-1.715-3.759c0-2.529.042-6.4.15-6.961a43.354,43.354,0,0,0,0-5l-.471-2.3-.21-1.8-7.375.154-3.673.825-1.8,1.2-2.421,2.088-2.785,2.8c-.317.081-1.169.3-1.829.529a7.684,7.684,0,0,0-2.2,1.71l-4.3,2.117H258.3l-2.931.825-1.883-.042,2.544,2.194,1.713,2.817,3.554,6.123-1.321,3.038L257.5,263.5l.821,4.779.156,4.158-1.692,3.971-2.467,3.115.177,3.638,2.923,3.484,2.548,4.644-1.456,1.485-5.65,2.779-1.869,3.356.781,1.387v6.342l1.335,4.523,2.45,2.25,1.473,2.158-.3,3.892-.965,4.158a16.439,16.439,0,0,0-.306,3.781c.165.569,1.521,3.154,1.765,3.606l1.575,4.317,1.273,7.625v2.771l2.817,1.367,3.227.046Z" transform="translate(106.668 131.516)" fill="#aaa" stroke="#fff" stroke-miterlimit="10" stroke-width="0.5"/>
              <path id="Trazado_3830" data-name="Trazado 3830" d="M317.7,341.653c5.648-.144,5.965-.554,6.1-.729.254-.327,1.915-2.177,2.527-2.856l3.323-3.548,3.833-3.438,1.979-4.44,3.15-2.137-.385-.7c.479-.458,1.471-1.417,1.842-1.844.538-.617.6-2.923.592-3.94-.156-1.385-.779-5.957-2.194-6.567a4.94,4.94,0,0,0-2.873-.194l-2.831-.975-.242-.937v-5.992a3.573,3.573,0,0,0-.3-1.44,1.96,1.96,0,0,1-.181-.76c0-.969-1.815-2.325-2.6-2.862l-.119-.081-2.356,0-5.844-.269-4.883-.921a4.758,4.758,0,0,1-.488-1.508c0-.513.206-2.156.3-2.865l1.456-2.367v-5.361c0-.6-.231-3.477-.3-4.338l.452-.388-5.963-5.869-2.585-.738-2.619-.277-3.992.137-7.254,2.479-3.877.14-1.535.881-5.077,6.161-1.371,2.933-.787,3.131-.925,2.788a29.62,29.62,0,0,0-2.05,2.319,7.745,7.745,0,0,1-2.567,1.313l-2.473-.048,1.36,2.423,5.588,8.665,6.5,4.933,8.54,3.35,7.954,3.835,4.733,2.719,3.136,3.215-.4,1.94-5.658,5.013-4.471,4.677-1.017,2.842L304.1,341.5l7.3.84.052.006Z" transform="translate(132.23 175.509)" fill="#aaa" stroke="#fff" stroke-miterlimit="10" stroke-width="0.5"/>
              <path id="Trazado_3831" data-name="Trazado 3831" d="M315.521,354.166a14.1,14.1,0,0,1,2.581-1.558c1.123-.544,1.933-.938,4.2-3.6a22.959,22.959,0,0,0,2.8-4.179,16.3,16.3,0,0,1,2.588-3.717l.319-.338-.331-.323c-4.5-4.4-7.671-7.738-7.888-8.271-.223-.956-3.9-4.336-5.465-5.744l-7.467-3.694-2.915-3.59-4.833-2.4-.067-.471-4.652.831-1.358,4.483-1.7,4.952-1.277,3.944-.023,5.111-1.3,3.867-3.6,1.731-1.346,3-.923,5.181,1.69,2.123.229-.008a12.11,12.11,0,0,1,2.888.415c2.375.546,7.311,1.5,7.34,1.51.3.073,7.423,1.8,9.529,1.8a16.865,16.865,0,0,1,1.817.169,29.7,29.7,0,0,0,3.65.287A9.121,9.121,0,0,0,315.521,354.166Z" transform="translate(141.213 222.053)" fill="#aaa" stroke="#fff" stroke-miterlimit="10" stroke-width="0.5"/>
              <path id="Trazado_3832" data-name="Trazado 3832" d="M241.951,525.77l.231-.319c.2-.29.279-.4,1.385-.838a10.189,10.189,0,0,1,1.5-.461c.96-.231,1.5-.425,1.5-1.763a6.66,6.66,0,0,0-.827-2.856,8.216,8.216,0,0,1-.469-1.127c-.11-.383-.221-.671-.315-.91a1.364,1.364,0,0,1-.167-.888,10.348,10.348,0,0,1,2.106-1.487,21.274,21.274,0,0,0,2.542-1.729,10.084,10.084,0,0,0,.91-.856,18.816,18.816,0,0,1,2.423-2.017c2.8-2.158,3.767-6.009,3.967-6.959.431-.262,1.729-1.027,4.1-2.21a3.5,3.5,0,0,1,2.054-.425c1.225.058,2.381.108,6.352-3.5,5.871-5.331,6.575-6.215,6.6-6.25l.327-.423-4.852-2.838-5.642-7.29c-.106-.367-.542-2.119.54-3.152,1.256-1.2,3.154-2.744,3.565-3.075l9.132-2.209,5.138-5.425.967-4.992L288,457.331a5.121,5.121,0,0,1,3.619-2.011,12.006,12.006,0,0,1,1.661.108,1.714,1.714,0,0,0,1.858-.656c1.029-1.033,1.656-4.154,1.725-4.506l.052-.269-.206-.177a4.349,4.349,0,0,0-2.215-1.073c-.915,0-.992.042-2.294.742a10.3,10.3,0,0,1-2.548.877c-.792-.6-1.461-1.358-1.413-1.613a2.526,2.526,0,0,1,.806-1.177,4.593,4.593,0,0,0,.381-.413,1.62,1.62,0,0,1,.142-.148c.415-.4.713-.84.429-2.425a18.2,18.2,0,0,1,.54-5.169l4.117.613a17.82,17.82,0,0,0,2.4,1.231c.823.283,5.19.79,5.686.848l.15.017.131-.075a25.475,25.475,0,0,0,2.625-1.7c.135-.117.31-.26.508-.423a22.539,22.539,0,0,0,2.573-2.375c.388-.446.673-.8.956-1.156.427-.538.833-1.046,1.588-1.858.387-.415.858-.827,1.315-1.225,1.1-.961,2.146-1.869,2-2.877a23.783,23.783,0,0,0-1.652-4.231l.983-.952.935-.46,5.458.537.05,0,.052-.006c.354-.046,8.706-1.117,11.281-2.088a20.944,20.944,0,0,1,4.64-.781c2.09-.208,4.065-.4,5.167-1.04.308-.177.606-.34.894-.5a12.4,12.4,0,0,0,4.348-3.467A13.318,13.318,0,0,0,348.281,415a4.534,4.534,0,0,1,1.7-2.117,14.665,14.665,0,0,1,1.756-.956,7.534,7.534,0,0,0,1.465-.85,35.329,35.329,0,0,0,3.144-2.869,2.711,2.711,0,0,0,.367-2.219,6.959,6.959,0,0,0-1.348-1.913c-.336-.417-1.242-1.79-1.029-2.613a10.875,10.875,0,0,1,.944-2.3,8.451,8.451,0,0,0,.654-3.156c-.169-.729-2.967-3.227-4.6-4.629l-2.642-2.617.944-.3c.012,0,.056-.006.14-.008l.929-.027-1.865-2.344.8-4.592,1.185-2.633,3.642-1.754,1.448-4.315.023-5.119,1.252-3.863,1.708-4.969,1.2-3.946,4.067-.725-.208-1.433,2.338-2.183,4.021-2.371,4.471-2.933,1.34-1.69,3.792-2.361,4.685-3.485,2.354-3.1,5.623-2.154,3.84-2.517,2.006-5.711-.673-5.073-1.979-2.133-1.621-2.915-3.436,2.331-1.929,4.431-3.786,3.4-3.358,3.583c-.09.1-2.081,2.306-2.531,2.854a34.108,34.108,0,0,1-5.481.433l-6.175.683-7.017-.806-2.494-1.79.652-1.911,4.371-4.575,5.867-5.194.558-2.735-3.525-3.617-4.921-2.846-8.017-3.865-8.4-3.277-6.271-4.727-5.529-8.571-1.073-1.917-5.731-.113-2.192,2.033-2.99,2.44-1.142.548-1.575-1.131-.788-2.279-.727-1.252-2.242-.744-3.648-.421a7.809,7.809,0,0,1-1.463-1.262v-1.456l-1.84-.2-2.156,1.238-2.1,3.752-4.385,3.644-2.433,1.833h-.333l-.6,3.808-.594,2.823-6.85,4.023-3.083,3.506-.348,2.99,1.271,4.377-1.235,5.588-1.971,3.4.038.177a34.313,34.313,0,0,1,.629,3.754v.631l-1.725,1.733-2.167,1.067-3.69,4.552-3.836,5.508-3.542,5.279-1.877,3.771c-.381.342-1.529,1.471-1.294,2.471.081.348.365.81,1.238,1.025A3.93,3.93,0,0,1,268.8,354.7v1.531l.027.154c.01.037.079.323-.375.619a.564.564,0,0,0-.065-.071c-.317-.294-.317-.29-1.66.867a23.46,23.46,0,0,0-3.919,4.5l-.069.1-.327,5.952.646,4.175.021.288.285.081c.008,0,.8.356,1.629,2.74.906,2.6-.008,7.688-.021,7.763l-.31,2.41-.91,2.09-2.867,3.844-3.5,5.763-4.188,6.392-2.217,4.919-3.252,5.884v3.825l.956,1.65v2.806l-1.519,3.685-2.792,4.277a2.512,2.512,0,0,0-1.417,1.627.748.748,0,0,1-.327.444c-.5.4-.869.863-.648,2.769a15.706,15.706,0,0,1,0,4.3l-.471,4.473-1.4,3.487-1.117,2.338-.185,1.129-1.215,1.792,1.2,2.36.152,2.6-.45,2.89-.854,2.354,1.01,3.044.773.869v1.048l-3.24,1.862-.063.127a6.045,6.045,0,0,0-.523,2.494l.308,1.715a6.287,6.287,0,0,1-.569,1.954,5.984,5.984,0,0,1-.773.973,4.554,4.554,0,0,0-.844,1.127,21.589,21.589,0,0,0-.365,4.773l.154,2.094-3.608,9.2-1.385,2.521-1.852,1.331-2.883,2.337-.163,6.467L223,509.166l-.023.1c-.021.181-.481,4.452.865,6.629a12.526,12.526,0,0,1,1.208,2.229v.19l4.921,5.088,1.923,1,1.69,2.765Z" transform="translate(76.223 185.088)" fill="#aaa" stroke="#fff" stroke-miterlimit="10" stroke-width="0.5"/>
              <path id="Trazado_3833" data-name="Trazado 3833" d="M244.511,318.2Z" transform="translate(99.651 224.132)" fill="#aaa" stroke="#fff" stroke-miterlimit="10" stroke-width="0.5"/>
              <path id="Trazado_3836" data-name="Trazado 3836" d="M244.359,563.4c.033,0,3.425-.521,6.171-.662l.654-.033-.856-2.092-.933-6.425,2.546-6.692-.3-.208c-.513-.35-.888-.571-.888-.571l-.127-.075-.148.012a7.382,7.382,0,0,1-2.408-.085,2.146,2.146,0,0,1,.2-.194,6.49,6.49,0,0,0,1.079-1.117l.685-.929-8.7,1.452-1.5-2.458-1.965-.988-4.644-4.8a12.977,12.977,0,0,0-1.306-2.49c-1.1-1.783-.786-5.49-.738-5.975l.621-1.733.181-6.256,2.525-2.05,1.917-1.375,1.6-2.823,3.713-9.452-.167-2.273a22.677,22.677,0,0,1,.277-4.342,3.884,3.884,0,0,1,.683-.89,6.656,6.656,0,0,0,.892-1.135,7.454,7.454,0,0,0,.7-2.383l.006-.069-.323-1.773a5.434,5.434,0,0,1,.371-1.869l3.461-1.988v-1.975l-.856-.883-.873-2.633.767-2.134.485-3.075-.162-2.8-1.042-2.14,1.023-1.511.165-1.138,1.1-2.3,1.438-3.575.5-4.625a16.131,16.131,0,0,0,.006-4.548c-.179-1.54.056-1.725.3-1.925a1.66,1.66,0,0,0,.637-.915,1.579,1.579,0,0,1,.96-1.058l.165-.046,3.011-4.623,1.6-3.852.035-3.333-.958-1.65V434.59l3.154-5.706,2.2-4.886,4.158-6.342,3.488-5.742,2.875-3.85,1.013-2.294.35-2.579c.04-.219.969-5.382-.019-8.219-.74-2.123-1.508-2.9-1.931-3.175l-.6-3.846.31-5.6a22.9,22.9,0,0,1,3.677-4.2c.163-.14.3-.265.429-.371a1.049,1.049,0,0,0,.731-.106c1.242-.535,1.363-1.411,1.237-1.877V374.22l-.042-.2a4.631,4.631,0,0,0-3.186-2.181c-.152-.037-.512-.146-.556-.333-.087-.371.565-1.173,1.067-1.608l2-3.944,3.508-5.221,3.813-5.477,3.448-4.321,2.144-1.054,2.175-2.152v-1.019a31.417,31.417,0,0,0-.612-3.771l1.827-3.146,1.354-6.029-1.283-4.425.292-2.513,2.727-3.133,7.14-4.192.685-3.254.629-3.979h-3.217l-2.2-1.065-.006-2.26-1.3-7.786-1.623-4.461c-.608-1.154-1.615-3.121-1.721-3.485a18.949,18.949,0,0,1,.325-3.34l.969-4.2.333-4.292-1.692-2.475-2.369-2.194-1.221-4.075v-6.519l-1.177-2.09-.646,1.16-.677,3.779-1.2,2.063-3.863,3.46-2.644.835-.01.331c-.038,1.179-.083,3.421.029,5.194.158,2.431.16,4.763.163,4.825l.471,5.688-2.21,7.342-.019.121c-.006.221-.16,5.388-.16,6.754,0,1.29-.456,4.367-1.2,5.521-.16.248-.358.519-.571.8-.894,1.215-2.006,2.725-1.56,4.261a25.087,25.087,0,0,0,.844,2.423c.121.308.217.55.269.727a35.694,35.694,0,0,1-.635,4.825l-1.944,4.05.485,5.169-.3,2.552-2.25,2.494-.158,5.469-.925,5.315-3.981,2.881-.829,3.719-3.283,11.175.252.2c.012.01,1.388,1.1,1.258,2.331a19.333,19.333,0,0,1-1.973,4.688l-2.756,2.1-.044.15c-.027.092-.658,2.331-.5,7.573a82.483,82.483,0,0,0,1.467,11.7,6.366,6.366,0,0,1-.45,4.838c-1.421,2.585-3.154,5.711-3.15,5.713-9.682,12.232-9.682,12.75-9.682,12.946a12.523,12.523,0,0,1-.119,2.563c-.158.3-1.873,2.344-3.438,4.144l-.106.119-.008.16a7.367,7.367,0,0,1-.675,3.01,3.8,3.8,0,0,1-1.333.615,3.363,3.363,0,0,0-1.742.95c-.477.685-.542,1.325-.758,3.438l-.121,1.183a42.305,42.305,0,0,0-.183,5.677c.013.583.021,1.173.021,1.8a9.426,9.426,0,0,0,1.39,4.317,4.885,4.885,0,0,1,.527,1.183,21.6,21.6,0,0,1-2.008,4.3l-4.563,7.577.031.177c.313,1.719.94,4.669,1.642,5.123a27.771,27.771,0,0,0,3.99,1.394l2.45,2.733-1.5,5.048-3.031,6.6-1.031,6.531.742.852a9.318,9.318,0,0,0-2.246,1.794c-.329.567-.8,1.654-.823,1.7l-.04,2.769-2.385,2.877-.317,5.221-.7.8c-.821-.083-2.427-.446-2.715-1.436-.479-1.646-1.408-4.188-1.448-4.294l-.129-.358-4.067.638-1.333,1.721c-.913.515-2.846,1.7-3.023,2.613a1.726,1.726,0,0,0,.331,1.548,1.407,1.407,0,0,0,1.306.379,15.385,15.385,0,0,0,3-1.067,4.624,4.624,0,0,1,2.006,1.179,18.137,18.137,0,0,0,2.5,2.215l-3.723,3.463-.163,4.56c-.848.933-3.038,3.442-3.038,4.454,0,.41-.935.967-1.652,1.227l-1.667.8-.552,4.286,2.15,1.177,2.942-.14,1.183.254-1.967,2.9.835,3.063.487-.208c.01,0,.963-.415,2.523-.95a9.779,9.779,0,0,0,1.3-.594c.181-.1.408-.213.575-.281a4.211,4.211,0,0,1-.083.463c-.327,1.406-1.76,3.019-2.615,3.983a6.717,6.717,0,0,0-.688.838c-.348.6-.087,3.031.1,4.427l.019.137.09.1c.079.094,1.979,2.294,3.852,1.65a27.882,27.882,0,0,0,3.083-1.315,1.98,1.98,0,0,1,1,.644.155.155,0,0,1-.01.152c-.271.444-2.844,1.733-4.381,2.5-2.763,1.381-3.015,1.548-3.015,1.977a23.421,23.421,0,0,0,.983,3.317l.062.181,4.5,2.217,1.048,2.144a2.475,2.475,0,0,0-.765,1.463,2.165,2.165,0,0,0,.685,1.731c1.565,1.648,6.065,3.321,6.434,3.425.471.138,7.586,2.317,7.659,2.338l.1.031Z" transform="translate(68.943 165.446)" fill="#aaa" stroke="#fff" stroke-miterlimit="10" stroke-width="0.5"/>
              <path id="Trazado_3837" data-name="Trazado 3837" d="M244.511,318.2Z" transform="translate(99.651 224.132)" fill="#aaa" stroke="#fff" stroke-miterlimit="10" stroke-width="0.5"/>
              <path id="Trazado_3838" data-name="Trazado 3838" d="M594.625,569.366c194.334-27.179,268.841,152.4,268.841,152.4" transform="translate(-485.524 -340.17)" fill="none" stroke="#7200a6" stroke-linecap="round" stroke-width="2" stroke-dasharray="15 10"/>
              <path id="Trazado_3839" data-name="Trazado 3839" d="M580.288,657.725s54.758-161.143,248.873-149.984" transform="translate(-173.476 -214.242)" fill="none" stroke="#e4002b" stroke-width="2" stroke-dasharray="15"/>
              <path id="Trazado_3840" data-name="Trazado 3840" d="M878.4,704.172s6.08-201.294,141.713-247.65" transform="translate(-486.812 -276.816)" fill="none" stroke="#e4002b" stroke-width="2" stroke-dasharray="15"/>
              <path id="Trazado_3841" data-name="Trazado 3841" d="M635.448,759.494s93.458-6.243,172.3,100.306" transform="translate(-192.999 -265.509)" fill="none" stroke="#e4002b" stroke-width="2" stroke-dasharray="15"/>
            </g>
          </g>
        </g>
        <g id="Grupo_6227" data-name="Grupo 6227" transform="translate(3.025 177.555) rotate(-11)">
          <path id="Trazado_3660" data-name="Trazado 3660" d="M76.452,19.657l-.223-1.269-1.345.236,1.06-.185-.31-1.761.063-.012a.156.156,0,0,0,.126-.18l-.258-1.471a.155.155,0,0,0-.18-.127l-.428.075-.024-.139a.239.239,0,0,0-.019-.06l.424-.075a.179.179,0,0,0,.146-.208l-.134-.767a.18.18,0,0,0-.209-.146l.3-.053a.312.312,0,0,0,.253-.362L74.627,7.078l-.106-.6L74.193,4.6a.314.314,0,0,0-.363-.253l-.145.025a.459.459,0,0,0,.374-.532l-.224-1.279a.461.461,0,0,0-.533-.373.46.46,0,0,0,.373-.533L73.45.38a.46.46,0,0,0-.532-.373L69.283.646a.46.46,0,0,0-.374.532l.225,1.279a.46.46,0,0,0,.533.373.459.459,0,0,0-.374.532l.225,1.279a.46.46,0,0,0,.533.373L69.9,5.04a.311.311,0,0,0-.253.362l.256,1.457L51.592,26.241H20.5a28.537,28.537,0,0,0-5.628-7.312A10.876,10.876,0,0,0,4.636,20.348l-.555-.5a.474.474,0,0,0-.668.032L.979,22.554a.472.472,0,0,0,.032.667l.46.419A14.48,14.48,0,0,0,0,26.241H2.13A8.666,8.666,0,0,0,18.018,32.7H57.894l5.466-3.76V26.59a.348.348,0,0,0-.349-.349h-4.9L70.929,12.677l.224,1.273a.313.313,0,0,0,.363.255l.244-.043a.179.179,0,0,0-.146.208l.135.767a.179.179,0,0,0,.208.146l1.465-.257a.192.192,0,0,0,0,.06l.025.143-.4.069a.155.155,0,0,0-.126.18l.258,1.472a.156.156,0,0,0,.181.126l.151-.027.309,1.761-.286.05.213,1.211a8.67,8.67,0,1,0,2.7-.414ZM10.217,31.585a3.014,3.014,0,1,1,3.015-3.014A3.014,3.014,0,0,1,10.217,31.585Zm66.143.047a3.015,3.015,0,1,1,3.014-3.015A3.015,3.015,0,0,1,76.36,31.632Z" transform="translate(0 42.88)" fill="url(#linear-gradient-2)"/>
          <rect id="Rectngulo_801" data-name="Rectngulo 801" width="4.611" height="2.218" rx="0.399" transform="translate(68.445 41.422) rotate(-9.963)" fill="url(#linear-gradient-3)"/>
          <path id="Trazado_3661" data-name="Trazado 3661" d="M.776,7.763l.028,0L6.718,41.419l4.542-.8,0-.016.024.013L8.317,23.875,5.423,7.4l.017,0-.082-.377c.071.015.142.028.214.036a2.251,2.251,0,0,0,.34.013,1.217,1.217,0,0,0,.261.059,1.31,1.31,0,0,0,1.359-.786,2.293,2.293,0,0,0,.51-.844h0a1.93,1.93,0,0,1,1.8.644l2.733.524a.6.6,0,1,0,.109-.807l-1.9-.824s-.353-.448-.553-.472-1.378-.366-1.378-.366l.023-.2.8.094.047-.4.764-.06a.5.5,0,1,0,.355-.812l0-.01-2.4-.286a12.577,12.577,0,0,0-1.642-.45L5.834.585,5.409.737A1.442,1.442,0,0,0,3.655.123a1.151,1.151,0,0,0-.591,1.555.628.628,0,0,0,.377.248s.224.5.359.883L.483,3.53a.613.613,0,0,0-.469.728Z" transform="translate(61.728 0)" fill="url(#linear-gradient-4)"/>
        </g>
        <g id="Grupo_6228" data-name="Grupo 6228" transform="translate(540.585 103.454)">
          <path id="Trazado_3660-2" data-name="Trazado 3660" d="M76.452,19.657l-.223-1.269-1.345.236,1.06-.185-.31-1.761.063-.012a.156.156,0,0,0,.126-.18l-.258-1.471a.155.155,0,0,0-.18-.127l-.428.075-.024-.139a.239.239,0,0,0-.019-.06l.424-.075a.179.179,0,0,0,.146-.208l-.134-.767a.18.18,0,0,0-.209-.146l.3-.053a.312.312,0,0,0,.253-.362L74.627,7.078l-.106-.6L74.193,4.6a.314.314,0,0,0-.363-.253l-.145.025a.459.459,0,0,0,.374-.532l-.224-1.279a.461.461,0,0,0-.533-.373.46.46,0,0,0,.373-.533L73.45.38a.46.46,0,0,0-.532-.373L69.283.646a.46.46,0,0,0-.374.532l.225,1.279a.46.46,0,0,0,.533.373.459.459,0,0,0-.374.532l.225,1.279a.46.46,0,0,0,.533.373L69.9,5.04a.311.311,0,0,0-.253.362l.256,1.457L51.592,26.241H20.5a28.537,28.537,0,0,0-5.628-7.312A10.876,10.876,0,0,0,4.636,20.348l-.555-.5a.474.474,0,0,0-.668.032L.979,22.554a.472.472,0,0,0,.032.667l.46.419A14.48,14.48,0,0,0,0,26.241H2.13A8.666,8.666,0,0,0,18.018,32.7H57.894l5.466-3.76V26.59a.348.348,0,0,0-.349-.349h-4.9L70.929,12.677l.224,1.273a.313.313,0,0,0,.363.255l.244-.043a.179.179,0,0,0-.146.208l.135.767a.179.179,0,0,0,.208.146l1.465-.257a.192.192,0,0,0,0,.06l.025.143-.4.069a.155.155,0,0,0-.126.18l.258,1.472a.156.156,0,0,0,.181.126l.151-.027.309,1.761-.286.05.213,1.211a8.67,8.67,0,1,0,2.7-.414ZM10.217,31.585a3.014,3.014,0,1,1,3.015-3.014A3.014,3.014,0,0,1,10.217,31.585Zm66.143.047a3.015,3.015,0,1,1,3.014-3.015A3.015,3.015,0,0,1,76.36,31.632Z" transform="translate(0 42.88)" fill="url(#linear-gradient-2)"/>
          <rect id="Rectngulo_801-2" data-name="Rectngulo 801" width="4.611" height="2.218" rx="0.399" transform="translate(68.445 41.422) rotate(-9.963)" fill="url(#linear-gradient-3)"/>
          <path id="Trazado_3661-2" data-name="Trazado 3661" d="M.776,7.763l.028,0L6.718,41.419l4.542-.8,0-.016.024.013L8.317,23.875,5.423,7.4l.017,0-.082-.377c.071.015.142.028.214.036a2.251,2.251,0,0,0,.34.013,1.217,1.217,0,0,0,.261.059,1.31,1.31,0,0,0,1.359-.786,2.293,2.293,0,0,0,.51-.844h0a1.93,1.93,0,0,1,1.8.644l2.733.524a.6.6,0,1,0,.109-.807l-1.9-.824s-.353-.448-.553-.472-1.378-.366-1.378-.366l.023-.2.8.094.047-.4.764-.06a.5.5,0,1,0,.355-.812l0-.01-2.4-.286a12.577,12.577,0,0,0-1.642-.45L5.834.585,5.409.737A1.442,1.442,0,0,0,3.655.123a1.151,1.151,0,0,0-.591,1.555.628.628,0,0,0,.377.248s.224.5.359.883L.483,3.53a.613.613,0,0,0-.469.728Z" transform="translate(61.728 0)" fill="url(#linear-gradient-4)"/>
        </g>
        <circle id="Elipse_78" data-name="Elipse 78" cx="2.938" cy="2.938" r="2.938" transform="translate(374.43 377.219)" fill="#7200a6"/>
        <circle id="Elipse_79" data-name="Elipse 79" cx="2.938" cy="2.938" r="2.938" transform="translate(388.385 424.222)" fill="#e4002b"/>
        <g id="Grupo_6225" data-name="Grupo 6225" transform="translate(655.684 223.771) rotate(-1)">
          <path id="Trazado_3660-3" data-name="Trazado 3660" d="M76.452,19.657l-.223-1.269-1.345.236,1.06-.185-.31-1.761.063-.012a.156.156,0,0,0,.126-.18l-.258-1.471a.155.155,0,0,0-.18-.127l-.428.075-.024-.139a.239.239,0,0,0-.019-.06l.424-.075a.179.179,0,0,0,.146-.208l-.134-.767a.18.18,0,0,0-.209-.146l.3-.053a.312.312,0,0,0,.253-.362L74.627,7.078l-.106-.6L74.193,4.6a.314.314,0,0,0-.363-.253l-.145.025a.459.459,0,0,0,.374-.532l-.224-1.279a.461.461,0,0,0-.533-.373.46.46,0,0,0,.373-.533L73.45.38a.46.46,0,0,0-.532-.373L69.283.646a.46.46,0,0,0-.374.532l.225,1.279a.46.46,0,0,0,.533.373.459.459,0,0,0-.374.532l.225,1.279a.46.46,0,0,0,.533.373L69.9,5.04a.311.311,0,0,0-.253.362l.256,1.457L51.592,26.241H20.5a28.537,28.537,0,0,0-5.628-7.312A10.876,10.876,0,0,0,4.636,20.348l-.555-.5a.474.474,0,0,0-.668.032L.979,22.554a.472.472,0,0,0,.032.667l.46.419A14.48,14.48,0,0,0,0,26.241H2.13A8.666,8.666,0,0,0,18.018,32.7H57.894l5.466-3.76V26.59a.348.348,0,0,0-.349-.349h-4.9L70.929,12.677l.224,1.273a.313.313,0,0,0,.363.255l.244-.043a.179.179,0,0,0-.146.208l.135.767a.179.179,0,0,0,.208.146l1.465-.257a.192.192,0,0,0,0,.06l.025.143-.4.069a.155.155,0,0,0-.126.18l.258,1.472a.156.156,0,0,0,.181.126l.151-.027.309,1.761-.286.05.213,1.211a8.67,8.67,0,1,0,2.7-.414ZM10.217,31.585a3.014,3.014,0,1,1,3.015-3.014A3.014,3.014,0,0,1,10.217,31.585Zm66.143.047a3.015,3.015,0,1,1,3.014-3.015A3.015,3.015,0,0,1,76.36,31.632Z" transform="translate(0 42.88)" fill="url(#linear-gradient-2)"/>
          <rect id="Rectngulo_801-3" data-name="Rectngulo 801" width="4.611" height="2.218" rx="0.399" transform="translate(68.445 41.422) rotate(-9.963)" fill="url(#linear-gradient-3)"/>
          <path id="Trazado_3661-3" data-name="Trazado 3661" d="M.776,7.763l.028,0L6.718,41.419l4.542-.8,0-.016.024.013L8.317,23.875,5.423,7.4l.017,0-.082-.377c.071.015.142.028.214.036a2.251,2.251,0,0,0,.34.013,1.217,1.217,0,0,0,.261.059,1.31,1.31,0,0,0,1.359-.786,2.293,2.293,0,0,0,.51-.844h0a1.93,1.93,0,0,1,1.8.644l2.733.524a.6.6,0,1,0,.109-.807l-1.9-.824s-.353-.448-.553-.472-1.378-.366-1.378-.366l.023-.2.8.094.047-.4.764-.06a.5.5,0,1,0,.355-.812l0-.01-2.4-.286a12.577,12.577,0,0,0-1.642-.45L5.834.585,5.409.737A1.442,1.442,0,0,0,3.655.123a1.151,1.151,0,0,0-.591,1.555.628.628,0,0,0,.377.248s.224.5.359.883L.483,3.53a.613.613,0,0,0-.469.728Z" transform="translate(61.728 0)" fill="url(#linear-gradient-4)"/>
        </g>
        <g id="Grupo_6226" data-name="Grupo 6226" transform="translate(617.653 540.355)">
          <path id="Trazado_3660-4" data-name="Trazado 3660" d="M76.452,19.657l-.223-1.269-1.345.236,1.06-.185-.31-1.761.063-.012a.156.156,0,0,0,.126-.18l-.258-1.471a.155.155,0,0,0-.18-.127l-.428.075-.024-.139a.239.239,0,0,0-.019-.06l.424-.075a.179.179,0,0,0,.146-.208l-.134-.767a.18.18,0,0,0-.209-.146l.3-.053a.312.312,0,0,0,.253-.362L74.627,7.078l-.106-.6L74.193,4.6a.314.314,0,0,0-.363-.253l-.145.025a.459.459,0,0,0,.374-.532l-.224-1.279a.461.461,0,0,0-.533-.373.46.46,0,0,0,.373-.533L73.45.38a.46.46,0,0,0-.532-.373L69.283.646a.46.46,0,0,0-.374.532l.225,1.279a.46.46,0,0,0,.533.373.459.459,0,0,0-.374.532l.225,1.279a.46.46,0,0,0,.533.373L69.9,5.04a.311.311,0,0,0-.253.362l.256,1.457L51.592,26.241H20.5a28.537,28.537,0,0,0-5.628-7.312A10.876,10.876,0,0,0,4.636,20.348l-.555-.5a.474.474,0,0,0-.668.032L.979,22.554a.472.472,0,0,0,.032.667l.46.419A14.48,14.48,0,0,0,0,26.241H2.13A8.666,8.666,0,0,0,18.018,32.7H57.894l5.466-3.76V26.59a.348.348,0,0,0-.349-.349h-4.9L70.929,12.677l.224,1.273a.313.313,0,0,0,.363.255l.244-.043a.179.179,0,0,0-.146.208l.135.767a.179.179,0,0,0,.208.146l1.465-.257a.192.192,0,0,0,0,.06l.025.143-.4.069a.155.155,0,0,0-.126.18l.258,1.472a.156.156,0,0,0,.181.126l.151-.027.309,1.761-.286.05.213,1.211a8.67,8.67,0,1,0,2.7-.414ZM10.217,31.585a3.014,3.014,0,1,1,3.015-3.014A3.014,3.014,0,0,1,10.217,31.585Zm66.143.047a3.015,3.015,0,1,1,3.014-3.015A3.015,3.015,0,0,1,76.36,31.632Z" transform="translate(0 42.88)" fill="url(#linear-gradient-2)"/>
          <rect id="Rectngulo_801-4" data-name="Rectngulo 801" width="4.611" height="2.218" rx="0.399" transform="translate(68.445 41.422) rotate(-9.963)" fill="url(#linear-gradient-3)"/>
          <path id="Trazado_3661-4" data-name="Trazado 3661" d="M.776,7.763l.028,0L6.718,41.419l4.542-.8,0-.016.024.013L8.317,23.875,5.423,7.4l.017,0-.082-.377c.071.015.142.028.214.036a2.251,2.251,0,0,0,.34.013,1.217,1.217,0,0,0,.261.059,1.31,1.31,0,0,0,1.359-.786,2.293,2.293,0,0,0,.51-.844h0a1.93,1.93,0,0,1,1.8.644l2.733.524a.6.6,0,1,0,.109-.807l-1.9-.824s-.353-.448-.553-.472-1.378-.366-1.378-.366l.023-.2.8.094.047-.4.764-.06a.5.5,0,1,0,.355-.812l0-.01-2.4-.286a12.577,12.577,0,0,0-1.642-.45L5.834.585,5.409.737A1.442,1.442,0,0,0,3.655.123a1.151,1.151,0,0,0-.591,1.555.628.628,0,0,0,.377.248s.224.5.359.883L.483,3.53a.613.613,0,0,0-.469.728Z" transform="translate(61.728 0)" fill="url(#linear-gradient-4)"/>
        </g>
        <circle id="Elipse_81" data-name="Elipse 81" cx="2.938" cy="2.938" r="2.938" transform="translate(404.542 438.911)" fill="#e4002b"/>
      </g>
    </g>
    <path id="Icon_material-person-pin-circle-2" data-name="Icon material-person-pin-circle" d="M32.779,3A25.306,25.306,0,0,0,7.5,28.279c0,18.959,25.279,46.946,25.279,46.946S58.057,47.237,58.057,28.279A25.306,25.306,0,0,0,32.779,3Zm0,7.222a7.222,7.222,0,1,1-7.222,7.222A7.244,7.244,0,0,1,32.779,10.222Zm0,36.112A17.271,17.271,0,0,1,18.334,38.57c.072-4.767,9.642-7.4,14.445-7.4s14.373,2.636,14.445,7.4A17.271,17.271,0,0,1,32.779,46.335Z" transform="translate(851.494 455.414)" fill="url(#linear-gradient)"/>
  </g>
</svg>
