<svg xmlns="http://www.w3.org/2000/svg" width="44.349" height="44.349" viewBox="0 0 44.349 44.349">
  <path id="Icon_simple-crunchbase" data-name="Icon simple-crunchbase" d="M39.914,0H4.435A4.453,4.453,0,0,0,0,4.435V39.914a4.453,4.453,0,0,0,4.435,4.435H39.914a4.453,4.453,0,0,0,4.435-4.435V4.435A4.453,4.453,0,0,0,39.914,0Zm-26.9,26.729A3.9,3.9,0,0,0,18.183,24.8H21.25a6.819,6.819,0,1,1,0-3.234H18.183a3.9,3.9,0,1,0-5.165,5.165Zm20.964,1.561a6.56,6.56,0,0,1-1.959,1.164,6.8,6.8,0,0,1-6.264-.7v.7h-2.79V9.923h2.772v7.595a6.911,6.911,0,0,1,3.326-1.164h.5a6.782,6.782,0,0,1,4.416,11.937ZM33.57,23.18a3.887,3.887,0,1,1-3.887-3.888A3.887,3.887,0,0,1,33.57,23.18Z" fill="#fff"/>
</svg>
