<svg xmlns="http://www.w3.org/2000/svg" width="36.089" height="24" viewBox="0 0 36.089 24">
  <g id="Grupo_7" data-name="Grupo 7" transform="translate(-1744.54 -71)">
    <path id="Icon_zocial-email" data-name="Icon zocial-email" d="M.072,25.942V6.194q0-.034.1-.651l11.8,9.943L.211,26.628a2.868,2.868,0,0,1-.139-.686ZM1.638,4.171a1.52,1.52,0,0,1,.592-.1H34a2,2,0,0,1,.626.1L22.8,14.148l-1.566,1.234-3.1,2.5-3.1-2.5L13.47,14.148Zm.035,23.794L13.54,16.754l4.594,3.669,4.594-3.669L34.595,27.965a1.693,1.693,0,0,1-.592.1H2.23a1.6,1.6,0,0,1-.557-.1Zm22.621-12.48L36.056,5.542a2.019,2.019,0,0,1,.1.651V25.942a2.592,2.592,0,0,1-.1.686Z" transform="translate(1744.468 66.932)" fill="#fff"/>
  </g>
</svg>
