<svg xmlns="http://www.w3.org/2000/svg" width="22.493" height="23.503" viewBox="0 0 22.493 23.503">
  <path id="Trazado_11" data-name="Trazado 11" d="M149.577,719.529a.08.08,0,0,0,.1-.049l.1-.273c.666.928,2.41,3.351,3.063,4.188a.748.748,0,0,0,.64.294l9.993.1a2.212,2.212,0,1,0,2.109-2.937c-.053,0-.1,0-.156.005a2.092,2.092,0,0,1,2.244,1.1c.1.257.254.258.254.258l.2,0-.074-.282c-.256,0-.255-.1-.255-.1l-.782-1.39v-.128h.066a.036.036,0,0,0,.037-.036l.006-.7a.037.037,0,0,0-.036-.037h-.066v-.1s-.051,0-2.258.493a2.792,2.792,0,0,0-2.266,2.439l-8.473-.072a.679.679,0,0,1-.545-.283l-3.149-4.391.086-.242a.08.08,0,0,0-.033-.094l.028.01a.061.061,0,0,0,.078-.037l.369-1.042a.061.061,0,0,0-.037-.077l-.005,0a.114.114,0,0,0,.1-.076l.014-.038h0l3.356-9.461.313-.881.96-2.707a.155.155,0,0,0-.094-.2l-.813-.288c.046-.092.119-.211.119-.211a.16.16,0,0,0,.1-.05.293.293,0,0,0-.1-.411.366.366,0,0,0-.462.1l-.1-.052-.292.343a3.18,3.18,0,0,0-.428.061l-.614-.005v0l-.026,0a.128.128,0,0,0,0,.256.126.126,0,0,0,.091-.037l.19.04v.1h.2v.052s-.308.049-.359.048-.155.1-.155.1l-.5.147a.154.154,0,1,0-.114.258.152.152,0,0,0,.115-.051l.706-.044a.49.49,0,0,1,.475-.1h0a.588.588,0,0,0,.1.229.333.333,0,0,0,.317.242.3.3,0,0,0,.068-.006.549.549,0,0,0,.086.008c.018,0,.037,0,.055,0l-.067.189-.252-.089a.17.17,0,0,0-.217.1l-.28.789a.17.17,0,0,0,.1.217l.252.09-.464,1.309-1.124,3.17,0,.013,0,.01-2.258,6.366a.122.122,0,0,0,.031.126l-.013,0a.06.06,0,0,0-.077.037l-.369,1.041a.06.06,0,0,0,.025.072.08.08,0,0,0-.1.05l-.172.485h0l-.055.154h0l-.514,1.449a.08.08,0,0,0,.048.1l.073.026a.046.046,0,0,0-.059.028l-.067.188a.046.046,0,0,0,.028.059l.064.022a.04.04,0,0,0-.035.026l-.129.359a.04.04,0,0,0,.024.051l.015.005-.041.114a2.511,2.511,0,0,0-1.735.359.16.16,0,0,0-.064.082.165.165,0,0,0,.228.2,2.224,2.224,0,0,1,1.313-.159l-.031.087a2.21,2.21,0,1,0,.662.219l.037-.1a1.981,1.981,0,0,1,1.134,1.233.113.113,0,0,0,.22-.025l.032-.281a.179.179,0,0,0,0-.065,2.116,2.116,0,0,0-1.264-1.388l.03-.084.037.013a.04.04,0,0,0,.051-.024l.129-.359a.039.039,0,0,0-.02-.048l.173.061a.046.046,0,0,0,.059-.028l.067-.187a.046.046,0,0,0-.028-.059Zm-1.68,4.117a.78.78,0,1,1,.786-.773A.78.78,0,0,1,147.9,723.646Zm17.759-1.41a.78.78,0,1,1-.787.773A.78.78,0,0,1,165.656,722.236Z" transform="translate(-145.635 -701.777)" fill="#fff"/>
</svg>
