<svg xmlns="http://www.w3.org/2000/svg" width="45.657" height="24.503" viewBox="0 0 45.657 24.503">
  <path id="Unión_1" data-name="Unión 1" d="M36.739,23.5a7.808,7.808,0,0,1-7.779-7.219L24,16.254h-.233l-.019,3.019,0,.257L25,19.536a1.137,1.137,0,0,1-1.205,1.072L21.72,20.6a1.14,1.14,0,0,1,1.049-1.073h.217V19.3l.02-3.155a2.215,2.215,0,0,1-.555-.277,7.367,7.367,0,0,1-1.014-.823L12.925,6.632,11.772,8.9a7.756,7.756,0,1,1-11.1,3.475,7.793,7.793,0,0,1,9.982-4.019l2.188-4.449-.849-.065A1.28,1.28,0,0,1,10.777,5.1L6.3,5.076A1.292,1.292,0,0,1,5.009,3.823S5.02,2.28,5.02,2.26a.161.161,0,0,1,.167-.127c.13,0,.163.148.163.148v.18l6.323.033v.011c0-.108,0-.18,0-.187a.175.175,0,0,1,.177-.153c.134,0,.153.154.153.154l0,.758,1.212.067L14.381.771h0A2.478,2.478,0,0,1,16.206,0l2.975.041c.564.007.518,1.268-.043,1.26s-2.95-.026-2.95-.026a1.214,1.214,0,0,0-.841.326l-.934,2.015.306-.023a2.4,2.4,0,0,1,2.093.663c.388.335,7.8,7.151,9.457,8.678L30.953,3.6,29.62,3.584a.773.773,0,1,1,.019-1.545l4.252.053a.773.773,0,1,1-.019,1.545l-1.654-.021L26.584,15.08l2.386.019a7.842,7.842,0,1,1,7.818,8.4Zm1.146-.691a7.351,7.351,0,0,1-1.065.079A7.081,7.081,0,0,0,37.885,22.813ZM4.958,22.107a7.073,7.073,0,0,0,1.3.436A7.341,7.341,0,0,1,4.937,22.1l-.144-.066Zm32.174-5.143-.084,5.547a6.89,6.89,0,0,0,5.835-4.11l-5.168-1.847A1.387,1.387,0,0,1,37.132,16.964Zm-6.41,1.219A6.893,6.893,0,0,0,36.482,22.4l.018-5.548a1.394,1.394,0,0,1-.576-.422ZM5.354,21.865a6.892,6.892,0,0,0,6.995-1.418L8.36,16.678a1.384,1.384,0,0,1-.7.141Zm-.475-.33,2.247-5.071a1.393,1.393,0,0,1-.357-.617L1.3,15.358A6.89,6.89,0,0,0,4.879,21.534Zm4.1-6.094a1.386,1.386,0,0,1-.085.709l4.079,3.672a6.891,6.891,0,0,0,.85-7.087Zm28.805-.27a1.384,1.384,0,0,1,.207.682l5.21,1.723a6.89,6.89,0,0,0-2.072-6.83ZM30.434,17.5l3.719-1.178-3.9-.024A5.617,5.617,0,0,0,30.434,17.5ZM1.314,14.612l5.457.587a1.384,1.384,0,0,1,.471-.535L6.026,9.25A6.891,6.891,0,0,0,1.314,14.612Zm34.565.544-3.289-4.463a6.907,6.907,0,0,0-2.308,4.418Zm-10.652-.144.714-1.423-1.1-1.035a1.227,1.227,0,0,1-.847.47h-.23a.6.6,0,0,1,0,.111l0,.719C24.382,14.393,25.008,14.853,25.228,15.011Zm11.97-.274,3.291-4.466a6.891,6.891,0,0,0-7.137-.045l3.132,4.506a1.5,1.5,0,0,1,.357-.043A1.2,1.2,0,0,1,37.2,14.738Zm-28.37-.052,4.6-2.643A7.2,7.2,0,0,0,11.21,10ZM6.909,9.13l.957,4.884L10.1,9.484a7.065,7.065,0,0,0-2.367-.411A5,5,0,0,0,6.909,9.13ZM23,13.147v-.038c0-.028,0-.058,0-.091h-.139ZM13.957,4.6l8.119,7.673a1.28,1.28,0,0,1,.894-.334l1.224.007c-2.777-2.61-7.307-6.863-7.758-7.252a3.028,3.028,0,0,0-1.876-.475l-.446.04Zm-4.189.164.994,0a1.04,1.04,0,0,0,.912-.978s0-.537,0-.962l-1.912-.01-.01,1.946Zm-.33,0,.01-1.946-1.881-.01-.01,1.946Zm-4.1-.93a.979.979,0,0,0,.937.913l.963,0L7.253,2.8l-1.9-.01Z" transform="translate(0.524 0.499)" fill="#fff" stroke="rgba(0,0,0,0)" stroke-miterlimit="10" stroke-width="1"/>
</svg>
