<svg xmlns="http://www.w3.org/2000/svg" width="41.894" height="23.503" viewBox="0 0 41.894 23.503">
  <path id="Trazado_12" data-name="Trazado 12" d="M701.672,896.416a7.315,7.315,0,1,0,11.011-6.321l1.9-3.912,1.861,2.43h0l3.226,4.21h0l2.389,3.119a2.9,2.9,0,0,0,1.221.863v1.7h-.147a1.021,1.021,0,0,0-1.021,1.022h2.042a1.021,1.021,0,0,0,1.021-1.022h-1.167v-1.529c.083.008.166.014.25.014h4.693a7.314,7.314,0,1,0,0-1.143h-2.3l5.241-10.764h.908a.685.685,0,0,0,.685-.685h0a.685.685,0,0,0-.685-.685h-4.041a.685.685,0,0,0-.685.685h0a.685.685,0,0,0,.685.685h1.868l-5.241,10.764h-.547a3.568,3.568,0,0,1-.83-.2v-1.7h.146a1.021,1.021,0,0,0,1.021-1.022h-2.042a1.022,1.022,0,0,0-1.021,1.022h1.168v1.336a3.908,3.908,0,0,1-.9-.792c-.016-.019-1.355-1.767-2.967-3.871l-1.537-2.006h0l-2.737-3.574,1.134-2.328h0l.426-.874.02-.029a1.076,1.076,0,0,1,.873-.451s2.1-.012,2.595-.012.519-1.109.023-1.109H717.6a2.188,2.188,0,0,0-1.974,1.256l-.006.013-.079.128-.525,1.079h0l-.624,1.281H713v-.669a.184.184,0,1,0-.368,0v.175h-7.065v-.175a.184.184,0,0,0-.369,0v1.627a1.477,1.477,0,0,0,1.475,1.476h4.852A1.477,1.477,0,0,0,713,884.963h.916l-.1.211h0l-2.154,4.424a7.319,7.319,0,0,0-9.989,6.819Zm6.016-10.358h-1.013a1.108,1.108,0,0,1-1.106-1.107v-1.083h2.119Zm2.458,0h-2.089v-2.19h2.089Zm2.488-1.107a1.108,1.108,0,0,1-1.106,1.107h-1.013v-2.19h2.119Zm19.62,6.626,3.028,4.172q-.032.046-.059.094H730a6.293,6.293,0,0,1,2.249-4.266Zm.974,5.409-3.051.992a6.274,6.274,0,0,1-.172-.992Zm4.2-.6a1.182,1.182,0,0,0-.207-.637l3.027-4.17a6.283,6.283,0,0,1,2.079,6.4Zm-.783,1.14a1.173,1.173,0,0,0,.541-.394l4.9,1.593a6.283,6.283,0,0,1-5.44,3.955Zm-.726-2.237-3.028-4.172a6.269,6.269,0,0,1,6.724,0l-3.027,4.17A1.176,1.176,0,0,0,735.915,895.288Zm-.058,7.393a6.275,6.275,0,0,1-5.44-3.956l4.9-1.593a1.179,1.179,0,0,0,.541.394Zm-3.6-.764-20.032-10.878a6.294,6.294,0,0,1,2.6,3.068l-4.859,1.58Zm-2.845,3.245v-4.132a6.236,6.236,0,0,1,1.822.39Zm6.4,2.132-2.8,4.838-3.027-4.17a1.175,1.175,0,0,0,.206-.637l4.9-1.593a6.291,6.291,0,0,1-2.079,6.4Zm-7.358.462,3.028-4.171a1.18,1.18,0,0,0,.669,0l3.028,4.171a6.269,6.269,0,0,1-6.724,0Zm2.429-6.015-4.9-1.593a6.273,6.273,0,0,1,5.44-3.955v5.154A1.178,1.178,0,0,0,708.054,895.7Zm-5.338.716a6.306,6.306,0,0,1,.2-1.563l4.9,1.593a1.177,1.177,0,0,0,.206.637l-3.027,4.171A6.268,6.268,0,0,1,702.717,896.416Z" transform="translate(-701.672 -880.237)" fill="#fff"/>
</svg>
