<svg xmlns="http://www.w3.org/2000/svg" width="40.374" height="23.503" viewBox="0 0 40.374 23.503">
  <path id="Trazado_789" data-name="Trazado 789" d="M4018.317,158.615a5.831,5.831,0,0,0-.513-2.185,5.96,5.96,0,0,0-3.387-3.219,8.9,8.9,0,0,0-1.169-.325c-.156-.037-.235-.079-.226-.261.015-.3-.007-.3-.292-.331a6.109,6.109,0,0,0-2.373.224c-.293.086-.292.081-.411-.206-.185-.441-.381-.877-.558-1.321a1.836,1.836,0,0,0-.277-.591c-.023-.026,0-.126.038-.166a.33.33,0,0,0,.021-.423c-.083-.146-.14-.307-.221-.455a1.464,1.464,0,0,0-.173-.211c.054-.3.111-.62.171-.958.188-.022.389-.048.59-.064.038,0,.082.033.118.057.146.1.264.023.37-.109.148-.185.078-.354.036-.526-.173-.72-.364-1.435-.535-2.155a.437.437,0,0,0-.322-.3c-.158-.055-.229.1-.248.24-.542.045-.816.445-1.1.816a3.794,3.794,0,0,0-.3.545.618.618,0,0,1-.227-.588,1.84,1.84,0,0,0,.065-.965c-.009-.065-.016-.13-.026-.2a1.337,1.337,0,0,1,.184-.993,4.81,4.81,0,0,0,.375-.709.421.421,0,0,0-.024-.284,1.307,1.307,0,0,0-.162-.221,1.66,1.66,0,0,1-.36-.587c-.05-.245-.212-.289-.436-.157-.3.179-.589.389-.884.582-.087.057-.183.1-.273.151a.176.176,0,0,1-.264-.085.414.414,0,0,1-.03-.24c.021-.135.08-.264.1-.4.028-.2-.114-.215-.262-.2,0-.276-.012-.254-.274-.288-.5-.064-.806.254-1.15.506-.115.084-.04.19.019.278.146.217.138.245-.1.361-.075.037-.14.094-.214.134s-.159.06-.233.1a1.154,1.154,0,0,0-.369.228.307.307,0,0,0,.237.457,1.919,1.919,0,0,0,.217,0c.185,0,.232.064.18.244-.113.388.078.586.478.509a.2.2,0,0,1,.154.073.146.146,0,0,0,.233.029c.113-.079.236-.142.35-.221s.206-.158.326-.249l.312.623-.265.1c.12.341.242.678.357,1.017.039.114.116.225,0,.354-.032.037,0,.152.03.218.105.232.223.457.346.7l-.333.114a.606.606,0,0,1-.048-.121c-.032-.293-.229-.389-.488-.436-.7-.127-1.392-.275-2.092-.393a1.585,1.585,0,0,0-.6.023c-.716.164-1.433.332-2.139.533s-1.378.446-2.07.658c-.827.253-1.659.49-2.488.736-.169.05-.335.111-.5.17-.042.015-.1.031-.119.064-.139.248-.275.168-.43.015a.374.374,0,0,0-.2-.079c-.575-.093-1.15-.18-1.725-.269-.543-.084-1.085-.188-1.632-.25a18.561,18.561,0,0,1-3.057-.846.9.9,0,0,0-.433-.049.524.524,0,0,0-.292.251,4.646,4.646,0,0,0-.184.533.236.236,0,0,1-.132.128.221.221,0,0,0-.178.234.857.857,0,0,0,.387.856c1.315.962,2.6,1.965,3.9,2.953.194.147.391.291.577.446a1.628,1.628,0,0,1,.195.239l-.046.055a1.051,1.051,0,0,0-.22-.1.486.486,0,0,0-.18.033.969.969,0,0,0,.05.17,1.246,1.246,0,0,0,.112.156l-.033.035a.556.556,0,0,0-.133-.055,1.8,1.8,0,0,0-.222-.007c.015.063.035.125.045.189s.01.117.018.222l-.2-.125-.12.145.114.178-.338.3.131.2a3.584,3.584,0,0,0-.305.214,1.863,1.863,0,0,0-.193.227c-.039.047-.071.128-.115.134a.237.237,0,0,1-.189-.068,7.455,7.455,0,0,0-2.548-2.164,5.718,5.718,0,0,0-2.375-.717c-.424-.024-.85-.048-1.273-.038-.317.008-.635.071-.978.113l.056.44c-.286.1-.574.2-.859.3a6.191,6.191,0,0,0-2.364,1.591,6.444,6.444,0,0,0-1.322,6.8,6.455,6.455,0,0,0,2.878,3.326,5.427,5.427,0,0,0,1.485.61,4.715,4.715,0,0,0,1.375.2,8.96,8.96,0,0,0,1.626-.094,8.053,8.053,0,0,0,1.675-.611,6.411,6.411,0,0,0,2.335-2.035,6.285,6.285,0,0,0,1.04-2.335,8.906,8.906,0,0,0,.1-1.682c.019-.69-.073-.589.61-.761.515-.129,1.025-.279,1.534-.428a.538.538,0,0,1,.622.161,7.56,7.56,0,0,0,.648.713,4.358,4.358,0,0,0,.972.751,1.416,1.416,0,0,0,1.241-.059c.254-.129,1-.543,1-.543l.469-.237s.452-.241.545-.293q1.712-.952,3.435-1.881,1.214-.656,2.439-1.293a1.56,1.56,0,0,0,.789-.885c.3-.833.605-1.662.9-2.495.052-.147.059-.313.124-.452a.68.68,0,0,1,.247-.271,3.725,3.725,0,0,1,.464-.207c.166-.074.277-.031.3.148.03.212.143.291.34.367a1.251,1.251,0,0,1,.818.758c.187.536.431,1.052.663,1.57a.23.23,0,0,1-.111.341,6.561,6.561,0,0,0-2.492,2.434,6.74,6.74,0,0,0-.785,2,3.261,3.261,0,0,0-.069.445c-.014.16.1.217.234.23.3.028.3.027.3.333,0,.164.008.329,0,.493a5.093,5.093,0,0,0,.648,2.676,5.62,5.62,0,0,0,1.569,1.944,6.66,6.66,0,0,0,2.251,1.134,5.827,5.827,0,0,0,.771.13,5.349,5.349,0,0,0,.739.077,6.279,6.279,0,0,0,3.2-.865,6.161,6.161,0,0,0,1.707-1.5,5.4,5.4,0,0,0,.909-1.663,3.937,3.937,0,0,0,.3-1.317C4018.241,159.319,4018.329,158.965,4018.317,158.615Zm-33.884,4.427a4.669,4.669,0,1,1,4.331-6.415l-2.111.649a2.511,2.511,0,1,0,.269,1.184l2.145-.659a4.669,4.669,0,0,1-4.634,5.241Zm27.775.612a4.669,4.669,0,0,1-2.156-8.81l.832,1.833a2.512,2.512,0,1,0,.981-.354l-.841-1.855a4.669,4.669,0,1,1,1.184,9.185Z" transform="translate(-3977.944 -141.508)" fill="#fff"/>
</svg>
