<svg xmlns="http://www.w3.org/2000/svg" width="23.797" height="18.508" viewBox="0 0 23.797 18.508">
  <path id="Icon_awesome-credit-card" data-name="Icon awesome-credit-card" d="M0,18.775a1.984,1.984,0,0,0,1.983,1.983H21.814A1.984,1.984,0,0,0,23.8,18.775V11.5H0Zm7.932-2.809a.5.5,0,0,1,.5-.5h5.619a.5.5,0,0,1,.5.5v1.653a.5.5,0,0,1-.5.5H8.428a.5.5,0,0,1-.5-.5Zm-5.288,0a.5.5,0,0,1,.5-.5H6.114a.5.5,0,0,1,.5.5v1.653a.5.5,0,0,1-.5.5H3.14a.5.5,0,0,1-.5-.5ZM23.8,4.233V6.216H0V4.233A1.984,1.984,0,0,1,1.983,2.25H21.814A1.984,1.984,0,0,1,23.8,4.233Z" transform="translate(0 -2.25)" fill="#fff"/>
</svg>
